<?xml version="1.0" encoding="UTF-8"?>
<!DOCTYPE svg  PUBLIC '-//W3C//DTD SVG 1.1//EN'  'http://www.w3.org/Graphics/SVG/1.1/DTD/svg11.dtd'>
<svg xmlns="http://www.w3.org/2000/svg">
<metadata>Created by FontForge 20120731 at Mon Apr 15 10:55:52 2019
 By www-data
(c) CSTM Fonts, 2015</metadata>
<defs>
<font id="a" horiz-adv-x="1180">
<font-face font-family="Navigo" font-weight="900" ascent="750" bbox="-157 -260 1554 1146" cap-height="750" descent="-250" panose-1="2 7 5 3 7 7 6 4 3 3" stemh="156" stemv="185" underline-position="-25" underline-thickness="50" unicode-range="U+0020-1F7CA" units-per-em="1000" x-height="508"/>
<missing-glyph d="M70 -250v1000h485v-1000h-485zM205 -115h215v730h-215v-730z" horiz-adv-x="625"/>
<glyph d="M109 0v360h-82v148h82v18c0 143 108 234 272 234c126 0 201 -52 226 -136v-69h-150c0 21 -16 52 -77 52c-60 0 -86 -26 -86 -82v-17h86v-148h-86v-360h-185zM423 0v508h184v-508h-184z" glyph-name="fi" horiz-adv-x="663" unicode="fi"/>
<glyph d="M294 360v-360h-185v360h-82v148h82v16c0 144 106 236 274 236c103 0 180 -27 224 -63v-697h-184v602c-9 3 -22 5 -40 5c-64 0 -89 -26 -89 -83v-16h86v-148h-86z" glyph-name="fl" horiz-adv-x="663" unicode="fl"/>
<glyph d="M70 -250v1000h485v-1000h-485zM205 -115h215v730h-215v-730z" glyph-name=".notdef" horiz-adv-x="625"/>
<glyph d="M178 0h-168v70l238 680h225l237 -670v-80h-186l-42 132h-261zM431 298l-78 252l-80 -252h158z" glyph-name="A" horiz-adv-x="722" unicode="A"/>
<glyph d="M7 78l367 672h596v-175h-296v-111h257v-158h-257v-131h296v-175h-499v124h-239l-69 -124h-156v78zM322 290h149v275z" glyph-name="AE" horiz-adv-x="1017" unicode="Æ"/>
<glyph d="M7 78l367 672h596v-175h-296v-111h257v-158h-257v-131h296v-175h-499v124h-239l-69 -124h-156v78zM322 290h149v275zM595 805v60l58 80h200v-60l-92 -80h-166z" glyph-name="AEacute" horiz-adv-x="1017" unicode="Ǽ"/>
<glyph d="M178 0h-168v70l238 680h225l237 -670v-80h-186l-42 132h-261zM431 298l-78 252l-80 -252h158zM268 805v60l58 80h200v-60l-92 -80h-166z" glyph-name="Aacute" horiz-adv-x="722" unicode="Á"/>
<glyph d="M178 0h-168v70l238 680h225l237 -670v-80h-186l-42 132h-261zM431 298l-78 252l-80 -252h158zM360 793c-138 0 -167 70 -167 70v78h87s15 -35 80 -35s76 35 76 35h87v-78s-28 -70 -163 -70z" glyph-name="Abreve" horiz-adv-x="722" unicode="Ă"/>
<glyph d="M178 0h-168v70l238 680h225l237 -670v-80h-186l-42 132h-261zM431 298l-78 252l-80 -252h158zM401 803l-42 53l-42 -53h-154v60l92 80h207l92 -80v-60h-153z" glyph-name="Acircumflex" horiz-adv-x="722" unicode="Â"/>
<glyph d="M178 0h-168v70l238 680h225l237 -670v-80h-186l-42 132h-261zM431 298l-78 252l-80 -252h158zM160 797v152h178v-152h-178zM382 797v152h178v-152h-178z" glyph-name="Adieresis" horiz-adv-x="722" unicode="Ä"/>
<glyph d="M178 0h-168v70l238 680h225l237 -670v-80h-186l-42 132h-261zM431 298l-78 252l-80 -252h158zM289 805l-92 80v60h200l58 -80v-60h-166z" glyph-name="Agrave" horiz-adv-x="722" unicode="À"/>
<glyph d="M178 0h-168v70l238 680h225l237 -670v-80h-186l-42 132h-261zM431 298l-78 252l-80 -252h158zM187 805v124h343v-124h-343z" glyph-name="Amacron" horiz-adv-x="722" unicode="Ā"/>
<glyph d="M481 -99c0 54 39 92 106 99h-63l-42 132h-261l-43 -132h-168v70l238 680h225l237 -670v-80c-41 -8 -66 -23 -66 -56c0 -45 44 -54 84 -54v-96h-87c-87 7 -160 29 -160 107zM431 298l-78 252l-80 -252h158z" glyph-name="Aogonek" horiz-adv-x="722" unicode="Ą"/>
<glyph d="M178 0h-168v70l238 680h225l237 -670v-80h-186l-42 132h-261zM431 298l-78 252l-80 -252h158zM358 785c-120 0 -165 39 -165 93c0 53 45 93 165 93c121 0 166 -40 166 -93c0 -54 -45 -93 -166 -93zM358 852c25 0 47 10 47 26s-22 26 -47 26c-24 0 -47 -10 -47 -26 s23 -26 47 -26z" glyph-name="Aring" horiz-adv-x="722" unicode="Å"/>
<glyph d="M277 1006v60l58 80h200v-60l-92 -80h-166zM178 0h-168v70l238 680h225l237 -670v-80h-186l-42 132h-261zM431 298l-78 252l-80 -252h158zM358 785c-120 0 -165 39 -165 93c0 53 45 93 165 93c121 0 166 -40 166 -93c0 -54 -45 -93 -166 -93zM358 852c25 0 47 10 47 26 s-22 26 -47 26c-24 0 -47 -10 -47 -26s23 -26 47 -26z" glyph-name="Aringacute" horiz-adv-x="722" unicode="Ǻ"/>
<glyph d="M178 0h-168v70l238 680h225l237 -670v-80h-186l-42 132h-261zM431 298l-78 252l-80 -252h158zM442 791c-56 0 -83 29 -123 29c-21 0 -31 -10 -35 -24h-120c-9 87 33 156 112 156c58 0 81 -29 120 -29c16 0 30 7 34 24h120c9 -90 -24 -156 -108 -156z" glyph-name="Atilde" horiz-adv-x="722" unicode="Ã"/>
<glyph d="M72 0v750h338c148 0 239 -80 239 -202c0 -75 -40 -136 -102 -158c80 -23 132 -88 132 -166c0 -138 -99 -224 -265 -224h-342zM266 458h107c47 0 80 23 80 64c0 45 -31 66 -79 66h-108v-130zM266 162h120c61 0 94 33 94 73s-31 70 -94 70h-120v-143z" glyph-name="B" horiz-adv-x="713" unicode="B"/>
<glyph d="M403 -18c-222 0 -366 150 -366 392c0 247 146 394 366 394c189 0 271 -98 290 -180v-78h-164c-10 48 -51 84 -125 84c-97 0 -164 -72 -164 -219c0 -143 66 -218 164 -218c73 0 118 40 130 88h164v-78c-25 -101 -128 -185 -295 -185z" glyph-name="C" horiz-adv-x="724" unicode="C"/>
<glyph d="M403 -18c-222 0 -366 150 -366 392c0 247 146 394 366 394c189 0 271 -98 290 -180v-78h-164c-10 48 -51 84 -125 84c-97 0 -164 -72 -164 -219c0 -143 66 -218 164 -218c73 0 118 40 130 88h164v-78c-25 -101 -128 -185 -295 -185zM321 805v60l58 80h200v-60l-92 -80 h-166z" glyph-name="Cacute" horiz-adv-x="724" unicode="Ć"/>
<glyph d="M403 -18c-222 0 -366 150 -366 392c0 247 146 394 366 394c189 0 271 -98 290 -180v-78h-164c-10 48 -51 84 -125 84c-97 0 -164 -72 -164 -219c0 -143 66 -218 164 -218c73 0 118 40 130 88h164v-78c-25 -101 -128 -185 -295 -185zM312 805v60l28 83h200v-60l-62 -83 h-166z" glyph-name="Cacute.pl" horiz-adv-x="724"/>
<glyph d="M403 -18c-222 0 -366 150 -366 392c0 247 146 394 366 394c189 0 271 -98 290 -180v-78h-164c-10 48 -51 84 -125 84c-97 0 -164 -72 -164 -219c0 -143 66 -218 164 -218c73 0 118 40 130 88h164v-78c-25 -101 -128 -185 -295 -185zM498 803h-207l-93 80v60h154l42 -52 l42 52h153v-60z" glyph-name="Ccaron" horiz-adv-x="724" unicode="Č"/>
<glyph d="M570 -124c0 -77 -62 -98 -155 -107h-95v87c46 0 75 8 75 37c0 27 -34 34 -71 34v62c-177 32 -287 173 -287 385c0 247 146 394 366 394c189 0 271 -98 290 -180v-78h-164c-10 48 -51 84 -125 84c-97 0 -164 -72 -164 -219c0 -143 66 -218 164 -218c73 0 118 40 130 88 h164v-78c-21 -86 -100 -160 -226 -180v-27c53 -7 98 -32 98 -84z" glyph-name="Ccedilla" horiz-adv-x="724" unicode="Ç"/>
<glyph d="M403 -18c-222 0 -366 150 -366 392c0 247 146 394 366 394c189 0 271 -98 290 -180v-78h-164c-10 48 -51 84 -125 84c-97 0 -164 -72 -164 -219c0 -143 66 -218 164 -218c73 0 118 40 130 88h164v-78c-25 -101 -128 -185 -295 -185zM439 803l-42 53l-42 -53h-154v60 l92 80h207l92 -80v-60h-153z" glyph-name="Ccircumflex" horiz-adv-x="724" unicode="Ĉ"/>
<glyph d="M403 -18c-222 0 -366 150 -366 392c0 247 146 394 366 394c189 0 271 -98 290 -180v-78h-164c-10 48 -51 84 -125 84c-97 0 -164 -72 -164 -219c0 -143 66 -218 164 -218c73 0 118 40 130 88h164v-78c-25 -101 -128 -185 -295 -185zM301 807v152h203v-152h-203z" glyph-name="Cdotaccent" horiz-adv-x="724" unicode="Ċ"/>
<glyph d="M72 0v750h284c229 0 370 -167 370 -372c0 -208 -141 -378 -370 -378h-284zM275 175h78c107 0 162 91 162 203c0 108 -55 197 -162 197h-78v-400z" glyph-name="D" horiz-adv-x="762" unicode="D"/>
<glyph d="M72 0v750h284c229 0 370 -167 370 -372c0 -208 -141 -378 -370 -378h-284zM275 175h78c107 0 162 91 162 203c0 108 -55 197 -162 197h-78v-400zM455 803h-207l-93 80v60h154l42 -52l42 52h153v-60z" glyph-name="Dcaron" horiz-adv-x="762" unicode="Ď"/>
<glyph d="M743 378c0 -208 -141 -378 -370 -378h-284v299h-73v149h73v302h284c229 0 370 -167 370 -372zM292 175h78c107 0 162 91 162 203c0 108 -55 197 -162 197h-78v-127h90v-149h-90v-124z" glyph-name="Dcroat" horiz-adv-x="779" unicode="Đ"/>
<glyph d="M72 0v750h499v-175h-296v-111h257v-158h-257v-131h296v-175h-499z" glyph-name="E" horiz-adv-x="618" unicode="E"/>
<glyph d="M72 0v750h499v-175h-296v-111h257v-158h-257v-131h296v-175h-499zM241 805v60l58 80h200v-60l-92 -80h-166z" glyph-name="Eacute" horiz-adv-x="618" unicode="É"/>
<glyph d="M72 0v750h499v-175h-296v-111h257v-158h-257v-131h296v-175h-499zM323 793c-138 0 -167 70 -167 70v78h87s15 -35 80 -35s76 35 76 35h87v-78s-28 -70 -163 -70z" glyph-name="Ebreve" horiz-adv-x="618" unicode="Ĕ"/>
<glyph d="M72 0v750h499v-175h-296v-111h257v-158h-257v-131h296v-175h-499zM428 803h-207l-93 80v60h154l42 -52l42 52h153v-60z" glyph-name="Ecaron" horiz-adv-x="618" unicode="Ě"/>
<glyph d="M72 0v750h499v-175h-296v-111h257v-158h-257v-131h296v-175h-499zM362 803l-42 53l-42 -53h-154v60l92 80h207l92 -80v-60h-153z" glyph-name="Ecircumflex" horiz-adv-x="618" unicode="Ê"/>
<glyph d="M72 0v750h499v-175h-296v-111h257v-158h-257v-131h296v-175h-499zM122 797v152h178v-152h-178zM344 797v152h178v-152h-178z" glyph-name="Edieresis" horiz-adv-x="618" unicode="Ë"/>
<glyph d="M72 0v750h499v-175h-296v-111h257v-158h-257v-131h296v-175h-499zM227 797v152h203v-152h-203z" glyph-name="Edotaccent" horiz-adv-x="618" unicode="Ė"/>
<glyph d="M72 0v750h499v-175h-296v-111h257v-158h-257v-131h296v-175h-499zM259 805l-92 80v60h200l58 -80v-60h-166z" glyph-name="Egrave" horiz-adv-x="618" unicode="È"/>
<glyph d="M72 0v750h499v-175h-296v-111h257v-158h-257v-131h296v-175h-499zM150 805v124h343v-124h-343z" glyph-name="Emacron" horiz-adv-x="618" unicode="Ē"/>
<glyph d="M544 750h193v-752c0 -175 -78 -258 -226 -258c-135 0 -191 82 -206 137v70h165c0 -17 13 -38 38 -38c24 0 36 16 36 43v48l-279 404v-404h-193v750h193l279 -412v412z" glyph-name="Eng" horiz-adv-x="809" unicode="Ŋ"/>
<glyph d="M342 -99c0 54 39 92 106 99h-376v750h499v-175h-296v-111h257v-158h-257v-131h296v-175c-41 -8 -66 -23 -66 -56c0 -45 44 -54 84 -54v-96h-87c-87 7 -160 29 -160 107z" glyph-name="Eogonek" horiz-adv-x="618" unicode="Ę"/>
<glyph d="M743 378c0 -208 -141 -378 -370 -378h-284v299h-73v149h73v302h284c229 0 370 -167 370 -372zM292 175h78c107 0 162 91 162 203c0 108 -55 197 -162 197h-78v-127h90v-149h-90v-124z" glyph-name="Eth" horiz-adv-x="779" unicode="Ð"/>
<glyph d="M750 133c-23 -68 -124 -151 -283 -151c-177 0 -302 81 -346 256h-89v115h68c0 7 -1 14 -1 21c0 6 1 13 1 18h-68v116h90c45 173 175 260 345 260c181 0 265 -78 278 -146v-78h-157c-6 25 -47 58 -119 58c-64 0 -121 -31 -138 -94h248l-26 -116h-241v-39h231l-26 -115 h-181c14 -56 72 -89 133 -89c76 0 117 34 124 62h157v-78z" glyph-name="Euro" horiz-adv-x="790" unicode="€"/>
<glyph d="M672 110c-22 -57 -112 -128 -255 -128c-157 0 -264 78 -307 210h-76v96h62c-1 7 -1 17 -1 24v21h-61v96h76c44 134 155 216 307 216c164 0 231 -70 251 -123v-68h-150c-6 22 -43 50 -103 50c-53 0 -105 -28 -116 -75h213l-23 -96h-210v-45h203l-22 -96h-157 c20 -47 62 -68 112 -68c67 0 101 29 107 53h150v-67z" glyph-name="Euro.old" horiz-adv-x="715"/>
<glyph d="M594 110c-22 -57 -105 -128 -240 -128c-150 0 -252 74 -291 201h-63v113h45v29h-45v113h63c41 128 148 207 291 207c154 0 216 -70 236 -123v-68h-150c-6 22 -37 50 -89 50c-43 0 -74 -25 -94 -66h177l-23 -113h-177v-29h170l-22 -113h-121c19 -37 49 -59 90 -59 c58 0 87 29 93 53h150v-67z" glyph-name="Euro.oldtab" horiz-adv-x="600"/>
<glyph d="M639 133c-19 -69 -104 -151 -257 -151c-154 0 -262 71 -304 246h-74v115h55c-1 7 -1 24 -1 31v22h-54v115h73c42 171 154 257 305 257c165 0 242 -78 252 -146v-78h-153c-6 25 -41 58 -101 58c-48 0 -98 -25 -112 -91h209l-22 -115h-205v-21c0 -9 0 -25 1 -32h195 l-23 -115h-150c14 -57 63 -79 107 -79c65 0 98 34 105 62h154v-78z" glyph-name="Euro.tab" horiz-adv-x="650"/>
<glyph d="M72 0v750h482v-175h-279v-121h249v-158h-249v-296h-203z" glyph-name="F" horiz-adv-x="590" unicode="F"/>
<glyph d="M428 -18c-247 0 -392 150 -392 392c0 236 150 394 385 394c172 0 279 -78 298 -176v-78h-165c-10 39 -58 80 -133 80c-113 0 -182 -89 -182 -219s72 -218 191 -218c41 0 73 6 102 18v95h-117v154h303v-331c-37 -54 -148 -111 -290 -111z" glyph-name="G" horiz-adv-x="769" unicode="G"/>
<glyph d="M428 -18c-247 0 -392 150 -392 392c0 236 150 394 385 394c172 0 279 -78 298 -176v-78h-165c-10 39 -58 80 -133 80c-113 0 -182 -89 -182 -219s72 -218 191 -218c41 0 73 6 102 18v95h-117v154h303v-331c-37 -54 -148 -111 -290 -111zM412 793c-138 0 -167 70 -167 70 v78h87s15 -35 80 -35s76 35 76 35h87v-78s-28 -70 -163 -70z" glyph-name="Gbreve" horiz-adv-x="769" unicode="Ğ"/>
<glyph d="M428 -18c-247 0 -392 150 -392 392c0 236 150 394 385 394c172 0 279 -78 298 -176v-78h-165c-10 39 -58 80 -133 80c-113 0 -182 -89 -182 -219s72 -218 191 -218c41 0 73 6 102 18v95h-117v154h303v-331c-37 -54 -148 -111 -290 -111zM450 803l-42 53l-42 -53h-154v60 l92 80h207l92 -80v-60h-153z" glyph-name="Gcircumflex" horiz-adv-x="769" unicode="Ĝ"/>
<glyph d="M428 -18c-247 0 -392 150 -392 392c0 236 150 394 385 394c172 0 279 -78 298 -176v-78h-165c-10 39 -58 80 -133 80c-113 0 -182 -89 -182 -219s72 -218 191 -218c41 0 73 6 102 18v95h-117v154h303v-331c-37 -54 -148 -111 -290 -111zM345 -205l-8 153h196v-72l-65 -81 h-123z" glyph-name="Gcommaaccent" horiz-adv-x="769" unicode="Ģ"/>
<glyph d="M428 -18c-247 0 -392 150 -392 392c0 236 150 394 385 394c172 0 279 -78 298 -176v-78h-165c-10 39 -58 80 -133 80c-113 0 -182 -89 -182 -219s72 -218 191 -218c41 0 73 6 102 18v95h-117v154h303v-331c-37 -54 -148 -111 -290 -111zM312 797v152h203v-152h-203z" glyph-name="Gdotaccent" horiz-adv-x="769" unicode="Ġ"/>
<glyph d="M72 0v750h203v-278h250v278h203v-750h-203v298h-250v-298h-203z" glyph-name="H" horiz-adv-x="800" unicode="H"/>
<glyph d="M291 298v-298h-203v543h-73v133h73v74h203v-74h250v74h203v-74h73v-133h-73v-543h-203v298h-250zM291 472h250v71h-250v-71z" glyph-name="Hbar" horiz-adv-x="832" unicode="Ħ"/>
<glyph d="M72 0v750h203v-278h250v278h203v-750h-203v298h-250v-298h-203zM442 803l-42 53l-42 -53h-154v60l92 80h207l92 -80v-60h-153z" glyph-name="Hcircumflex" horiz-adv-x="800" unicode="Ĥ"/>
<glyph d="M72 0v750h203v-750h-203z" glyph-name="I" horiz-adv-x="347" unicode="I"/>
<glyph d="M72 0v750h203v-750h-203zM547 -18c-164 0 -223 94 -236 165v78h165c0 -41 16 -68 55 -68c38 0 58 20 58 87v506h203v-498c0 -184 -91 -270 -245 -270z" glyph-name="IJ" horiz-adv-x="859" unicode="Ĳ"/>
<glyph d="M72 0v750h203v-750h-203zM90 805v60l58 80h200v-60l-92 -80h-166z" glyph-name="Iacute" horiz-adv-x="347" unicode="Í"/>
<glyph d="M175 793c-138 0 -167 70 -167 70v78h87s15 -35 80 -35s76 35 76 35h87v-78s-28 -70 -163 -70zM72 0v750h203v-750h-203z" glyph-name="Ibreve" horiz-adv-x="347" unicode="Ĭ"/>
<glyph d="M215 803l-42 53l-42 -53h-154v60l92 80h207l92 -80v-60h-153zM72 0v750h203v-750h-203z" glyph-name="Icircumflex" horiz-adv-x="347" unicode="Î"/>
<glyph d="M-26 797v152h178v-152h-178zM196 797v152h178v-152h-178zM72 0v750h203v-750h-203z" glyph-name="Idieresis" horiz-adv-x="347" unicode="Ï"/>
<glyph d="M72 797v152h203v-152h-203zM72 0v750h203v-750h-203z" glyph-name="Idotaccent" horiz-adv-x="347" unicode="İ"/>
<glyph d="M72 0v750h203v-750h-203zM97 805l-92 80v60h200l58 -80v-60h-166z" glyph-name="Igrave" horiz-adv-x="347" unicode="Ì"/>
<glyph d="M2 805v124h343v-124h-343zM72 0v750h203v-750h-203z" glyph-name="Imacron" horiz-adv-x="347" unicode="Ī"/>
<glyph d="M47 -99c0 54 39 92 106 99h-81v750h203v-750h1c-41 -8 -66 -23 -66 -56c0 -45 44 -54 84 -54v-96h-87c-87 7 -160 29 -160 107z" glyph-name="Iogonek" horiz-adv-x="347" unicode="Į"/>
<glyph d="M259 791c-56 0 -83 29 -123 29c-21 0 -31 -10 -35 -24h-120c-9 87 33 156 112 156c58 0 81 -29 120 -29c16 0 30 7 34 24h120c9 -90 -24 -156 -108 -156zM72 0v750h203v-750h-203z" glyph-name="Itilde" horiz-adv-x="347" unicode="Ĩ"/>
<glyph d="M255 -18c-164 0 -223 94 -236 165v78h165c0 -41 16 -68 55 -68c38 0 58 20 58 87v506h203v-498c0 -184 -91 -270 -245 -270z" glyph-name="J" horiz-adv-x="567" unicode="J"/>
<glyph d="M255 -18c-164 0 -223 94 -236 165v78h165c0 -41 16 -68 55 -68c38 0 58 20 58 87v506h203v-498c0 -184 -91 -270 -245 -270zM439 803l-42 53l-42 -53h-154v60l92 80h207l92 -80v-60h-153z" glyph-name="Jcircumflex" horiz-adv-x="567" unicode="Ĵ"/>
<glyph d="M275 304v-304h-203v750h203v-299l234 299h172v-78l-224 -278l255 -315v-79h-193z" glyph-name="K" horiz-adv-x="723" unicode="K"/>
<glyph d="M301 -205l-8 153h196v-72l-65 -81h-123zM275 304v-304h-203v750h203v-299l234 299h172v-78l-224 -278l255 -315v-79h-193z" glyph-name="Kcommaaccent" horiz-adv-x="723" unicode="Ķ"/>
<glyph d="M72 0v750h203v-575h287v-175h-490z" glyph-name="L" horiz-adv-x="583" unicode="L"/>
<glyph d="M72 0v750h203v-575h287v-175h-490zM73 805v60l58 80h200v-60l-92 -80h-166z" glyph-name="Lacute" horiz-adv-x="583" unicode="Ĺ"/>
<glyph d="M72 0v750h203v-575h287v-175h-490zM392 552l-9 198h177v-97l-49 -101h-119z" glyph-name="Lcaron" horiz-adv-x="597" unicode="Ľ"/>
<glyph d="M72 0v750h203v-575h287v-175h-490zM240 -205l-8 153h196v-72l-65 -81h-123z" glyph-name="Lcommaaccent" horiz-adv-x="583" unicode="Ļ"/>
<glyph d="M380 316v187h189v-187h-189zM72 0v750h203v-575h287v-175h-490z" glyph-name="Ldot" horiz-adv-x="606" unicode="Ŀ"/>
<glyph d="M589 175v-175h-490v252l-73 -28v175l73 28v323h203v-245l108 41v-175l-108 -41v-155h287z" glyph-name="Lslash" horiz-adv-x="610" unicode="Ł"/>
<glyph d="M397 136l-132 307v-443h-193v750h248l150 -356l149 356h248v-750h-203v443l-132 -307h-135z" glyph-name="M" horiz-adv-x="939" unicode="M"/>
<glyph d="M72 0v750h193l279 -412v412h193v-750h-193l-279 404v-404h-193z" glyph-name="N" horiz-adv-x="809" unicode="N"/>
<glyph d="M72 0v750h193l279 -412v412h193v-750h-193l-279 404v-404h-193zM322 805v60l58 80h200v-60l-92 -80h-166z" glyph-name="Nacute" horiz-adv-x="809" unicode="Ń"/>
<glyph d="M72 0v750h193l279 -412v412h193v-750h-193l-279 404v-404h-193zM321 805v60l28 83h200v-60l-62 -83h-166z" glyph-name="Nacute.pl" horiz-adv-x="809"/>
<glyph d="M72 0v750h193l279 -412v412h193v-750h-193l-279 404v-404h-193zM502 803h-207l-93 80v60h154l42 -52l42 52h153v-60z" glyph-name="Ncaron" horiz-adv-x="809" unicode="Ň"/>
<glyph d="M72 0v750h193l279 -412v412h193v-750h-193l-279 404v-404h-193zM311 -205l-8 153h196v-72l-65 -81h-123z" glyph-name="Ncommaaccent" horiz-adv-x="809" unicode="Ņ"/>
<glyph d="M72 0v750h193l279 -412v412h193v-750h-193l-279 404v-404h-193zM506 791c-56 0 -83 29 -123 29c-21 0 -31 -10 -35 -24h-120c-9 87 33 156 112 156c58 0 81 -29 120 -29c16 0 30 7 34 24h120c9 -90 -24 -156 -108 -156z" glyph-name="Ntilde" horiz-adv-x="809" unicode="Ñ"/>
<glyph d="M408 -18c-223 0 -372 159 -372 396c0 234 149 390 372 390s372 -156 372 -390c0 -237 -149 -396 -372 -396zM408 156c103 0 169 88 169 222c0 130 -66 216 -169 216c-104 0 -169 -86 -169 -216c0 -134 65 -222 169 -222z" glyph-name="O" horiz-adv-x="816" unicode="O"/>
<glyph d="M997 0h-482c-33 -8 -69 -10 -107 -10c-223 0 -372 165 -372 385c0 223 149 385 372 385c38 0 74 -2 107 -10h482v-175h-296v-111h257v-158h-257v-131h296v-175zM230 375c0 -122 69 -210 178 -210c32 0 63 3 90 12v399c-27 7 -57 9 -90 9c-109 0 -178 -86 -178 -210z" glyph-name="OE" horiz-adv-x="1044" unicode="Œ"/>
<glyph d="M408 -18c-223 0 -372 159 -372 396c0 234 149 390 372 390s372 -156 372 -390c0 -237 -149 -396 -372 -396zM408 156c103 0 169 88 169 222c0 130 -66 216 -169 216c-104 0 -169 -86 -169 -216c0 -134 65 -222 169 -222zM336 805v60l58 80h200v-60l-92 -80h-166z" glyph-name="Oacute" horiz-adv-x="816" unicode="Ó"/>
<glyph d="M408 -18c-223 0 -372 159 -372 396c0 234 149 390 372 390s372 -156 372 -390c0 -237 -149 -396 -372 -396zM408 156c103 0 169 88 169 222c0 130 -66 216 -169 216c-104 0 -169 -86 -169 -216c0 -134 65 -222 169 -222zM331 805v60l28 83h200v-60l-62 -83h-166z" glyph-name="Oacute.pl" horiz-adv-x="816"/>
<glyph d="M408 -18c-223 0 -372 159 -372 396c0 234 149 390 372 390s372 -156 372 -390c0 -237 -149 -396 -372 -396zM408 156c103 0 169 88 169 222c0 130 -66 216 -169 216c-104 0 -169 -86 -169 -216c0 -134 65 -222 169 -222zM409 793c-138 0 -167 70 -167 70v78h87 s15 -35 80 -35s76 35 76 35h87v-78s-28 -70 -163 -70z" glyph-name="Obreve" horiz-adv-x="816" unicode="Ŏ"/>
<glyph d="M408 -18c-223 0 -372 159 -372 396c0 234 149 390 372 390s372 -156 372 -390c0 -237 -149 -396 -372 -396zM408 156c103 0 169 88 169 222c0 130 -66 216 -169 216c-104 0 -169 -86 -169 -216c0 -134 65 -222 169 -222zM451 803l-42 53l-42 -53h-154v60l92 80h207 l92 -80v-60h-153z" glyph-name="Ocircumflex" horiz-adv-x="816" unicode="Ô"/>
<glyph d="M408 -18c-223 0 -372 159 -372 396c0 234 149 390 372 390s372 -156 372 -390c0 -237 -149 -396 -372 -396zM408 156c103 0 169 88 169 222c0 130 -66 216 -169 216c-104 0 -169 -86 -169 -216c0 -134 65 -222 169 -222zM205 797v152h178v-152h-178zM427 797v152h178 v-152h-178z" glyph-name="Odieresis" horiz-adv-x="816" unicode="Ö"/>
<glyph d="M408 -18c-223 0 -372 159 -372 396c0 234 149 390 372 390s372 -156 372 -390c0 -237 -149 -396 -372 -396zM408 156c103 0 169 88 169 222c0 130 -66 216 -169 216c-104 0 -169 -86 -169 -216c0 -134 65 -222 169 -222zM321 805l-92 80v60h200l58 -80v-60h-166z" glyph-name="Ograve" horiz-adv-x="816" unicode="Ò"/>
<glyph d="M408 -18c-223 0 -372 159 -372 396c0 234 149 390 372 390s372 -156 372 -390c0 -237 -149 -396 -372 -396zM408 156c103 0 169 88 169 222c0 130 -66 216 -169 216c-104 0 -169 -86 -169 -216c0 -134 65 -222 169 -222zM214 804v60l31 80h188l-22 -60l-42 -80h-155z M429 804v60l58 80h189v-60l-92 -80h-155z" glyph-name="Ohungarumlaut" horiz-adv-x="816" unicode="Ő"/>
<glyph d="M408 -18c-223 0 -372 159 -372 396c0 234 149 390 372 390s372 -156 372 -390c0 -237 -149 -396 -372 -396zM408 156c103 0 169 88 169 222c0 130 -66 216 -169 216c-104 0 -169 -86 -169 -216c0 -134 65 -222 169 -222zM236 805v124h343v-124h-343z" glyph-name="Omacron" horiz-adv-x="816" unicode="Ō"/>
<glyph d="M408 -18c-54 0 -103 9 -147 27l-32 -49h-186l90 137c-62 69 -97 166 -97 281c0 234 149 390 372 390c53 0 102 -9 145 -26l32 48h186l-88 -135c61 -69 97 -164 97 -277c0 -237 -149 -396 -372 -396zM230 378c0 -38 6 -73 19 -102l208 318c-15 6 -32 8 -49 8 c-109 0 -178 -89 -178 -224zM408 148c108 0 177 91 177 230c0 37 -6 70 -17 98l-211 -320c15 -6 32 -8 51 -8z" glyph-name="Oslash" horiz-adv-x="816" unicode="Ø"/>
<glyph d="M408 -18c-54 0 -103 9 -147 27l-32 -49h-186l90 137c-62 69 -97 166 -97 281c0 234 149 390 372 390c53 0 102 -9 145 -26l32 48h186l-88 -135c61 -69 97 -164 97 -277c0 -237 -149 -396 -372 -396zM230 378c0 -38 6 -73 19 -102l208 318c-15 6 -32 8 -49 8 c-109 0 -178 -89 -178 -224zM408 148c108 0 177 91 177 230c0 37 -6 70 -17 98l-211 -320c15 -6 32 -8 51 -8zM331 805v60l58 80h200v-60l-92 -80h-166z" glyph-name="Oslashacute" horiz-adv-x="816" unicode="Ǿ"/>
<glyph d="M408 -18c-223 0 -372 159 -372 396c0 234 149 390 372 390s372 -156 372 -390c0 -237 -149 -396 -372 -396zM408 156c103 0 169 88 169 222c0 130 -66 216 -169 216c-104 0 -169 -86 -169 -216c0 -134 65 -222 169 -222zM492 791c-56 0 -83 29 -123 29 c-21 0 -31 -10 -35 -24h-120c-9 87 33 156 112 156c58 0 81 -29 120 -29c16 0 30 7 34 24h120c9 -90 -24 -156 -108 -156z" glyph-name="Otilde" horiz-adv-x="816" unicode="Õ"/>
<glyph d="M72 0v750h269c187 0 305 -100 305 -259c0 -136 -102 -267 -305 -267h-66v-224h-203zM271 395h69c63 0 103 39 103 96c0 55 -39 89 -103 89h-69v-185z" glyph-name="P" horiz-adv-x="673" unicode="P"/>
<glyph d="M425 -10c-225 0 -393 175 -393 386s168 384 393 384c224 0 392 -173 392 -384s-168 -386 -392 -386zM425 123c144 0 252 115 252 253s-108 251 -252 251s-252 -113 -252 -251s108 -253 252 -253zM297 172v402h144c105 0 170 -54 170 -135c0 -77 -57 -149 -170 -149h-17 v-118h-127zM424 385h13c30 0 49 18 49 49c0 27 -18 45 -49 45h-13v-94z" glyph-name="Pcircle" horiz-adv-x="849" unicode="Ⓟ"/>
<glyph d="M741 -21v-80h-152l-69 98c-35 -10 -72 -15 -112 -15c-223 0 -372 159 -372 396c0 234 149 390 372 390s372 -156 372 -390c0 -124 -41 -227 -112 -297zM239 378c0 -134 65 -222 167 -222l-66 93v80h152l58 -82c17 36 27 80 27 131c0 130 -66 216 -169 216 c-104 0 -169 -86 -169 -216z" glyph-name="Q" horiz-adv-x="816" unicode="Q"/>
<glyph d="M275 0h-203v750h270c187 0 304 -99 304 -257c0 -82 -44 -157 -125 -203l151 -211v-79h-189l-158 237h-50v-237zM271 399h70c63 0 102 38 102 94c0 53 -38 86 -102 86h-70v-180z" glyph-name="R" horiz-adv-x="703" unicode="R"/>
<glyph d="M275 0h-203v750h270c187 0 304 -99 304 -257c0 -82 -44 -157 -125 -203l151 -211v-79h-189l-158 237h-50v-237zM271 399h70c63 0 102 38 102 94c0 53 -38 86 -102 86h-70v-180zM235 805v60l58 80h200v-60l-92 -80h-166z" glyph-name="Racute" horiz-adv-x="703" unicode="Ŕ"/>
<glyph d="M275 0h-203v750h270c187 0 304 -99 304 -257c0 -82 -44 -157 -125 -203l151 -211v-79h-189l-158 237h-50v-237zM271 399h70c63 0 102 38 102 94c0 53 -38 86 -102 86h-70v-180zM434 803h-207l-93 80v60h154l42 -52l42 52h153v-60z" glyph-name="Rcaron" horiz-adv-x="703" unicode="Ř"/>
<glyph d="M275 0h-203v750h270c187 0 304 -99 304 -257c0 -82 -44 -157 -125 -203l151 -211v-79h-189l-158 237h-50v-237zM271 399h70c63 0 102 38 102 94c0 53 -38 86 -102 86h-70v-180zM290 -205l-8 153h196v-72l-65 -81h-123z" glyph-name="Rcommaaccent" horiz-adv-x="703" unicode="Ŗ"/>
<glyph d="M343 -18c-176 0 -266 75 -297 172v79h164c18 -56 61 -85 136 -85c62 0 100 24 100 69c0 37 -29 61 -97 71l-80 11c-139 20 -224 96 -224 226c0 156 116 243 295 243c150 0 263 -63 281 -173v-78h-165c-9 48 -44 85 -117 85c-60 0 -95 -23 -95 -67c0 -29 20 -52 85 -62 l74 -11c144 -21 242 -99 242 -231c0 -153 -121 -249 -302 -249z" glyph-name="S" horiz-adv-x="683" unicode="S"/>
<glyph d="M343 -18c-176 0 -266 75 -297 172v79h164c18 -56 61 -85 136 -85c62 0 100 24 100 69c0 37 -29 61 -97 71l-80 11c-139 20 -224 96 -224 226c0 156 116 243 295 243c150 0 263 -63 281 -173v-78h-165c-9 48 -44 85 -117 85c-60 0 -95 -23 -95 -67c0 -29 20 -52 85 -62 l74 -11c144 -21 242 -99 242 -231c0 -153 -121 -249 -302 -249zM252 805v60l58 80h200v-60l-92 -80h-166z" glyph-name="Sacute" horiz-adv-x="683" unicode="Ś"/>
<glyph d="M343 -18c-176 0 -266 75 -297 172v79h164c18 -56 61 -85 136 -85c62 0 100 24 100 69c0 37 -29 61 -97 71l-80 11c-139 20 -224 96 -224 226c0 156 116 243 295 243c150 0 263 -63 281 -173v-78h-165c-9 48 -44 85 -117 85c-60 0 -95 -23 -95 -67c0 -29 20 -52 85 -62 l74 -11c144 -21 242 -99 242 -231c0 -153 -121 -249 -302 -249zM247 805v60l28 83h200v-60l-62 -83h-166z" glyph-name="Sacute.pl" horiz-adv-x="683"/>
<glyph d="M343 -18c-176 0 -266 75 -297 172v79h164c18 -56 61 -85 136 -85c62 0 100 24 100 69c0 37 -29 61 -97 71l-80 11c-139 20 -224 96 -224 226c0 156 116 243 295 243c150 0 263 -63 281 -173v-78h-165c-9 48 -44 85 -117 85c-60 0 -95 -23 -95 -67c0 -29 20 -52 85 -62 l74 -11c144 -21 242 -99 242 -231c0 -153 -121 -249 -302 -249zM452 803h-207l-93 80v60h154l42 -52l42 52h153v-60z" glyph-name="Scaron" horiz-adv-x="683" unicode="Š"/>
<glyph d="M504 -124c0 -77 -62 -98 -155 -107h-95v87c46 0 75 8 75 37c0 27 -34 34 -71 34v62c-121 20 -186 85 -212 165v79h164c18 -56 61 -85 136 -85c62 0 100 24 100 69c0 37 -29 61 -97 71l-80 11c-139 20 -224 96 -224 226c0 156 116 243 295 243c150 0 263 -63 281 -173v-78 h-165c-9 48 -44 85 -117 85c-60 0 -95 -23 -95 -67c0 -29 20 -52 85 -62l74 -11c144 -21 242 -99 242 -231c0 -134 -93 -225 -239 -245v-26c53 -7 98 -32 98 -84z" glyph-name="Scedilla" horiz-adv-x="683" unicode="Ş"/>
<glyph d="M343 -18c-176 0 -266 75 -297 172v79h164c18 -56 61 -85 136 -85c62 0 100 24 100 69c0 37 -29 61 -97 71l-80 11c-139 20 -224 96 -224 226c0 156 116 243 295 243c150 0 263 -63 281 -173v-78h-165c-9 48 -44 85 -117 85c-60 0 -95 -23 -95 -67c0 -29 20 -52 85 -62 l74 -11c144 -21 242 -99 242 -231c0 -153 -121 -249 -302 -249zM385 803l-42 53l-42 -53h-154v60l92 80h207l92 -80v-60h-153z" glyph-name="Scircumflex" horiz-adv-x="683" unicode="Ŝ"/>
<glyph d="M343 -18c-176 0 -266 75 -297 172v79h164c18 -56 61 -85 136 -85c62 0 100 24 100 69c0 37 -29 61 -97 71l-80 11c-139 20 -224 96 -224 226c0 156 116 243 295 243c150 0 263 -63 281 -173v-78h-165c-9 48 -44 85 -117 85c-60 0 -95 -23 -95 -67c0 -29 20 -52 85 -62 l74 -11c144 -21 242 -99 242 -231c0 -153 -121 -249 -302 -249zM261 -205l-8 153h196v-72l-65 -81h-123z" glyph-name="Scommaaccent" horiz-adv-x="683" unicode="Ș"/>
<glyph d="M219 0v575h-198v175h599v-175h-198v-575h-203z" glyph-name="T" horiz-adv-x="641" unicode="T"/>
<glyph d="M559 280h-130v-280h-203v280h-129v149h129v146h-198v175h599v-175h-198v-146h130v-149z" glyph-name="Tbar" horiz-adv-x="655" unicode="Ŧ"/>
<glyph d="M219 0v575h-198v175h599v-175h-198v-575h-203zM425 803h-207l-93 80v60h154l42 -52l42 52h153v-60z" glyph-name="Tcaron" horiz-adv-x="641" unicode="Ť"/>
<glyph d="M219 0v575h-198v175h599v-175h-198v-575h-203zM231 -205l-8 153h196v-72l-65 -81h-123z" glyph-name="Tcommaaccent" horiz-adv-x="641" unicode="Ţ"/>
<glyph d="M72 0v750h203v-75c249 -4 370 -120 370 -299c0 -178 -121 -293 -370 -297v-79h-203zM267 245c125 3 175 49 175 131c0 83 -50 129 -175 132v-263z" glyph-name="Thorn" horiz-adv-x="670" unicode="Þ"/>
<glyph d="M386 -18c-197 0 -321 133 -321 296v472h203v-473c0 -66 42 -121 115 -121c78 0 119 55 119 121v473h193v-472c0 -163 -124 -296 -309 -296z" glyph-name="U" horiz-adv-x="760" unicode="U"/>
<glyph d="M386 -18c-197 0 -321 133 -321 296v472h203v-473c0 -66 42 -121 115 -121c78 0 119 55 119 121v473h193v-472c0 -163 -124 -296 -309 -296zM298 805v60l58 80h200v-60l-92 -80h-166z" glyph-name="Uacute" horiz-adv-x="760" unicode="Ú"/>
<glyph d="M386 -18c-197 0 -321 133 -321 296v472h203v-473c0 -66 42 -121 115 -121c78 0 119 55 119 121v473h193v-472c0 -163 -124 -296 -309 -296zM384 793c-138 0 -167 70 -167 70v78h87s15 -35 80 -35s76 35 76 35h87v-78s-28 -70 -163 -70z" glyph-name="Ubreve" horiz-adv-x="760" unicode="Ŭ"/>
<glyph d="M386 -18c-197 0 -321 133 -321 296v472h203v-473c0 -66 42 -121 115 -121c78 0 119 55 119 121v473h193v-472c0 -163 -124 -296 -309 -296zM424 803l-42 53l-42 -53h-154v60l92 80h207l92 -80v-60h-153z" glyph-name="Ucircumflex" horiz-adv-x="760" unicode="Û"/>
<glyph d="M386 -18c-197 0 -321 133 -321 296v472h203v-473c0 -66 42 -121 115 -121c78 0 119 55 119 121v473h193v-472c0 -163 -124 -296 -309 -296zM182 797v152h178v-152h-178zM404 797v152h178v-152h-178z" glyph-name="Udieresis" horiz-adv-x="760" unicode="Ü"/>
<glyph d="M386 -18c-197 0 -321 133 -321 296v472h203v-473c0 -66 42 -121 115 -121c78 0 119 55 119 121v473h193v-472c0 -163 -124 -296 -309 -296zM301 805l-92 80v60h200l58 -80v-60h-166z" glyph-name="Ugrave" horiz-adv-x="760" unicode="Ù"/>
<glyph d="M386 -18c-197 0 -321 133 -321 296v472h203v-473c0 -66 42 -121 115 -121c78 0 119 55 119 121v473h193v-472c0 -163 -124 -296 -309 -296zM188 805v60l31 80h188l-22 -60l-42 -80h-155zM403 805v60l58 80h189v-60l-92 -80h-155z" glyph-name="Uhungarumlaut" horiz-adv-x="760" unicode="Ű"/>
<glyph d="M386 -18c-197 0 -321 133 -321 296v472h203v-473c0 -66 42 -121 115 -121c78 0 119 55 119 121v473h193v-472c0 -163 -124 -296 -309 -296zM211 805v124h343v-124h-343z" glyph-name="Umacron" horiz-adv-x="760" unicode="Ū"/>
<glyph d="M513 -110v-96h-87c-87 7 -159 29 -159 107c0 40 25 70 70 84c-168 20 -272 144 -272 293v472h203v-473c0 -66 42 -121 115 -121c78 0 119 55 119 121v473h193v-472c0 -134 -84 -248 -216 -284c-34 -12 -49 -25 -49 -53c0 -42 43 -51 83 -51z" glyph-name="Uogonek" horiz-adv-x="760" unicode="Ų"/>
<glyph d="M381 783c-120 0 -165 39 -165 93c0 53 45 93 165 93c121 0 166 -40 166 -93c0 -54 -45 -93 -166 -93zM381 850c25 0 47 10 47 26s-22 26 -47 26c-24 0 -47 -10 -47 -26s23 -26 47 -26zM386 -18c-197 0 -321 133 -321 296v472h203v-473c0 -66 42 -121 115 -121 c78 0 119 55 119 121v473h193v-472c0 -163 -124 -296 -309 -296z" glyph-name="Uring" horiz-adv-x="760" unicode="Ů"/>
<glyph d="M386 -18c-197 0 -321 133 -321 296v472h203v-473c0 -66 42 -121 115 -121c78 0 119 55 119 121v473h193v-472c0 -163 -124 -296 -309 -296zM467 791c-56 0 -83 29 -123 29c-21 0 -31 -10 -35 -24h-120c-9 87 33 156 112 156c58 0 81 -29 120 -29c16 0 30 7 34 24h120 c9 -90 -24 -156 -108 -156z" glyph-name="Utilde" horiz-adv-x="760" unicode="Ũ"/>
<glyph d="M241 0l-228 670v80h199l150 -505l158 505h190v-70l-230 -680h-239z" glyph-name="V" horiz-adv-x="721" unicode="V"/>
<glyph d="M618 0l-106 398l-105 -398h-221l-165 670v80h199l89 -488l119 488h181l112 -488l95 488h190v-70l-167 -680h-221z" glyph-name="W" horiz-adv-x="1025" unicode="W"/>
<glyph d="M618 0l-106 398l-105 -398h-221l-165 670v80h199l89 -488l119 488h181l112 -488l95 488h190v-70l-167 -680h-221zM429 805v60l58 80h200v-60l-92 -80h-166z" glyph-name="Wacute" horiz-adv-x="1025" unicode="Ẃ"/>
<glyph d="M618 0l-106 398l-105 -398h-221l-165 670v80h199l89 -488l119 488h181l112 -488l95 488h190v-70l-167 -680h-221zM560 803l-42 53l-42 -53h-154v60l92 80h207l92 -80v-60h-153z" glyph-name="Wcircumflex" horiz-adv-x="1025" unicode="Ŵ"/>
<glyph d="M618 0l-106 398l-105 -398h-221l-165 670v80h199l89 -488l119 488h181l112 -488l95 488h190v-70l-167 -680h-221zM315 797v152h178v-152h-178zM537 797v152h178v-152h-178z" glyph-name="Wdieresis" horiz-adv-x="1025" unicode="Ẅ"/>
<glyph d="M618 0l-106 398l-105 -398h-221l-165 670v80h199l89 -488l119 488h181l112 -488l95 488h190v-70l-167 -680h-221zM442 805l-92 80v60h200l58 -80v-60h-166z" glyph-name="Wgrave" horiz-adv-x="1025" unicode="Ẁ"/>
<glyph d="M22 0v78l212 300l-201 293v79h195l143 -226l130 226h172v-78l-195 -286l211 -307v-79h-193l-152 238l-150 -238h-172z" glyph-name="X" horiz-adv-x="709" unicode="X"/>
<glyph d="M237 0v290l-233 381v79h194l153 -279l146 279h171v-78l-228 -383v-289h-203z" glyph-name="Y" horiz-adv-x="675" unicode="Y"/>
<glyph d="M237 0v290l-233 381v79h194l153 -279l146 279h171v-78l-228 -383v-289h-203zM259 805v60l58 80h200v-60l-92 -80h-166z" glyph-name="Yacute" horiz-adv-x="675" unicode="Ý"/>
<glyph d="M237 0v290l-233 381v79h194l153 -279l146 279h171v-78l-228 -383v-289h-203zM385 803l-42 53l-42 -53h-154v60l92 80h207l92 -80v-60h-153z" glyph-name="Ycircumflex" horiz-adv-x="675" unicode="Ŷ"/>
<glyph d="M237 0v290l-233 381v79h194l153 -279l146 279h171v-78l-228 -383v-289h-203zM142 797v152h178v-152h-178zM364 797v152h178v-152h-178z" glyph-name="Ydieresis" horiz-adv-x="675" unicode="Ÿ"/>
<glyph d="M237 0v290l-233 381v79h194l153 -279l146 279h171v-78l-228 -383v-289h-203zM262 805l-92 80v60h200l58 -80v-60h-166z" glyph-name="Ygrave" horiz-adv-x="675" unicode="Ỳ"/>
<glyph d="M621 0h-582v165l330 410h-316v175h555v-165l-330 -410h343v-175z" glyph-name="Z" horiz-adv-x="660" unicode="Z"/>
<glyph d="M621 0h-582v165l330 410h-316v175h555v-165l-330 -410h343v-175zM243 805v60l58 80h200v-60l-92 -80h-166z" glyph-name="Zacute" horiz-adv-x="660" unicode="Ź"/>
<glyph d="M621 0h-582v165l330 410h-316v175h555v-165l-330 -410h343v-175zM244 805v60l28 83h200v-60l-62 -83h-166z" glyph-name="Zacute.pl" horiz-adv-x="660"/>
<glyph d="M621 0h-582v165l330 410h-316v175h555v-165l-330 -410h343v-175zM439 803h-207l-93 80v60h154l42 -52l42 52h153v-60z" glyph-name="Zcaron" horiz-adv-x="660" unicode="Ž"/>
<glyph d="M621 0h-582v165l330 410h-316v175h555v-165l-330 -410h343v-175zM227 797v152h203v-152h-203z" glyph-name="Zdotaccent" horiz-adv-x="660" unicode="Ż"/>
<glyph d="M194 -18c-111 0 -165 72 -165 159c0 102 77 161 227 161c45 0 80 -8 80 -8v17c0 42 -22 63 -65 63c-54 0 -69 -35 -69 -35h-146v69s40 119 217 119c168 0 248 -76 248 -222v-305h-173l-8 58c-25 -43 -69 -76 -146 -76zM264 121c54 0 72 36 72 65v20s-26 4 -63 4 c-45 0 -62 -19 -62 -46c0 -31 22 -43 53 -43z" glyph-name="a" horiz-adv-x="571" unicode="a"/>
<glyph d="M194 -18c-111 0 -165 72 -165 159c0 102 77 161 227 161c45 0 80 -8 80 -8v17c0 42 -22 63 -65 63c-54 0 -69 -35 -69 -35h-146v69s40 119 217 119c168 0 248 -76 248 -222v-305h-173l-8 58c-25 -43 -69 -76 -146 -76zM264 121c54 0 72 36 72 65v20s-26 4 -63 4 c-45 0 -62 -19 -62 -46c0 -31 22 -43 53 -43zM216 594v60l66 96h179v-60l-100 -96h-145z" glyph-name="aacute" horiz-adv-x="571" unicode="á"/>
<glyph d="M194 -18c-111 0 -165 72 -165 159c0 102 77 161 227 161c45 0 80 -8 80 -8v17c0 42 -22 63 -65 63c-54 0 -69 -35 -69 -35h-146v69s40 119 217 119c168 0 248 -76 248 -222v-305h-173l-8 58c-25 -43 -69 -76 -146 -76zM264 121c54 0 72 36 72 65v20s-26 4 -63 4 c-45 0 -62 -19 -62 -46c0 -31 22 -43 53 -43zM285 589c-129 0 -167 78 -167 78v78h87s24 -35 80 -35c57 0 76 35 76 35h87v-78s-37 -78 -163 -78z" glyph-name="abreve" horiz-adv-x="571" unicode="ă"/>
<glyph d="M194 -18c-111 0 -165 72 -165 159c0 102 77 161 227 161c45 0 80 -8 80 -8v17c0 42 -22 63 -65 63c-54 0 -69 -35 -69 -35h-146v69s40 119 217 119c168 0 248 -76 248 -222v-305h-173l-8 58c-25 -43 -69 -76 -146 -76zM264 121c54 0 72 36 72 65v20s-26 4 -63 4 c-45 0 -62 -19 -62 -46c0 -31 22 -43 53 -43zM330 594l-51 77l-50 -77h-137v60l92 96h190l92 -96v-60h-136z" glyph-name="acircumflex" horiz-adv-x="571" unicode="â"/>
<glyph d="M71 594v60l66 96h179v-60l-100 -96h-145z" glyph-name="acute" horiz-adv-x="379" unicode="´"/>
<glyph d="M71 594v60l28 126h179v-60l-62 -126h-145z" glyph-name="acute.pl" horiz-adv-x="302"/>
<glyph d="M70 805v60l58 80h200v-60l-92 -80h-166z" glyph-name="acute.uc" horiz-adv-x="302"/>
<glyph d="M71 805v60l28 83h200v-60l-62 -83h-166z" glyph-name="acute.ucpl" horiz-adv-x="302"/>
<glyph d="M194 -18c-111 0 -165 72 -165 159c0 102 77 161 227 161c45 0 80 -8 80 -8v17c0 42 -22 63 -65 63c-54 0 -69 -35 -69 -35h-146v69s40 119 217 119c168 0 248 -76 248 -222v-305h-173l-8 58c-25 -43 -69 -76 -146 -76zM264 121c54 0 72 36 72 65v20s-26 4 -63 4 c-45 0 -62 -19 -62 -46c0 -31 22 -43 53 -43zM89 593v161h169v-161h-169zM311 593v161h170v-161h-170z" glyph-name="adieresis" horiz-adv-x="571" unicode="ä"/>
<glyph d="M618 -18c-84 0 -146 29 -187 79c-46 -52 -112 -79 -204 -79c-121 0 -198 66 -198 159c0 102 77 167 229 167c45 0 81 -8 81 -8v11c0 42 -25 63 -69 63c-53 0 -69 -35 -69 -35h-145v69s40 119 217 119c80 0 139 -26 177 -71c41 43 99 71 172 71c172 0 249 -109 249 -251 c0 -37 -9 -70 -9 -70h-338c11 -48 43 -80 98 -80c74 0 86 36 86 36h154v-69s-48 -111 -244 -111zM525 308h170c0 36 -27 75 -82 75c-51 0 -77 -31 -88 -75zM265 113c45 0 74 36 74 67v12s-26 5 -64 5c-49 0 -64 -23 -64 -44c0 -28 20 -40 54 -40z" glyph-name="ae" horiz-adv-x="905" unicode="æ"/>
<glyph d="M618 -18c-84 0 -146 29 -187 79c-46 -52 -112 -79 -204 -79c-121 0 -198 66 -198 159c0 102 77 167 229 167c45 0 81 -8 81 -8v11c0 42 -25 63 -69 63c-53 0 -69 -35 -69 -35h-145v69s40 119 217 119c80 0 139 -26 177 -71c41 43 99 71 172 71c172 0 249 -109 249 -251 c0 -37 -9 -70 -9 -70h-338c11 -48 43 -80 98 -80c74 0 86 36 86 36h154v-69s-48 -111 -244 -111zM525 308h170c0 36 -27 75 -82 75c-51 0 -77 -31 -88 -75zM265 113c45 0 74 36 74 67v12s-26 5 -64 5c-49 0 -64 -23 -64 -44c0 -28 20 -40 54 -40zM394 594v60l66 96h179v-60 l-100 -96h-145z" glyph-name="aeacute" horiz-adv-x="905" unicode="ǽ"/>
<glyph d="M178 0h-168v70l238 680h225l237 -670v-80h-186l-42 132h-261zM431 298l-78 252l-80 -252h158z" glyph-name="afii10017" horiz-adv-x="722" unicode="А"/>
<glyph d="M72 0v750h517v-175h-314v-95h80c195 0 297 -110 297 -233c0 -140 -107 -247 -297 -247h-283zM271 170h83c59 0 95 28 95 79c0 46 -36 78 -95 78h-83v-157z" glyph-name="afii10018" horiz-adv-x="676" unicode="Б"/>
<glyph d="M72 0v750h338c148 0 239 -80 239 -202c0 -75 -40 -136 -102 -158c80 -23 132 -88 132 -166c0 -138 -99 -224 -265 -224h-342zM266 458h107c47 0 80 23 80 64c0 45 -31 66 -79 66h-108v-130zM266 162h120c61 0 94 33 94 73s-31 70 -94 70h-120v-143z" glyph-name="afii10019" horiz-adv-x="713" unicode="В"/>
<glyph d="M72 0v750h473v-175h-270v-575h-203z" glyph-name="afii10020" horiz-adv-x="566" unicode="Г"/>
<glyph d="M11 -150v325h61c33 25 72 115 75 257l6 318h557v-575h108v-325h-185v150h-437v-150h-185zM277 175h229v400h-172l-3 -156c-4 -133 -30 -207 -54 -244z" glyph-name="afii10021" horiz-adv-x="837" unicode="Д"/>
<glyph d="M199 0v-150h-185v325h78l226 575h237l228 -575h77v-325h-184v150h-477zM556 175c-9 21 -120 331 -125 345c-6 -14 -123 -324 -131 -345h256z" glyph-name="afii10021.bgr" horiz-adv-x="874"/>
<glyph d="M72 0v750h499v-175h-296v-111h257v-158h-257v-131h296v-175h-499z" glyph-name="afii10022" horiz-adv-x="618" unicode="Е"/>
<glyph d="M72 0v750h499v-175h-296v-111h257v-158h-257v-131h296v-175h-499zM122 797v152h178v-152h-178zM344 797v152h178v-152h-178z" glyph-name="afii10023" horiz-adv-x="618" unicode="Ё"/>
<glyph d="M424 304l-215 -304h-189v79l224 308l-210 284v79h177l213 -298v298h195v-298l214 298h171v-78l-206 -277l229 -316v-79h-193l-215 304v-304h-195v304z" glyph-name="afii10024" horiz-adv-x="1043" unicode="Ж"/>
<glyph d="M424 304l-215 -304h-189v79l224 308l-210 284v79h177l213 -298v298h195v-298l214 298h171v-78l-206 -277l229 -316v-79h-193l-215 304v-304h-195v304z" glyph-name="afii10024.bgr" horiz-adv-x="1043"/>
<glyph d="M323 -18c-171 0 -272 88 -290 183v79h164c7 -50 45 -95 122 -95c64 0 101 31 101 79c0 42 -31 76 -97 76h-101v149h84c60 0 89 36 89 77c0 44 -38 72 -86 72c-65 0 -96 -36 -102 -89h-164v78c16 85 96 177 277 177c163 0 270 -75 270 -210c0 -73 -39 -136 -107 -164 c83 -22 131 -86 131 -174c0 -143 -102 -238 -291 -238z" glyph-name="afii10025" horiz-adv-x="651" unicode="З"/>
<glyph d="M72 0v750h203v-438l261 438h203v-750h-203v436l-261 -436h-203z" glyph-name="afii10026" horiz-adv-x="811" unicode="И"/>
<glyph d="M72 0v750h203v-438l261 438h203v-750h-203v436l-261 -436h-203zM402 801c-106 0 -169 41 -186 79v66h146c-1 -22 15 -49 40 -49c23 0 40 27 40 49h146v-66c-16 -38 -80 -79 -186 -79z" glyph-name="afii10027" horiz-adv-x="811" unicode="Й"/>
<glyph d="M275 304v-304h-203v750h203v-299l234 299h172v-78l-224 -278l255 -315v-79h-193z" glyph-name="afii10028" horiz-adv-x="723" unicode="К"/>
<glyph d="M275 304v-304h-203v750h203v-299l234 299h172v-78l-224 -278l255 -315v-79h-193z" glyph-name="afii10028.bgr" horiz-adv-x="723"/>
<glyph d="M19 0v186h26c60 0 83 76 85 210l6 354h538v-750h-203v575h-153l-3 -190c-4 -235 -60 -385 -234 -385h-62z" glyph-name="afii10029" horiz-adv-x="746" unicode="Л"/>
<glyph d="M11 0v70l230 680h238l228 -670v-80h-198l-150 505l-158 -505h-190z" glyph-name="afii10029.bgr" horiz-adv-x="720"/>
<glyph d="M397 136l-132 307v-443h-193v750h248l150 -356l149 356h248v-750h-203v443l-132 -307h-135z" glyph-name="afii10030" horiz-adv-x="939" unicode="М"/>
<glyph d="M72 0v750h203v-278h250v278h203v-750h-203v298h-250v-298h-203z" glyph-name="afii10031" horiz-adv-x="800" unicode="Н"/>
<glyph d="M408 -18c-223 0 -372 159 -372 396c0 234 149 390 372 390s372 -156 372 -390c0 -237 -149 -396 -372 -396zM408 156c103 0 169 88 169 222c0 130 -66 216 -169 216c-104 0 -169 -86 -169 -216c0 -134 65 -222 169 -222z" glyph-name="afii10032" horiz-adv-x="816" unicode="О"/>
<glyph d="M72 0v750h646v-750h-203v575h-240v-575h-203z" glyph-name="afii10033" horiz-adv-x="790" unicode="П"/>
<glyph d="M72 0v750h269c187 0 305 -100 305 -259c0 -136 -102 -267 -305 -267h-66v-224h-203zM271 395h69c63 0 103 39 103 96c0 55 -39 89 -103 89h-69v-185z" glyph-name="afii10034" horiz-adv-x="673" unicode="Р"/>
<glyph d="M403 -18c-222 0 -366 150 -366 392c0 247 146 394 366 394c189 0 271 -98 290 -180v-78h-164c-10 48 -51 84 -125 84c-97 0 -164 -72 -164 -219c0 -143 66 -218 164 -218c73 0 118 40 130 88h164v-78c-25 -101 -128 -185 -295 -185z" glyph-name="afii10035" horiz-adv-x="724" unicode="С"/>
<glyph d="M219 0v575h-198v175h599v-175h-198v-575h-203z" glyph-name="afii10036" horiz-adv-x="641" unicode="Т"/>
<glyph d="M331 0h-171v78l89 154l-238 439v79h194l159 -305l151 305h171v-78z" glyph-name="afii10037" horiz-adv-x="693" unicode="У"/>
<glyph d="M356 -10v76c-199 4 -330 144 -330 312c0 167 131 306 330 310v72h203v-72c199 -4 330 -144 330 -312c0 -167 -131 -306 -330 -310v-76h-203zM356 228v299c-89 -4 -131 -70 -131 -149c0 -80 42 -146 131 -150zM559 227c89 4 131 70 131 149c0 81 -42 146 -131 150v-299z " glyph-name="afii10038" horiz-adv-x="915" unicode="Ф"/>
<glyph d="M356 -10v76c-199 4 -330 144 -330 312c0 167 131 306 330 310v72h203v-72c199 -4 330 -144 330 -312c0 -167 -131 -306 -330 -310v-76h-203zM356 228v299c-89 -4 -131 -70 -131 -149c0 -80 42 -146 131 -150zM559 227c89 4 131 70 131 149c0 81 -42 146 -131 150v-299z " glyph-name="afii10038.bgr" horiz-adv-x="915"/>
<glyph d="M22 0v78l212 300l-201 293v79h195l143 -226l130 226h172v-78l-195 -286l211 -307v-79h-193l-152 238l-150 -238h-172z" glyph-name="afii10039" horiz-adv-x="709" unicode="Х"/>
<glyph d="M642 -150v150h-570v750h203v-575h240v575h203v-575h108v-325h-184z" glyph-name="afii10040" horiz-adv-x="850" unicode="Ц"/>
<glyph d="M459 0v271h-103c-210 0 -319 87 -319 301v178h203v-178c0 -90 34 -131 119 -131h100v309h203v-750h-203z" glyph-name="afii10041" horiz-adv-x="734" unicode="Ч"/>
<glyph d="M72 0v750h203v-575h157v575h203v-575h157v575h203v-750h-923z" glyph-name="afii10042" horiz-adv-x="1067" unicode="Ш"/>
<glyph d="M919 -150v150h-847v750h203v-575h157v575h203v-575h157v575h203v-575h108v-325h-184z" glyph-name="afii10043" horiz-adv-x="1127" unicode="Щ"/>
<glyph d="M453 0h-272v575h-160v175h363v-224h69c201 0 305 -125 305 -260c0 -150 -110 -266 -305 -266zM380 170h72c64 0 103 34 103 94c0 53 -39 91 -103 91h-72v-185z" glyph-name="afii10044" horiz-adv-x="780" unicode="Ъ"/>
<glyph d="M72 0v750h203v-224h69c200 0 305 -125 305 -260c0 -150 -110 -266 -305 -266h-272zM701 0v750h203v-750h-203zM271 170h72c63 0 103 34 103 94c0 53 -39 91 -103 91h-72v-185z" glyph-name="afii10045" horiz-adv-x="976" unicode="Ы"/>
<glyph d="M72 0v750h203v-224h69c200 0 305 -125 305 -260c0 -150 -110 -266 -305 -266h-272zM271 170h72c63 0 103 34 103 94c0 53 -39 91 -103 91h-72v-185z" glyph-name="afii10046" horiz-adv-x="671" unicode="Ь"/>
<glyph d="M339 -18c-160 0 -273 73 -305 185v78h165c11 -41 61 -88 137 -88c89 0 138 48 150 142h-256v157h257c-11 87 -61 138 -147 138c-79 0 -126 -44 -136 -84h-164v78c18 76 107 180 300 180c217 0 356 -154 356 -391c0 -244 -132 -395 -357 -395z" glyph-name="afii10047" horiz-adv-x="733" unicode="Э"/>
<glyph d="M695 -18c-192 0 -326 126 -355 316h-65v-298h-203v750h203v-278h68c34 180 165 296 352 296c217 0 360 -158 360 -390c0 -235 -143 -396 -360 -396zM695 156c97 0 157 89 157 222c0 129 -60 216 -158 216c-97 0 -157 -87 -157 -216c0 -133 60 -222 158 -222z" glyph-name="afii10048" horiz-adv-x="1092" unicode="Ю"/>
<glyph d="M431 246h-59l-158 -246h-180v79l149 217c-74 30 -133 103 -133 201c0 155 116 253 300 253h284v-750h-203v246zM351 408h84v172h-84c-61 0 -98 -31 -98 -83c0 -53 37 -89 98 -89z" glyph-name="afii10049" horiz-adv-x="706" unicode="Я"/>
<glyph d="M360 900h185v-325h-270v-575h-203v750h288v150z" glyph-name="afii10050" horiz-adv-x="566" unicode="Ґ"/>
<glyph d="M587 -10c-40 0 -71 5 -89 10v167c4 -1 28 -7 55 -7c41 0 65 29 65 76c0 50 -33 75 -81 75c-76 0 -115 -45 -115 -100v-211h-203v575h-198v175h598v-175h-197v-153c30 38 85 68 162 68c150 0 237 -107 237 -248c0 -148 -91 -252 -234 -252z" glyph-name="afii10051" horiz-adv-x="839" unicode="Ђ"/>
<glyph d="M248 805v60l58 80h200v-60l-92 -80h-166zM72 0v750h473v-175h-270v-575h-203z" glyph-name="afii10052" horiz-adv-x="566" unicode="Ѓ"/>
<glyph d="M699 167c-19 -95 -138 -185 -295 -185c-230 0 -367 150 -367 392c0 238 146 394 367 394c189 0 274 -95 290 -180v-78h-165c-10 43 -50 84 -125 84c-78 0 -142 -45 -154 -138h258v-157h-259c12 -97 75 -142 155 -142c73 0 119 43 130 88h165v-78z" glyph-name="afii10053" horiz-adv-x="734" unicode="Є"/>
<glyph d="M343 -18c-176 0 -266 75 -297 172v79h164c18 -56 61 -85 136 -85c62 0 100 24 100 69c0 37 -29 61 -97 71l-80 11c-139 20 -224 96 -224 226c0 156 116 243 295 243c150 0 263 -63 281 -173v-78h-165c-9 48 -44 85 -117 85c-60 0 -95 -23 -95 -67c0 -29 20 -52 85 -62 l74 -11c144 -21 242 -99 242 -231c0 -153 -121 -249 -302 -249z" glyph-name="afii10054" horiz-adv-x="683" unicode="Ѕ"/>
<glyph d="M72 0v750h203v-750h-203z" glyph-name="afii10055" horiz-adv-x="347" unicode="І"/>
<glyph d="M-26 797v152h178v-152h-178zM196 797v152h178v-152h-178zM72 0v750h203v-750h-203z" glyph-name="afii10056" horiz-adv-x="347" unicode="Ї"/>
<glyph d="M255 -18c-164 0 -223 94 -236 165v78h165c0 -41 16 -68 55 -68c38 0 58 20 58 87v506h203v-498c0 -184 -91 -270 -245 -270z" glyph-name="afii10057" horiz-adv-x="567" unicode="Ј"/>
<glyph d="M20 0v186h26c60 0 83 76 85 210l6 354h530v-224h60c201 0 306 -125 306 -260c0 -150 -110 -266 -306 -266h-263v575h-145l-3 -190c-4 -235 -60 -385 -234 -385h-62zM663 170h63c64 0 103 34 103 94c0 53 -38 91 -103 91h-63v-185z" glyph-name="afii10058" horiz-adv-x="1055" unicode="Љ"/>
<glyph d="M275 313v-313h-203v750h203v-263h235v263h203v-263h77c195 0 297 -114 297 -241c0 -139 -106 -246 -297 -246h-280v313h-235zM709 170h80c59 0 95 26 95 75c0 43 -35 72 -95 72h-80v-147z" glyph-name="afii10059" horiz-adv-x="1107" unicode="Њ"/>
<glyph d="M219 0v575h-198v175h598v-175h-197v-153c28 37 84 68 165 68c138 0 228 -92 228 -261v-229h-203v208c0 60 -32 103 -95 103c-62 0 -95 -46 -95 -101v-210h-203z" glyph-name="afii10060" horiz-adv-x="849" unicode="Ћ"/>
<glyph d="M302 805v60l58 80h200v-60l-92 -80h-166zM275 304v-304h-203v750h203v-299l234 299h172v-78l-224 -278l255 -315v-79h-193z" glyph-name="afii10061" horiz-adv-x="723" unicode="Ќ"/>
<glyph d="M331 0h-171v78l89 154l-238 439v79h194l159 -305l151 305h171v-78zM364 801c-106 0 -169 41 -186 79v66h146c-1 -22 15 -49 40 -49c23 0 40 27 40 49h146v-66c-16 -38 -80 -79 -186 -79z" glyph-name="afii10062" horiz-adv-x="693" unicode="Ў"/>
<glyph d="M194 -18c-111 0 -165 72 -165 159c0 102 77 161 227 161c45 0 80 -8 80 -8v17c0 42 -22 63 -65 63c-54 0 -69 -35 -69 -35h-146v69s40 119 217 119c168 0 248 -76 248 -222v-305h-173l-8 58c-25 -43 -69 -76 -146 -76zM264 121c54 0 72 36 72 65v20s-26 4 -63 4 c-45 0 -62 -19 -62 -46c0 -31 22 -43 53 -43z" glyph-name="afii10065" horiz-adv-x="571" unicode="а"/>
<glyph d="M324 -18c-177 0 -281 119 -281 300v78c0 219 69 360 289 379l52 4c49 5 57 21 57 21h137v-70c-21 -65 -62 -99 -177 -110l-67 -6c-93 -9 -120 -47 -127 -136c32 49 90 76 161 76c152 0 237 -108 237 -267c0 -148 -105 -269 -281 -269zM324 143c66 0 97 48 97 108 c0 59 -31 106 -97 106s-96 -47 -96 -106c0 -60 31 -108 96 -108z" glyph-name="afii10066" horiz-adv-x="637" unicode="б"/>
<glyph d="M306 -18c-173 0 -275 119 -275 265c0 111 60 200 152 235c-59 22 -117 60 -117 133c0 80 58 135 182 135h135c102 0 162 12 162 12v-144s-45 -18 -161 -18h-105c-18 0 -26 -3 -26 -16c0 -19 38 -33 116 -65c106 -43 212 -112 212 -272c0 -146 -102 -265 -275 -265z M306 143c62 0 91 47 91 104c0 56 -29 102 -91 102s-90 -46 -90 -102c0 -57 28 -104 90 -104z" glyph-name="afii10066.locl" horiz-adv-x="613"/>
<glyph d="M56 0v517h280c106 0 179 -47 179 -135c0 -51 -28 -91 -75 -110c61 -18 95 -62 95 -119c0 -103 -77 -153 -188 -153h-291zM232 325h54c32 0 48 12 48 36c0 25 -19 34 -48 34h-54v-70zM232 122h66c35 0 56 13 56 40s-19 40 -56 40h-66v-80z" glyph-name="afii10067" horiz-adv-x="567" unicode="в"/>
<glyph d="M302 -27c-150 0 -253 91 -253 252v289c0 135 82 246 262 246c141 0 242 -84 242 -212c0 -65 -32 -128 -88 -165c64 -35 100 -97 100 -168c0 -145 -106 -242 -263 -242zM233 522v-71h56c49 0 79 29 79 76c0 44 -26 72 -66 72c-46 0 -69 -31 -69 -77zM303 134 c47 0 78 34 78 86s-36 83 -92 83h-56v-80c0 -55 25 -89 70 -89z" glyph-name="afii10067.bgr" horiz-adv-x="598"/>
<glyph d="M56 0v508h373v-148h-188v-360h-185z" glyph-name="afii10068" horiz-adv-x="449" unicode="г"/>
<glyph d="M256 -18c-134 0 -225 71 -225 177c0 94 62 138 175 151l71 8c32 4 50 17 50 40c0 28 -19 42 -56 42c-41 0 -69 -27 -74 -49h-145v69c22 61 92 107 223 107c127 0 215 -66 215 -174c0 -92 -61 -144 -170 -154l-77 -7c-31 -4 -49 -17 -49 -42c0 -28 25 -41 66 -41 c59 0 83 28 90 50h146v-69c-21 -56 -108 -108 -240 -108z" glyph-name="afii10068.bgr" horiz-adv-x="530"/>
<glyph d="M56 0v508h373v-148h-188v-360h-185z" glyph-name="afii10068.locl" horiz-adv-x="449"/>
<glyph d="M18 -140v288h45c25 19 36 66 42 145l14 215h438v-360h72v-288h-166v140h-278v-140h-167zM231 148h146v216h-110l-5 -85c-3 -54 -13 -98 -31 -131z" glyph-name="afii10069" horiz-adv-x="655" unicode="д"/>
<glyph d="M321 -260c-213 0 -255 150 -255 150v68h158s13 -56 91 -56c70 0 99 50 99 111v57c-32 -48 -90 -72 -161 -72c-135 0 -219 116 -219 258c0 152 88 271 225 271c70 0 128 -35 157 -86l8 67h174v-490c0 -167 -115 -278 -277 -278zM317 159c56 0 97 42 97 100s-41 98 -98 98 c-60 0 -97 -42 -97 -98c0 -57 37 -100 98 -100z" glyph-name="afii10069.bgr" horiz-adv-x="653"/>
<glyph d="M18 -140v288h45c25 19 36 66 42 145l14 215h438v-360h72v-288h-166v140h-278v-140h-167zM231 148h146v216h-110l-5 -85c-3 -54 -13 -98 -31 -131z" glyph-name="afii10069.locl" horiz-adv-x="655"/>
<glyph d="M312 -18c-189 0 -281 120 -281 269c0 151 102 276 278 276c179 0 257 -109 257 -251c0 -37 -10 -70 -10 -70h-338c11 -48 43 -80 98 -80c75 0 87 36 87 36h153v-69s-48 -111 -244 -111zM219 308h171c0 36 -28 75 -83 75c-50 0 -77 -31 -88 -75z" glyph-name="afii10070" horiz-adv-x="599" unicode="е"/>
<glyph d="M312 -18c-189 0 -281 120 -281 269c0 151 102 276 278 276c179 0 257 -109 257 -251c0 -37 -10 -70 -10 -70h-338c11 -48 43 -80 98 -80c75 0 87 36 87 36h153v-69s-48 -111 -244 -111zM219 308h171c0 36 -28 75 -83 75c-50 0 -77 -31 -88 -75zM112 593v161h169v-161 h-169zM334 593v161h170v-161h-170z" glyph-name="afii10071" horiz-adv-x="599" unicode="ё"/>
<glyph d="M33 0v70l132 193l-131 177v68h175l128 -191v191h184v-191l127 191h171v-69l-126 -175l136 -194v-70h-185l-123 201v-201h-184v201l-123 -201h-181z" glyph-name="afii10072" horiz-adv-x="858" unicode="ж"/>
<glyph d="M31 0v70l132 193l-123 177v68h175l120 -191v433h184v-433l119 191h171v-69l-118 -175l136 -194v-70h-188l-120 201v-201h-184v201l-119 -201h-185z" glyph-name="afii10072.bgr" horiz-adv-x="854"/>
<glyph d="M258 -18c-181 0 -221 103 -227 111v69h154c3 -6 11 -53 74 -53c45 0 62 22 62 47c0 24 -15 46 -68 46h-69v105h63c42 0 57 21 57 49c0 22 -15 42 -53 42c-51 0 -63 -46 -65 -52h-150v69c5 8 51 112 228 112c133 0 209 -54 209 -145c0 -51 -21 -91 -83 -110 c69 -18 103 -63 103 -127c0 -107 -87 -163 -235 -163z" glyph-name="afii10073" horiz-adv-x="525" unicode="з"/>
<glyph d="M244 -260c-190 0 -229 137 -229 137v69h145s12 -44 73 -44c55 0 81 39 81 87c0 47 -32 83 -102 83h-73v148h74c58 0 88 32 88 74c0 39 -22 72 -69 72c-46 0 -58 -35 -61 -41h-145v69c5 8 44 133 219 133c146 0 240 -90 240 -203c0 -70 -31 -133 -90 -172 c70 -38 104 -104 104 -178c0 -130 -99 -234 -255 -234z" glyph-name="afii10073.bgr" horiz-adv-x="530"/>
<glyph d="M56 0v508h185v-265l149 265h183v-508h-185v266l-149 -266h-183z" glyph-name="afii10074" horiz-adv-x="629" unicode="и"/>
<glyph d="M227 -18c-131 0 -176 97 -176 203v323h185v-281c0 -45 15 -77 58 -77c54 0 72 42 72 81v277h185v-508h-175l-7 67c-21 -40 -69 -85 -142 -85z" glyph-name="afii10074.bgr" horiz-adv-x="607"/>
<glyph d="M56 0v508h185v-265l149 265h183v-508h-185v266l-149 -266h-183zM313 588c-98 0 -156 49 -169 90v68h130c-1 -29 7 -59 39 -59c30 0 39 30 39 59h130v-68c-14 -41 -70 -90 -169 -90z" glyph-name="afii10075" horiz-adv-x="629" unicode="й"/>
<glyph d="M227 -18c-131 0 -176 97 -176 203v323h185v-281c0 -45 15 -77 58 -77c54 0 72 42 72 81v277h185v-508h-175l-7 67c-21 -40 -69 -85 -142 -85zM303 588c-98 0 -156 49 -169 90v68h130c-1 -29 7 -59 39 -59c30 0 39 30 39 59h130v-68c-14 -41 -70 -90 -169 -90z" glyph-name="afii10075.bgr" horiz-adv-x="607"/>
<glyph d="M56 0v508h185v-191l136 191h171v-69l-130 -175l149 -194v-70h-189l-137 201v-201h-185z" glyph-name="afii10076" horiz-adv-x="587" unicode="к"/>
<glyph d="M56 0v750h185v-433l135 191h171v-69l-129 -175l149 -194v-70h-189l-137 201v-201h-185z" glyph-name="afii10076.bgr" horiz-adv-x="589"/>
<glyph d="M24 0v157h9c51 1 67 40 68 111l5 240h429v-508h-185v361h-88l-1 -117c-2 -139 -35 -244 -184 -244h-53z" glyph-name="afii10077" horiz-adv-x="591" unicode="л"/>
<glyph d="M367 0l-92 268l-89 -268h-171v69l175 439h184l173 -438v-70h-180z" glyph-name="afii10077.bgr" horiz-adv-x="562"/>
<glyph d="M316 66l-93 220v-286h-167v508h237l99 -236l97 236h234v-508h-176v288l-93 -222h-138z" glyph-name="afii10078" horiz-adv-x="779" unicode="м"/>
<glyph d="M56 0v508h185v-178h137v178h185v-508h-185v181h-137v-181h-185z" glyph-name="afii10079" horiz-adv-x="619" unicode="н"/>
<glyph d="M56 0v508h185v-178h137v178h185v-508h-185v181h-137v-181h-185z" glyph-name="afii10079.bgr" horiz-adv-x="619"/>
<glyph d="M306 -18c-173 0 -275 123 -275 273c0 151 102 272 275 272s275 -121 275 -272c0 -150 -102 -273 -275 -273zM306 143c62 0 91 51 91 112s-29 111 -91 111s-90 -50 -90 -111s28 -112 90 -112z" glyph-name="afii10080" horiz-adv-x="612" unicode="о"/>
<glyph d="M56 0v508h497v-508h-185v360h-127v-360h-185z" glyph-name="afii10081" horiz-adv-x="609" unicode="п"/>
<glyph d="M56 0v508h175l7 -67c21 40 73 86 150 86c132 0 176 -98 176 -203v-324h-185v281c0 45 -16 77 -62 77c-57 0 -76 -41 -76 -81v-277h-185z" glyph-name="afii10081.bgr" horiz-adv-x="615"/>
<glyph d="M56 0v508h497v-508h-185v360h-127v-360h-185z" glyph-name="afii10081.locl" horiz-adv-x="609"/>
<glyph d="M56 -250v758h175l7 -68c30 52 91 87 163 87c140 0 219 -121 219 -271c0 -156 -88 -274 -219 -274c-71 0 -126 28 -160 80v-312h-185zM337 151c61 0 98 45 98 105c0 57 -37 101 -97 101c-57 0 -97 -42 -97 -102s40 -104 96 -104z" glyph-name="afii10082" horiz-adv-x="653" unicode="р"/>
<glyph d="M301 -18c-180 0 -269 122 -269 269c0 151 100 276 269 276c181 0 218 -134 218 -134v-69h-145s-11 42 -73 42c-57 0 -84 -53 -84 -115c0 -61 27 -108 84 -108c65 0 74 43 74 43h145v-69s-40 -135 -219 -135z" glyph-name="afii10083" horiz-adv-x="554" unicode="с"/>
<glyph d="M154 0v360h-134v148h454v-148h-135v-360h-185z" glyph-name="afii10084" horiz-adv-x="494" unicode="т"/>
<glyph d="M56 0v508h174l7 -64c22 41 64 83 133 83c74 0 120 -41 138 -91c24 45 70 91 146 91c128 0 178 -95 178 -210v-317h-185v290c0 40 -14 68 -57 68c-42 0 -58 -36 -58 -70v-288h-176v295c0 38 -17 63 -57 63c-43 0 -59 -37 -59 -72v-286h-184z" glyph-name="afii10084.bgr" horiz-adv-x="883"/>
<glyph d="M154 0v360h-134v148h454v-148h-135v-360h-185z" glyph-name="afii10084.locl" horiz-adv-x="494"/>
<glyph d="M250 -250h-167v70l110 204l-176 414v70h180l98 -276l108 276h166v-69z" glyph-name="afii10085" horiz-adv-x="578" unicode="у"/>
<glyph d="M308 -250v232c-173 4 -277 124 -277 273c0 151 104 266 277 271v181h184v-181c173 -4 277 -123 277 -273s-104 -266 -277 -271v-232h-184zM308 140v229c-62 -4 -93 -51 -93 -114s31 -112 93 -115zM492 140c61 4 92 50 92 113c0 64 -31 112 -92 116v-229z" glyph-name="afii10086" horiz-adv-x="800" unicode="ф"/>
<glyph d="M26 0v69l155 189l-152 180v70h184l89 -121l87 121h167v-69l-153 -183l156 -186v-70h-184l-92 126l-90 -126h-167z" glyph-name="afii10087" horiz-adv-x="585" unicode="х"/>
<glyph d="M458 -140v140h-402v508h185v-360h127v360h185v-360h72v-288h-167z" glyph-name="afii10088" horiz-adv-x="651" unicode="ц"/>
<glyph d="M622 -140h-166v140h-80l-7 67c-21 -40 -69 -85 -142 -85c-131 0 -176 97 -176 203v323h185v-281c0 -45 15 -77 58 -77c54 0 72 42 72 81v277h185v-360h71v-288z" glyph-name="afii10088.bgr" horiz-adv-x="648"/>
<glyph d="M343 0v156h-65c-172 0 -246 68 -246 213v139h184v-139c0 -48 22 -65 64 -65h63v204h184v-508h-184z" glyph-name="afii10089" horiz-adv-x="583" unicode="ч"/>
<glyph d="M343 0v156h-65c-172 0 -246 68 -246 213v139h184v-139c0 -48 22 -65 64 -65h63v204h184v-508h-184z" glyph-name="afii10089.bgr" horiz-adv-x="583"/>
<glyph d="M56 0v508h185v-360h92v360h185v-360h92v360h185v-508h-739z" glyph-name="afii10090" horiz-adv-x="851" unicode="ш"/>
<glyph d="M229 -18c-128 0 -178 95 -178 209v317h185v-290c0 -40 14 -68 58 -68c41 0 57 37 57 70v288h177v-294c0 -39 16 -64 56 -64c43 0 59 38 59 73v285h185v-508h-175l-7 64c-21 -41 -63 -82 -133 -82c-73 0 -120 41 -138 90c-24 -44 -70 -90 -146 -90z" glyph-name="afii10090.bgr" horiz-adv-x="884"/>
<glyph d="M56 0v508h185v-360h92v360h185v-360h92v360h185v-508h-739z" glyph-name="afii10090.locl" horiz-adv-x="851"/>
<glyph d="M700 -140v140h-644v508h185v-360h92v360h185v-360h92v360h185v-360h71v-288h-166z" glyph-name="afii10091" horiz-adv-x="892" unicode="щ"/>
<glyph d="M899 -140h-166v140h-80l-7 64c-21 -41 -63 -82 -133 -82c-73 0 -120 41 -138 90c-24 -44 -70 -90 -146 -90c-128 0 -178 95 -178 209v317h185v-290c0 -40 14 -68 58 -68c41 0 57 37 57 70v288h177v-294c0 -39 16 -64 56 -64c43 0 59 38 59 73v285h185v-360h71v-288z" glyph-name="afii10091.bgr" horiz-adv-x="925"/>
<glyph d="M388 0h-244v361h-124v147h308v-139h62c154 0 226 -77 226 -181c0 -106 -71 -188 -228 -188zM328 135h45c35 0 56 17 56 51c0 31 -20 48 -55 48h-46v-99z" glyph-name="afii10092" horiz-adv-x="636" unicode="ъ"/>
<glyph d="M378 -18c-162 0 -239 87 -239 196v182h-120v148h305v-138h46c163 0 249 -68 249 -190c0 -113 -74 -198 -241 -198zM378 117c35 0 55 20 55 60c0 37 -24 58 -64 58h-45v-55c0 -46 22 -63 54 -63z" glyph-name="afii10092.bgr" horiz-adv-x="640"/>
<glyph d="M56 0v508h185v-139h62c153 0 225 -77 225 -181c0 -106 -71 -188 -227 -188h-245zM557 0v508h184v-508h-184zM241 135h44c35 0 57 17 57 51c0 31 -21 48 -56 48h-45v-99z" glyph-name="afii10093" horiz-adv-x="797" unicode="ы"/>
<glyph d="M56 0v508h185v-139h62c153 0 225 -77 225 -181c0 -106 -71 -188 -227 -188h-245zM241 129h44c38 0 62 18 62 57c0 34 -22 53 -61 53h-45v-110z" glyph-name="afii10094" horiz-adv-x="549" unicode="ь"/>
<glyph d="M290 -18c-161 0 -239 87 -239 196v330h185v-138h47c163 0 249 -68 249 -190c0 -113 -74 -198 -242 -198zM290 117c36 0 56 20 56 60c0 37 -24 58 -64 58h-46v-55c0 -46 22 -63 54 -63z" glyph-name="afii10094.bgr" horiz-adv-x="553"/>
<glyph d="M253 -18c-175 0 -219 126 -219 126v69h146s12 -47 73 -47c42 0 73 24 76 75h-134v99h133c-2 50 -34 72 -75 72c-60 0 -72 -44 -72 -44h-146v69s41 126 218 126c171 0 270 -125 270 -276c0 -147 -89 -269 -270 -269z" glyph-name="afii10095" horiz-adv-x="554" unicode="э"/>
<glyph d="M544 -18c-140 0 -231 85 -258 200h-45v-182h-185v508h185v-178h45c27 114 119 197 258 197c172 0 274 -121 274 -272c0 -150 -102 -273 -274 -273zM544 143c62 0 90 51 90 112s-28 110 -90 110s-90 -49 -90 -110s28 -112 90 -112z" glyph-name="afii10096" horiz-adv-x="849" unicode="ю"/>
<glyph d="M544 -18c-137 0 -226 85 -253 200h-50v-182h-185v750h185v-420h50c26 114 116 197 253 197c169 0 269 -121 269 -272c0 -150 -100 -273 -269 -273zM544 143c58 0 84 51 84 112s-26 110 -84 110c-59 0 -85 -49 -85 -110s26 -112 85 -112z" glyph-name="afii10096.bgr" horiz-adv-x="844"/>
<glyph d="M332 159h-33l-106 -159h-154v69l93 119c-64 28 -95 78 -95 142c0 97 70 178 226 178h253v-508h-184v159zM278 276h54v107h-53c-38 0 -61 -18 -61 -55c0 -34 22 -52 60 -52z" glyph-name="afii10097" horiz-adv-x="572" unicode="я"/>
<glyph d="M263 640h166v-280h-188v-360h-185v508h207v132z" glyph-name="afii10098" horiz-adv-x="449" unicode="ґ"/>
<glyph d="M388 527c132 0 176 -98 176 -203v-342c0 -178 -104 -242 -277 -242v153c62 0 92 21 92 90v298c0 45 -16 77 -62 77c-57 0 -76 -41 -76 -81v-277h-185v563h-64v123h64v64h185v-64h148v-123h-148v-116c22 38 74 80 147 80z" glyph-name="afii10099" horiz-adv-x="615" unicode="ђ"/>
<glyph d="M56 0v508h373v-148h-188v-360h-185zM169 587v60l66 96h179v-60l-100 -96h-145z" glyph-name="afii10100" horiz-adv-x="449" unicode="ѓ"/>
<glyph d="M520 108c0 0 -40 -126 -219 -126c-180 0 -269 122 -269 269c0 151 100 276 269 276c181 0 218 -126 218 -126v-69h-145s-11 43 -70 43c-43 0 -72 -26 -77 -66h131v-104h-132c5 -47 36 -72 77 -72c63 0 72 44 72 44h145v-69z" glyph-name="afii10101" horiz-adv-x="554" unicode="є"/>
<glyph d="M267 -18c-125 0 -212 52 -232 108v69h145c6 -24 41 -50 91 -50c49 0 67 16 67 38c0 23 -17 36 -58 40l-69 6c-110 10 -170 61 -170 158c0 109 88 176 223 176c123 0 193 -46 215 -107v-69h-145c-4 17 -28 49 -74 49c-39 0 -58 -16 -58 -39c0 -21 14 -34 51 -38l72 -8 c113 -12 175 -55 175 -154c0 -107 -91 -179 -233 -179z" glyph-name="afii10102" horiz-adv-x="532" unicode="ѕ"/>
<glyph d="M56 0v508h184v-508h-184zM54 593v161h186v-161h-186z" glyph-name="afii10103" horiz-adv-x="296" unicode="і"/>
<glyph d="M-7 593v161h148v-161h-148zM169 593v161h148v-161h-148zM56 0v508h184v-508h-184z" glyph-name="afii10104" horiz-adv-x="296" unicode="ї"/>
<glyph d="M21 -260c-96 0 -154 43 -178 114v78h146c0 -17 7 -39 31 -39c27 0 36 17 36 60v555h184v-556c0 -128 -81 -212 -219 -212zM55 593v161h186v-161h-186z" glyph-name="afii10105" horiz-adv-x="296" unicode="ј"/>
<glyph d="M261 244c-2 -139 -35 -244 -184 -244h-53v157h9c51 1 67 40 68 111l5 240h429v-139h62c153 0 225 -77 225 -181c0 -106 -71 -188 -227 -188h-245v361h-88zM535 130h44c38 0 62 18 62 56c0 34 -22 52 -61 52h-45v-108z" glyph-name="afii10106" horiz-adv-x="843" unicode="љ"/>
<glyph d="M241 196v-196h-185v508h185v-176h134v176h185v-176h70c148 0 217 -69 217 -162c0 -96 -68 -170 -218 -170h-254v196h-134zM560 122h49c32 0 53 18 53 45c0 25 -20 43 -52 43h-50v-88z" glyph-name="afii10107" horiz-adv-x="865" unicode="њ"/>
<glyph d="M241 277v-277h-185v563h-64v123h64v64h185v-64h148v-123h-148v-116c22 38 74 80 147 80c132 0 176 -98 176 -203v-324h-185v281c0 45 -16 77 -62 77c-57 0 -76 -41 -76 -81z" glyph-name="afii10108" horiz-adv-x="615" unicode="ћ"/>
<glyph d="M56 0v508h185v-191l136 191h171v-69l-130 -175l149 -194v-70h-189l-137 201v-201h-185zM224 587v60l66 96h179v-60l-100 -96h-145z" glyph-name="afii10109" horiz-adv-x="587" unicode="ќ"/>
<glyph d="M250 -250h-167v70l110 204l-176 414v70h180l98 -276l108 276h166v-69zM300 588c-98 0 -156 49 -169 90v68h130c-1 -29 7 -59 39 -59c30 0 39 30 39 59h130v-68c-14 -41 -70 -90 -169 -90z" glyph-name="afii10110" horiz-adv-x="578" unicode="ў"/>
<glyph d="M303 -150v150h-231v750h203v-575h240v575h203v-750h-231v-150h-184z" glyph-name="afii10145" horiz-adv-x="790" unicode="Џ"/>
<glyph d="M221 -140v140h-165v508h185v-360h127v360h185v-508h-166v-140h-166z" glyph-name="afii10193" horiz-adv-x="609" unicode="џ"/>
<glyph d="M1011 325c-144 0 -231 98 -231 218c0 122 88 218 231 218s230 -96 230 -218c0 -120 -87 -218 -230 -218zM74 0v750h193l279 -412v412h193v-750h-193l-279 404v-404h-193zM1011 467c48 0 69 35 69 76c0 42 -22 76 -69 76s-69 -34 -69 -76c0 -41 22 -76 69 -76zM802 126 v149h418v-149h-418z" glyph-name="afii61352" horiz-adv-x="1277" unicode="№"/>
<glyph d="M194 -18c-111 0 -165 72 -165 159c0 102 77 161 227 161c45 0 80 -8 80 -8v17c0 42 -22 63 -65 63c-54 0 -69 -35 -69 -35h-146v69s40 119 217 119c168 0 248 -76 248 -222v-305h-173l-8 58c-25 -43 -69 -76 -146 -76zM264 121c54 0 72 36 72 65v20s-26 4 -63 4 c-45 0 -62 -19 -62 -46c0 -31 22 -43 53 -43zM231 594l-100 96v60h179l66 -96v-60h-145z" glyph-name="agrave" horiz-adv-x="571" unicode="à"/>
<glyph d="M194 -18c-111 0 -165 72 -165 159c0 102 77 161 227 161c45 0 80 -8 80 -8v17c0 42 -22 63 -65 63c-54 0 -69 -35 -69 -35h-146v69s40 119 217 119c168 0 248 -76 248 -222v-305h-173l-8 58c-25 -43 -69 -76 -146 -76zM264 121c54 0 72 36 72 65v20s-26 4 -63 4 c-45 0 -62 -19 -62 -46c0 -31 22 -43 53 -43zM136 604v132h309v-132h-309z" glyph-name="amacron" horiz-adv-x="571" unicode="ā"/>
<glyph d="M563 0l-38 38c-63 -36 -136 -57 -217 -57c-179 0 -275 95 -275 222c0 125 97 177 131 191c-37 48 -58 101 -58 166c0 125 98 208 244 208c163 0 235 -96 235 -200c0 -87 -59 -163 -132 -207l73 -70c14 28 24 59 28 90h197c-12 -81 -42 -156 -88 -219l98 -92v-70h-198z M293 550c0 -28 16 -55 47 -85c37 21 59 52 59 87c0 33 -21 58 -50 58c-35 0 -56 -23 -56 -60zM320 148c27 0 60 7 81 18l-130 128c-11 -8 -36 -33 -36 -68c0 -49 30 -78 85 -78z" glyph-name="ampersand" horiz-adv-x="783" unicode="&amp;"/>
<glyph d="M292 -99c0 54 39 92 106 99h-50l-8 58c-25 -43 -69 -76 -146 -76c-111 0 -165 72 -165 159c0 102 77 161 227 161c45 0 80 -8 80 -8v17c0 42 -22 63 -65 63c-54 0 -69 -35 -69 -35h-146v69s40 119 217 119c168 0 248 -76 248 -222v-305c-41 -8 -66 -23 -66 -56 c0 -45 44 -54 84 -54v-96h-87c-87 7 -160 29 -160 107zM264 121c54 0 72 36 72 65v20s-26 4 -63 4c-45 0 -62 -19 -62 -46c0 -31 22 -43 53 -43z" glyph-name="aogonek" horiz-adv-x="571" unicode="ą"/>
<glyph d="M394 314c-86 0 -103 54 -164 54c-27 0 -37 -23 -41 -48h-135c-9 118 44 202 136 202c90 0 103 -52 162 -52c21 0 35 15 41 47h134c9 -120 -35 -203 -133 -203zM394 84c-86 0 -103 54 -164 54c-27 0 -37 -23 -41 -48h-135c-9 118 44 202 136 202c90 0 103 -52 162 -52 c21 0 35 15 41 47h134c9 -120 -35 -203 -133 -203z" glyph-name="approxequal" horiz-adv-x="578" unicode="≈"/>
<glyph d="M391 267c-86 0 -103 54 -164 54c-27 0 -37 -23 -41 -48h-135c-9 118 44 202 136 202c90 0 103 -52 162 -52c21 0 35 15 41 47h134c9 -120 -35 -203 -133 -203zM391 37c-86 0 -103 54 -164 54c-27 0 -37 -23 -41 -48h-135c-9 118 44 202 136 202c90 0 103 -52 162 -52 c21 0 35 15 41 47h134c9 -120 -35 -203 -133 -203z" glyph-name="approxequal.old" horiz-adv-x="576"/>
<glyph d="M403 267c-86 0 -103 54 -164 54c-27 0 -37 -23 -41 -48h-135c-9 118 44 202 136 202c90 0 103 -52 162 -52c21 0 35 15 41 47h134c9 -120 -35 -203 -133 -203zM403 37c-86 0 -103 54 -164 54c-27 0 -37 -23 -41 -48h-135c-9 118 44 202 136 202c90 0 103 -52 162 -52 c21 0 35 15 41 47h134c9 -120 -35 -203 -133 -203z" glyph-name="approxequal.oldtab" horiz-adv-x="600"/>
<glyph d="M430 314c-86 0 -103 54 -164 54c-27 0 -37 -23 -41 -48h-135c-9 118 44 202 136 202c90 0 103 -52 162 -52c21 0 35 15 41 47h134c9 -120 -35 -203 -133 -203zM430 84c-86 0 -103 54 -164 54c-27 0 -37 -23 -41 -48h-135c-9 118 44 202 136 202c90 0 103 -52 162 -52 c21 0 35 15 41 47h134c9 -120 -35 -203 -133 -203z" glyph-name="approxequal.tab" horiz-adv-x="650"/>
<glyph d="M194 -18c-111 0 -165 72 -165 159c0 102 77 161 227 161c45 0 80 -8 80 -8v17c0 42 -22 63 -65 63c-54 0 -69 -35 -69 -35h-146v69s40 119 217 119c168 0 248 -76 248 -222v-305h-173l-8 58c-25 -43 -69 -76 -146 -76zM264 121c54 0 72 36 72 65v20s-26 4 -63 4 c-45 0 -62 -19 -62 -46c0 -31 22 -43 53 -43zM288 569c-114 0 -157 44 -157 98c0 53 43 98 157 98c115 0 157 -45 157 -98c0 -54 -42 -98 -157 -98zM288 637c20 0 39 11 39 30s-19 30 -39 30s-38 -11 -38 -30s18 -30 38 -30z" glyph-name="aring" horiz-adv-x="571" unicode="å"/>
<glyph d="M194 -18c-111 0 -165 72 -165 159c0 102 77 161 227 161c45 0 80 -8 80 -8v17c0 42 -22 63 -65 63c-54 0 -69 -35 -69 -35h-146v69s40 119 217 119c168 0 248 -76 248 -222v-305h-173l-8 58c-25 -43 -69 -76 -146 -76zM264 121c54 0 72 36 72 65v20s-26 4 -63 4 c-45 0 -62 -19 -62 -46c0 -31 22 -43 53 -43zM288 569c-114 0 -157 44 -157 98c0 53 43 98 157 98c115 0 157 -45 157 -98c0 -54 -42 -98 -157 -98zM288 637c20 0 39 11 39 30s-19 30 -39 30s-38 -11 -38 -30s18 -30 38 -30zM212 802v60l58 80h200v-60l-92 -80h-166z" glyph-name="aringacute" horiz-adv-x="571" unicode="ǻ"/>
<glyph d="M357 414l-86 138l-85 -138h-150v65l172 271h127l172 -271v-65h-150z" glyph-name="asciicircum" horiz-adv-x="543" unicode="^"/>
<glyph d="M390 211c-83 0 -100 54 -159 54c-26 0 -38 -23 -42 -48h-134c-9 118 44 202 136 202c87 0 99 -52 157 -52c21 0 35 15 41 47h134c9 -120 -35 -203 -133 -203z" glyph-name="asciitilde" horiz-adv-x="573" unicode="~"/>
<glyph d="M199 299l-127 95l97 100l-139 25l47 150l126 -57l-19 138h160l-20 -141l133 60l47 -150l-139 -25l96 -100l-126 -95l-68 125z" glyph-name="asterisk" horiz-adv-x="534" unicode="*"/>
<glyph d="M517 -258c-283 0 -483 186 -483 496c0 286 198 520 533 520c306 0 507 -183 507 -424c0 -213 -144 -334 -355 -334h-109l-9 74c-28 -39 -68 -83 -146 -83c-128 0 -184 107 -167 255c14 130 106 230 244 229c70 0 105 -30 123 -49l13 34h145l-34 -302c81 5 113 64 113 160 c0 140 -95 277 -325 277c-221 0 -351 -148 -351 -358c0 -219 129 -335 297 -335c111 0 173 21 235 44v-157c-61 -29 -120 -47 -231 -47zM524 126c49 0 77 46 83 109l11 96c-12 7 -30 17 -59 17c-55 0 -82 -57 -89 -111c-9 -69 5 -111 54 -111z" glyph-name="at" horiz-adv-x="1111" unicode="@"/>
<glyph d="M524 -146c-283 0 -483 186 -483 496c0 286 198 520 533 520c306 0 507 -183 507 -424c0 -213 -144 -334 -355 -334h-109l-9 74c-28 -39 -68 -83 -146 -83c-128 0 -184 107 -167 255c14 130 106 230 244 229c70 0 105 -30 123 -49l13 34h145l-34 -302c81 5 113 64 113 160 c0 140 -95 277 -325 277c-221 0 -351 -148 -351 -358c0 -219 129 -335 297 -335c111 0 173 21 235 44v-157c-61 -29 -120 -47 -231 -47zM531 238c49 0 77 46 83 109l11 96c-12 7 -30 17 -59 17c-55 0 -82 -57 -89 -111c-9 -69 5 -111 54 -111z" glyph-name="at.uc" horiz-adv-x="1108"/>
<glyph d="M194 -18c-111 0 -165 72 -165 159c0 102 77 161 227 161c45 0 80 -8 80 -8v17c0 42 -22 63 -65 63c-54 0 -69 -35 -69 -35h-146v69s40 119 217 119c168 0 248 -76 248 -222v-305h-173l-8 58c-25 -43 -69 -76 -146 -76zM264 121c54 0 72 36 72 65v20s-26 4 -63 4 c-45 0 -62 -19 -62 -46c0 -31 22 -43 53 -43zM369 593c-70 0 -81 38 -131 38c-21 0 -31 -15 -35 -33h-112c-9 88 33 156 112 156c72 0 80 -37 128 -37c17 0 30 9 34 32h112c9 -89 -24 -156 -108 -156z" glyph-name="atilde" horiz-adv-x="571" unicode="ã"/>
<glyph d="M397 -18c-73 0 -129 34 -159 86l-7 -68h-175v750h185v-303c33 50 88 80 159 80c136 0 220 -119 220 -266c0 -154 -80 -279 -223 -279zM337 151c60 0 98 44 98 102c0 59 -38 104 -99 104c-56 0 -95 -44 -95 -103c0 -60 39 -103 96 -103z" glyph-name="b" horiz-adv-x="653" unicode="b"/>
<glyph d="M414 -250l-394 1069h195l394 -1069h-195z" glyph-name="backslash" horiz-adv-x="629" unicode="\"/>
<glyph d="M414 -188l-394 1062h195l394 -1062h-195z" glyph-name="backslash.uc" horiz-adv-x="631"/>
<glyph d="M161 -250l-96 86v897l97 86l98 -86v-897z" glyph-name="bar" horiz-adv-x="325" unicode="|"/>
<glyph d="M164 -188l-96 85v892l97 85l98 -85v-892z" glyph-name="bar.uc" horiz-adv-x="331"/>
<glyph d="M386 -232c-182 0 -277 83 -277 246v47c0 109 -33 123 -101 123v150c68 0 101 14 101 123v47c0 163 95 246 277 246v-149c-62 0 -91 -27 -91 -97v-47c0 -134 -57 -179 -103 -198c46 -19 103 -64 103 -198v-47c0 -70 29 -97 91 -97v-149z" glyph-name="braceleft" horiz-adv-x="415" unicode="{"/>
<glyph d="M386 -232c-182 0 -277 83 -277 246v47c0 109 -33 123 -101 123v150c68 0 101 14 101 123v47c0 163 95 246 277 246v-149c-62 0 -91 -27 -91 -97v-47c0 -134 -57 -179 -103 -198c46 -19 103 -64 103 -198v-47c0 -70 29 -97 91 -97v-149z" glyph-name="braceleft.old" horiz-adv-x="415"/>
<glyph d="M478 -232c-182 0 -277 83 -277 246v47c0 109 -33 123 -101 123v150c68 0 101 14 101 123v47c0 163 95 246 277 246v-149c-62 0 -91 -27 -91 -97v-47c0 -134 -57 -179 -103 -198c46 -19 103 -64 103 -198v-47c0 -70 29 -97 91 -97v-149z" glyph-name="braceleft.oldtab" horiz-adv-x="600"/>
<glyph d="M501 -218c-180 0 -273 82 -273 243v45c0 109 -34 123 -102 123v149c68 0 102 14 102 123v45c0 161 93 243 273 243v-149c-60 0 -87 -26 -87 -94v-45c0 -134 -58 -179 -103 -198c45 -18 103 -63 103 -197v-45c0 -68 27 -94 87 -94v-149z" glyph-name="braceleft.tab" horiz-adv-x="650"/>
<glyph d="M393 -150c-182 0 -277 82 -277 245v44c0 110 -34 124 -102 124v149c68 0 102 14 102 124v43c0 163 95 246 277 246v-149c-62 0 -91 -27 -91 -97v-43c0 -134 -57 -180 -103 -199c46 -18 103 -64 103 -198v-44c0 -69 29 -96 91 -96v-149z" glyph-name="braceleft.uc" horiz-adv-x="429"/>
<glyph d="M29 -232v149c62 0 91 27 91 97v47c0 134 57 179 103 198c-46 19 -103 64 -103 198v47c0 70 -29 97 -91 97v149c182 0 277 -83 277 -246v-47c0 -109 33 -123 101 -123v-150c-68 0 -101 -14 -101 -123v-47c0 -163 -95 -246 -277 -246z" glyph-name="braceright" horiz-adv-x="415" unicode="}"/>
<glyph d="M29 -232v149c62 0 91 27 91 97v47c0 134 57 179 103 198c-46 19 -103 64 -103 198v47c0 70 -29 97 -91 97v149c182 0 277 -83 277 -246v-47c0 -109 33 -123 101 -123v-150c-68 0 -101 -14 -101 -123v-47c0 -163 -95 -246 -277 -246z" glyph-name="braceright.old" horiz-adv-x="415"/>
<glyph d="M122 -232v149c62 0 91 27 91 97v47c0 134 57 179 103 198c-46 19 -103 64 -103 198v47c0 70 -29 97 -91 97v149c182 0 277 -83 277 -246v-47c0 -109 33 -123 101 -123v-150c-68 0 -101 -14 -101 -123v-47c0 -163 -95 -246 -277 -246z" glyph-name="braceright.oldtab" horiz-adv-x="600"/>
<glyph d="M149 -218v149c60 0 87 26 87 94v45c0 134 58 179 103 197c-45 19 -103 64 -103 198v45c0 68 -27 94 -87 94v149c180 0 273 -82 273 -243v-45c0 -109 34 -123 102 -123v-149c-68 0 -102 -14 -102 -123v-45c0 -161 -93 -243 -273 -243z" glyph-name="braceright.tab" horiz-adv-x="650"/>
<glyph d="M36 -150v149c62 0 91 27 91 96v44c0 134 57 180 103 198c-46 19 -103 65 -103 199v43c0 70 -29 97 -91 97v149c182 0 277 -83 277 -246v-43c0 -110 34 -124 102 -124v-149c-68 0 -102 -14 -102 -124v-44c0 -163 -95 -245 -277 -245z" glyph-name="braceright.uc" horiz-adv-x="429"/>
<glyph d="M70 -230v980h294v-149h-108v-682h108v-149h-294z" glyph-name="bracketleft" horiz-adv-x="392" unicode="["/>
<glyph d="M70 -230v980h294v-149h-108v-682h108v-149h-294z" glyph-name="bracketleft.old" horiz-adv-x="392"/>
<glyph d="M174 -230v980h294v-149h-108v-682h108v-149h-294z" glyph-name="bracketleft.oldtab" horiz-adv-x="600"/>
<glyph d="M199 -216v971h294v-150h-108v-672h108v-149h-294z" glyph-name="bracketleft.tab" horiz-adv-x="650"/>
<glyph d="M74 -148v973h294v-149h-108v-675h108v-149h-294z" glyph-name="bracketleft.uc" horiz-adv-x="403"/>
<glyph d="M28 -230v149h108v682h-108v149h294v-980h-294z" glyph-name="bracketright" horiz-adv-x="392" unicode="]"/>
<glyph d="M28 -230v149h108v682h-108v149h294v-980h-294z" glyph-name="bracketright.old" horiz-adv-x="392"/>
<glyph d="M132 -230v149h108v682h-108v149h294v-980h-294z" glyph-name="bracketright.oldtab" horiz-adv-x="600"/>
<glyph d="M157 -216v149h108v672h-108v150h294v-971h-294z" glyph-name="bracketright.tab" horiz-adv-x="650"/>
<glyph d="M35 -148v149h108v675h-108v149h294v-973h-294z" glyph-name="bracketright.uc" horiz-adv-x="403"/>
<glyph d="M225 589c-129 0 -167 78 -167 78v78h87s24 -35 80 -35c57 0 76 35 76 35h87v-78s-37 -78 -163 -78z" glyph-name="breve" horiz-adv-x="412" unicode="˘"/>
<glyph d="M225 793c-138 0 -167 70 -167 70v78h87s15 -35 80 -35s76 35 76 35h87v-78s-28 -70 -163 -70z" glyph-name="breve.uc" horiz-adv-x="412"/>
<glyph d="M65 397v336l97 86l98 -86v-336h-195zM161 -250l-96 86v348h195v-348z" glyph-name="brokenbar" horiz-adv-x="325" unicode="¦"/>
<glyph d="M162 224c-58 0 -95 43 -95 96s37 96 95 96c59 0 95 -43 95 -96s-36 -96 -95 -96z" glyph-name="bullet" horiz-adv-x="325" unicode="•"/>
<glyph d="M301 -18c-180 0 -269 122 -269 269c0 151 100 276 269 276c181 0 218 -134 218 -134v-69h-145s-11 42 -73 42c-57 0 -84 -53 -84 -115c0 -61 27 -108 84 -108c65 0 74 43 74 43h145v-69s-40 -135 -219 -135z" glyph-name="c" horiz-adv-x="552" unicode="c"/>
<glyph d="M301 -18c-180 0 -269 122 -269 269c0 151 100 276 269 276c181 0 218 -134 218 -134v-69h-145s-11 42 -73 42c-57 0 -84 -53 -84 -115c0 -61 27 -108 84 -108c65 0 74 43 74 43h145v-69s-40 -135 -219 -135zM217 594v60l66 96h179v-60l-100 -96h-145z" glyph-name="cacute" horiz-adv-x="552" unicode="ć"/>
<glyph d="M301 -18c-180 0 -269 122 -269 269c0 151 100 276 269 276c181 0 218 -134 218 -134v-69h-145s-11 42 -73 42c-57 0 -84 -53 -84 -115c0 -61 27 -108 84 -108c65 0 74 43 74 43h145v-69s-40 -135 -219 -135zM226 594v60l28 126h179v-60l-62 -126h-145z" glyph-name="cacute.pl" horiz-adv-x="552"/>
<glyph d="M311 594h-190l-93 96v60h137l51 -77l50 77h136v-60z" glyph-name="caron" horiz-adv-x="424" unicode="ˇ"/>
<glyph d="M192 552l-9 198h177v-97l-49 -101h-119z" glyph-name="caron.alt" horiz-adv-x="470"/>
<glyph d="M328 803h-207l-93 80v60h154l42 -52l42 52h153v-60z" glyph-name="caron.uc" horiz-adv-x="424"/>
<glyph d="M301 -18c-180 0 -269 122 -269 269c0 151 100 276 269 276c181 0 218 -134 218 -134v-69h-145s-11 42 -73 42c-57 0 -84 -53 -84 -115c0 -61 27 -108 84 -108c65 0 74 43 74 43h145v-69s-40 -135 -219 -135zM392 594h-190l-93 96v60h137l51 -77l50 77h136v-60z" glyph-name="ccaron" horiz-adv-x="552" unicode="č"/>
<glyph d="M472 -124c0 -77 -62 -98 -155 -107h-95v87c46 0 75 8 75 37c0 27 -34 34 -71 34v63c-130 29 -194 136 -194 261c0 151 100 276 269 276c181 0 218 -134 218 -134v-69h-145s-11 42 -73 42c-57 0 -84 -53 -84 -115c0 -61 27 -108 84 -108c65 0 74 43 74 43h145v-69 s-29 -97 -146 -126v-31c53 -7 98 -32 98 -84z" glyph-name="ccedilla" horiz-adv-x="552" unicode="ç"/>
<glyph d="M301 -18c-180 0 -269 122 -269 269c0 151 100 276 269 276c181 0 218 -134 218 -134v-69h-145s-11 42 -73 42c-57 0 -84 -53 -84 -115c0 -61 27 -108 84 -108c65 0 74 43 74 43h145v-69s-40 -135 -219 -135zM349 594l-51 77l-50 -77h-137v60l92 96h190l92 -96v-60h-136z " glyph-name="ccircumflex" horiz-adv-x="552" unicode="ĉ"/>
<glyph d="M301 -18c-180 0 -269 122 -269 269c0 151 100 276 269 276c181 0 218 -134 218 -134v-69h-145s-11 42 -73 42c-57 0 -84 -53 -84 -115c0 -61 27 -108 84 -108c65 0 74 43 74 43h145v-69s-40 -135 -219 -135zM197 593v161h186v-161h-186z" glyph-name="cdotaccent" horiz-adv-x="552" unicode="ċ"/>
<glyph d="M179 -231v87c46 0 75 8 75 37c0 27 -34 34 -71 34v73h148v-40c53 -7 98 -32 98 -84c0 -77 -62 -98 -155 -107h-95z" glyph-name="cedilla" horiz-adv-x="500" unicode="¸"/>
<glyph d="M552 117c0 0 -39 -123 -210 -134l-7 -126h-99l7 132c-142 27 -213 135 -213 262c0 138 88 254 241 273l6 125h99l-7 -126c150 -21 182 -130 182 -130v-69h-137s-6 32 -53 44l-12 -231c59 11 66 49 66 49h137v-69zM206 251c0 -40 14 -78 45 -99l11 209 c-39 -21 -56 -65 -56 -110z" glyph-name="cent" horiz-adv-x="587" unicode="¢"/>
<glyph d="M552 117c0 0 -39 -123 -210 -134l-7 -126h-99l7 132c-142 27 -213 135 -213 262c0 138 88 254 241 273l6 125h99l-7 -126c150 -21 182 -130 182 -130v-69h-137s-6 32 -53 44l-12 -231c59 11 66 49 66 49h137v-69zM206 251c0 -40 14 -78 45 -99l11 209 c-39 -21 -56 -65 -56 -110z" glyph-name="cent.old" horiz-adv-x="587"/>
<glyph d="M558 117c0 0 -39 -123 -210 -134l-7 -126h-99l7 132c-142 27 -213 135 -213 262c0 138 88 254 241 273l6 125h99l-7 -126c150 -21 182 -130 182 -130v-69h-137s-6 32 -53 44l-12 -231c59 11 66 49 66 49h137v-69zM212 251c0 -40 14 -78 45 -99l11 209 c-39 -21 -56 -65 -56 -110z" glyph-name="cent.oldtab" horiz-adv-x="600"/>
<glyph d="M583 117c0 0 -39 -123 -210 -134l-7 -126h-99l7 132c-142 27 -213 135 -213 262c0 138 88 254 241 273l6 125h99l-7 -126c150 -21 182 -130 182 -130v-69h-137s-6 32 -53 44l-12 -231c59 11 66 49 66 49h137v-69zM237 251c0 -40 14 -78 45 -99l11 209 c-39 -21 -56 -65 -56 -110z" glyph-name="cent.tab" horiz-adv-x="650"/>
<glyph d="M747 138l-93 30v-167h-129v208l-92 29v119l92 -29v110h-192v119h192v193h129v-193h193v-119h-193v-151l93 -30v-119z" glyph-name="church"/>
<glyph d="M525 1v437h-192v119h192v193h129v-193h193v-119h-193v-437h-129z" glyph-name="church2"/>
<glyph d="M778 132h-78v-79h-229v79h-94v147h-50l-59 46v56h109v20c-3 2 -7 5 -10 8c-27 26 -45 65 -45 104c0 40 18 79 45 105c26 24 60 38 98 38c37 0 72 -14 98 -38l8 -8l8 8c25 24 60 38 97 38c39 0 73 -14 98 -38c28 -26 45 -65 45 -105c0 -37 -15 -74 -41 -100v-35l82 46v28 h40v-249h-40v24l-82 51v-146zM465 452c17 0 31 6 42 17c13 11 20 28 20 45c0 18 -7 34 -20 46c-11 11 -25 16 -42 16s-32 -5 -44 -16c-11 -12 -18 -28 -18 -46c0 -17 7 -34 18 -45c12 -11 27 -17 44 -17zM675 452c17 0 32 6 43 17c12 11 19 28 19 45c0 18 -7 34 -19 46 c-11 11 -26 16 -43 16c-16 0 -31 -5 -43 -16c-12 -12 -19 -28 -19 -46c0 -17 7 -34 19 -45s27 -17 43 -17z" glyph-name="cinema"/>
<glyph d="M266 594l-51 77l-50 -77h-137v60l92 96h190l92 -96v-60h-136z" glyph-name="circumflex" horiz-adv-x="500" unicode="ˆ"/>
<glyph d="M266 803l-42 53l-42 -53h-154v60l92 80h207l92 -80v-60h-153z" glyph-name="circumflex.uc" horiz-adv-x="424"/>
<glyph d="M54 321v187h188v-187h-188zM54 0v188h188v-188h-188z" glyph-name="colon" horiz-adv-x="296" unicode=":"/>
<glyph d="M54 321v187h188v-187h-188zM54 0v188h188v-188h-188z" glyph-name="colon.old" horiz-adv-x="296"/>
<glyph d="M206 321v187h188v-187h-188zM206 0v188h188v-188h-188z" glyph-name="colon.oldtab" horiz-adv-x="600"/>
<glyph d="M231 321v187h188v-187h-188zM231 0v188h188v-188h-188z" glyph-name="colon.tab" horiz-adv-x="650"/>
<glyph d="M55 -140v328h188v-185l-67 -143h-121z" glyph-name="comma" horiz-adv-x="298" unicode=","/>
<glyph d="M54 -140v328h188v-185l-67 -143h-121z" glyph-name="comma.old" horiz-adv-x="296"/>
<glyph d="M206 -140v328h188v-185l-67 -143h-121z" glyph-name="comma.oldtab" horiz-adv-x="600"/>
<glyph d="M231 -140v328h188v-185l-67 -143h-121z" glyph-name="comma.tab" horiz-adv-x="650"/>
<glyph d="M76 -205l-8 153h196v-72l-65 -81h-123z" glyph-name="commaaccent" horiz-adv-x="297" unicode=""/>
<glyph d="M279 732l8 -153h-196v72l65 81h123z" glyph-name="commaaccent.alt" horiz-adv-x="470"/>
<glyph d="M503 -210c-268 0 -469 209 -469 464c0 254 201 462 469 462c269 0 469 -208 469 -462c0 -255 -200 -464 -469 -464zM503 -68c184 0 320 145 320 322c0 176 -136 320 -320 320c-182 0 -319 -144 -319 -320c0 -177 137 -322 319 -322zM508 -2c-170 0 -254 115 -254 253 c0 142 94 259 254 259c175 0 212 -121 212 -121v-67h-141s-11 41 -71 41c-56 0 -82 -52 -82 -112c0 -59 26 -105 82 -105c62 0 72 42 72 42h141v-67s-40 -123 -213 -123z" glyph-name="copyright" horiz-adv-x="1006" unicode="©"/>
<glyph d="M245 588c-98 0 -156 49 -169 90v68h130c-1 -29 7 -59 39 -59c30 0 39 30 39 59h130v-68c-14 -41 -70 -90 -169 -90z" glyph-name="cyrbreve" horiz-adv-x="456" unicode=""/>
<glyph d="M328 801c-106 0 -169 41 -186 79v66h146c-1 -22 15 -49 40 -49c23 0 40 27 40 49h146v-66c-16 -38 -80 -79 -186 -79z" glyph-name="cyrbreve.uc" horiz-adv-x="656"/>
<glyph d="M252 -18c-139 0 -219 121 -219 271c0 156 91 274 224 274c71 0 122 -30 155 -80v303h185v-750h-175l-7 68c-30 -52 -91 -86 -163 -86zM315 151c57 0 97 43 97 103c0 59 -40 103 -96 103c-61 0 -98 -45 -98 -104c0 -58 37 -102 97 -102z" glyph-name="d" horiz-adv-x="653" unicode="d"/>
<glyph d="M245 -97l-72 125l45 384l-163 -18v178l163 -17l-27 195h199l-26 -195l162 17v-178l-162 18l45 -384l-70 -125h-94z" glyph-name="dagger" horiz-adv-x="581" unicode="†"/>
<glyph d="M191 -91l27 170l-163 -17v178l163 -18l-42 108l42 108l-163 -18v178l163 -17l-27 169h199l-26 -169l162 17v-178l-162 18l43 -108l-43 -108l162 18v-178l-162 17l26 -170h-199z" glyph-name="daggerdbl" horiz-adv-x="581" unicode="‡"/>
<glyph d="M252 -18c-139 0 -219 121 -219 271c0 156 91 274 224 274c71 0 122 -30 155 -80v303h185v-750h-175l-7 68c-30 -52 -91 -86 -163 -86zM315 151c57 0 97 43 97 103c0 59 -40 103 -96 103c-61 0 -98 -45 -98 -104c0 -58 37 -102 97 -102zM647 552l-9 198h177v-97l-49 -101 h-119z" glyph-name="dcaron" horiz-adv-x="665" unicode="ď"/>
<glyph d="M415 68c-30 -52 -91 -86 -163 -86c-139 0 -219 121 -219 271c0 156 91 274 224 274c71 0 122 -30 155 -80v116h-123v123h123v64h185v-64h64v-123h-64v-563h-175zM315 151c57 0 97 43 97 103c0 59 -40 103 -96 103c-61 0 -98 -45 -98 -104c0 -58 37 -102 97 -102z" glyph-name="dcroat" horiz-adv-x="653" unicode="đ"/>
<glyph d="M221 393c-112 0 -194 85 -194 188s82 188 194 188s194 -85 194 -188s-82 -188 -194 -188zM221 528c31 0 50 24 50 53s-19 53 -50 53s-51 -24 -51 -53s20 -53 51 -53z" glyph-name="degree" horiz-adv-x="442" unicode="°"/>
<glyph d="M41 593v161h169v-161h-169zM263 593v161h170v-161h-170z" glyph-name="dieresis" horiz-adv-x="440" unicode="¨"/>
<glyph d="M58 797v152h178v-152h-178zM280 797v152h178v-152h-178z" glyph-name="dieresis.uc" horiz-adv-x="440"/>
<glyph d="M203 437v188h188v-188h-188zM33 243v149h529v-149h-529zM203 11v187h188v-187h-188z" glyph-name="divide" horiz-adv-x="595" unicode="÷"/>
<glyph d="M205 427v170h187v-170h-187zM34 227v149h529v-149h-529zM205 6v171h187v-171h-187z" glyph-name="divide.old" horiz-adv-x="597"/>
<glyph d="M207 427v170h187v-170h-187zM36 227v149h529v-149h-529zM207 6v171h187v-171h-187z" glyph-name="divide.oldtab" horiz-adv-x="600"/>
<glyph d="M230 437v188h188v-188h-188zM60 243v149h529v-149h-529zM230 11v187h188v-187h-188z" glyph-name="divide.tab" horiz-adv-x="650"/>
<glyph d="M634 231c0 -140 -102 -233 -258 -247l-5 -127h-115l5 130c-129 18 -199 85 -225 167v79h164c12 -38 31 -63 68 -76l6 149l-15 2c-140 20 -224 87 -224 217c0 145 100 230 258 242l4 109h115l-5 -114c111 -18 189 -77 204 -167v-78h-165c-6 31 -16 57 -46 72l-5 -136 c143 -22 239 -91 239 -222zM226 535c0 -24 8 -47 55 -62l5 125c-40 -8 -60 -29 -60 -63zM444 217c0 28 -13 52 -56 68l-5 -133c44 8 61 30 61 65z" glyph-name="dollar" horiz-adv-x="664" unicode="$"/>
<glyph d="M331 -125h-98l5 112c-123 18 -178 72 -202 141v67h146c8 -26 21 -50 62 -55l4 110c-138 16 -211 80 -211 191c0 118 86 189 230 204l2 96h96l-4 -100c107 -18 169 -68 182 -141v-67h-146c-2 23 -16 49 -42 56l-4 -102c137 -23 212 -87 212 -194 c0 -115 -81 -191 -228 -209zM212 452c0 -24 12 -43 44 -48l2 91c-31 -1 -46 -20 -46 -43zM388 185c0 21 -13 44 -43 51l-4 -100c32 1 47 26 47 49z" glyph-name="dollar.old" horiz-adv-x="595"/>
<glyph d="M334 -125h-98l5 112c-123 18 -178 72 -202 141v67h146c8 -26 21 -50 62 -55l4 110c-138 16 -211 80 -211 191c0 118 86 189 230 204l2 96h96l-4 -100c107 -18 169 -68 182 -141v-67h-146c-2 23 -16 49 -42 56l-4 -102c137 -23 212 -87 212 -194 c0 -115 -81 -191 -228 -209zM215 452c0 -24 12 -43 44 -48l2 91c-31 -1 -46 -20 -46 -43zM391 185c0 21 -13 44 -43 51l-4 -100c32 1 47 26 47 49z" glyph-name="dollar.oldtab" horiz-adv-x="600"/>
<glyph d="M627 231c0 -140 -102 -233 -258 -247l-5 -127h-115l5 130c-129 18 -199 85 -225 167v79h164c12 -38 31 -63 68 -76l6 149l-15 2c-140 20 -224 87 -224 217c0 145 100 230 258 242l4 109h115l-5 -114c111 -18 189 -77 204 -167v-78h-165c-6 31 -16 57 -46 72l-5 -136 c143 -22 239 -91 239 -222zM219 535c0 -24 8 -47 55 -62l5 125c-40 -8 -60 -29 -60 -63zM437 217c0 28 -13 52 -56 68l-5 -133c44 8 61 30 61 65z" glyph-name="dollar.tab" horiz-adv-x="650"/>
<glyph d="M75 593v161h186v-161h-186z" glyph-name="dotaccent" horiz-adv-x="260" unicode="˙"/>
<glyph d="M58 797v152h203v-152h-203z" glyph-name="dotaccent.uc" horiz-adv-x="260"/>
<glyph d="M56 0v508h184v-508h-184z" glyph-name="dotlessi" horiz-adv-x="296" unicode="ı"/>
<glyph d="M312 -18c-189 0 -281 120 -281 269c0 151 102 276 278 276c179 0 257 -109 257 -251c0 -37 -10 -70 -10 -70h-338c11 -48 43 -80 98 -80c75 0 87 36 87 36h153v-69s-48 -111 -244 -111zM219 308h171c0 36 -28 75 -83 75c-50 0 -77 -31 -88 -75z" glyph-name="e" horiz-adv-x="599" unicode="e"/>
<glyph d="M312 -18c-189 0 -281 120 -281 269c0 151 102 276 278 276c179 0 257 -109 257 -251c0 -37 -10 -70 -10 -70h-338c11 -48 43 -80 98 -80c75 0 87 36 87 36h153v-69s-48 -111 -244 -111zM219 308h171c0 36 -28 75 -83 75c-50 0 -77 -31 -88 -75zM232 594v60l66 96h179v-60 l-100 -96h-145z" glyph-name="eacute" horiz-adv-x="599" unicode="é"/>
<glyph d="M312 -18c-189 0 -281 120 -281 269c0 151 102 276 278 276c179 0 257 -109 257 -251c0 -37 -10 -70 -10 -70h-338c11 -48 43 -80 98 -80c75 0 87 36 87 36h153v-69s-48 -111 -244 -111zM219 308h171c0 36 -28 75 -83 75c-50 0 -77 -31 -88 -75zM312 589 c-129 0 -167 78 -167 78v78h87s24 -35 80 -35c57 0 76 35 76 35h87v-78s-37 -78 -163 -78z" glyph-name="ebreve" horiz-adv-x="599" unicode="ĕ"/>
<glyph d="M405 594h-190l-93 96v60h137l51 -77l50 77h136v-60zM312 -18c-189 0 -281 120 -281 269c0 151 102 276 278 276c179 0 257 -109 257 -251c0 -37 -10 -70 -10 -70h-338c11 -48 43 -80 98 -80c75 0 87 36 87 36h153v-69s-48 -111 -244 -111zM219 308h171 c0 36 -28 75 -83 75c-50 0 -77 -31 -88 -75z" glyph-name="ecaron" horiz-adv-x="599" unicode="ě"/>
<glyph d="M312 -18c-189 0 -281 120 -281 269c0 151 102 276 278 276c179 0 257 -109 257 -251c0 -37 -10 -70 -10 -70h-338c11 -48 43 -80 98 -80c75 0 87 36 87 36h153v-69s-48 -111 -244 -111zM219 308h171c0 36 -28 75 -83 75c-50 0 -77 -31 -88 -75zM359 594l-51 77l-50 -77 h-137v60l92 96h190l92 -96v-60h-136z" glyph-name="ecircumflex" horiz-adv-x="599" unicode="ê"/>
<glyph d="M312 -18c-189 0 -281 120 -281 269c0 151 102 276 278 276c179 0 257 -109 257 -251c0 -37 -10 -70 -10 -70h-338c11 -48 43 -80 98 -80c75 0 87 36 87 36h153v-69s-48 -111 -244 -111zM219 308h171c0 36 -28 75 -83 75c-50 0 -77 -31 -88 -75zM112 593v161h169v-161 h-169zM334 593v161h170v-161h-170z" glyph-name="edieresis" horiz-adv-x="599" unicode="ë"/>
<glyph d="M312 -18c-189 0 -281 120 -281 269c0 151 102 276 278 276c179 0 257 -109 257 -251c0 -37 -10 -70 -10 -70h-338c11 -48 43 -80 98 -80c75 0 87 36 87 36h153v-69s-48 -111 -244 -111zM219 308h171c0 36 -28 75 -83 75c-50 0 -77 -31 -88 -75zM216 593v161h186v-161 h-186z" glyph-name="edotaccent" horiz-adv-x="599" unicode="ė"/>
<glyph d="M312 -18c-189 0 -281 120 -281 269c0 151 102 276 278 276c179 0 257 -109 257 -251c0 -37 -10 -70 -10 -70h-338c11 -48 43 -80 98 -80c75 0 87 36 87 36h153v-69s-48 -111 -244 -111zM219 308h171c0 36 -28 75 -83 75c-50 0 -77 -31 -88 -75zM237 594l-100 96v60h179 l66 -96v-60h-145z" glyph-name="egrave" horiz-adv-x="599" unicode="è"/>
<glyph d="M333 -18c-187 0 -296 106 -296 236c0 68 32 146 112 184c-62 40 -85 101 -85 157c0 115 97 210 269 210c169 0 266 -95 266 -210c0 -70 -34 -125 -84 -157c82 -36 114 -116 114 -184c0 -130 -109 -236 -296 -236zM333 472c48 0 72 32 72 70c0 37 -24 69 -72 69 s-73 -32 -73 -69c0 -38 24 -70 73 -70zM333 145c59 0 90 37 90 84s-31 84 -90 84s-91 -37 -91 -84s31 -84 91 -84z" glyph-name="eight" horiz-adv-x="666" unicode="8"/>
<glyph d="M317 -18c-177 0 -279 106 -279 236c0 68 32 146 112 184c-62 40 -85 101 -85 157c0 115 90 210 252 210c159 0 250 -95 250 -210c0 -70 -35 -125 -84 -157c81 -36 113 -116 113 -184c0 -130 -102 -236 -279 -236zM317 472c48 0 73 32 73 70s-25 70 -73 70 s-73 -32 -73 -70s24 -70 73 -70zM317 144c60 0 93 38 93 85s-33 85 -93 85s-93 -38 -93 -85s33 -85 93 -85z" glyph-name="eight.old" horiz-adv-x="633"/>
<glyph d="M300 -18c-177 0 -279 106 -279 236c0 68 32 146 112 184c-62 40 -85 101 -85 157c0 115 90 210 252 210c159 0 250 -95 250 -210c0 -70 -35 -125 -84 -157c81 -36 113 -116 113 -184c0 -130 -102 -236 -279 -236zM300 472c48 0 73 32 73 70s-25 70 -73 70 s-73 -32 -73 -70s24 -70 73 -70zM300 144c60 0 93 38 93 85s-33 85 -93 85s-93 -38 -93 -85s33 -85 93 -85z" glyph-name="eight.oldtab" horiz-adv-x="600"/>
<glyph d="M325 -18c-187 0 -296 106 -296 236c0 68 32 146 112 184c-62 40 -85 101 -85 157c0 115 97 210 269 210c169 0 266 -95 266 -210c0 -70 -34 -125 -84 -157c82 -36 114 -116 114 -184c0 -130 -109 -236 -296 -236zM325 472c48 0 72 32 72 70c0 37 -24 69 -72 69 s-73 -32 -73 -69c0 -38 24 -70 73 -70zM325 145c59 0 90 37 90 84s-31 84 -90 84s-91 -37 -91 -84s31 -84 91 -84z" glyph-name="eight.tab" horiz-adv-x="650"/>
<glyph d="M54 0v188h188v-188h-188zM332 0v188h188v-188h-188zM611 0v188h188v-188h-188z" glyph-name="ellipsis" horiz-adv-x="853" unicode="…"/>
<glyph d="M312 -18c-189 0 -281 120 -281 269c0 151 102 276 278 276c179 0 257 -109 257 -251c0 -37 -10 -70 -10 -70h-338c11 -48 43 -80 98 -80c75 0 87 36 87 36h153v-69s-48 -111 -244 -111zM219 308h171c0 36 -28 75 -83 75c-50 0 -77 -31 -88 -75zM154 604v132h309v-132 h-309z" glyph-name="emacron" horiz-adv-x="599" unicode="ē"/>
<glyph d="M54 225v148h667v-148h-667z" glyph-name="emdash" horiz-adv-x="775" unicode="—"/>
<glyph d="M56 309v148h667v-148h-667z" glyph-name="emdash.uc" horiz-adv-x="780"/>
<glyph d="M54 225v148h475v-148h-475z" glyph-name="endash" horiz-adv-x="583" unicode="–"/>
<glyph d="M56 309v148h475v-148h-475z" glyph-name="endash.uc" horiz-adv-x="588"/>
<glyph d="M388 527c132 0 176 -98 176 -203v-342c0 -146 -71 -242 -252 -242v153c50 0 67 26 67 90v298c0 45 -16 77 -62 77c-57 0 -76 -41 -76 -81v-277h-185v508h175l7 -67c21 40 73 86 150 86z" glyph-name="eng" horiz-adv-x="615" unicode="ŋ"/>
<glyph d="M536 -127v-79h-87c-87 7 -160 29 -160 107c0 37 21 66 61 83c-12 -1 -24 -2 -38 -2c-189 0 -281 120 -281 269c0 151 102 276 278 276c179 0 257 -109 257 -251c0 -37 -10 -70 -10 -70h-338c11 -48 43 -80 98 -80c75 0 87 36 87 36h153v-69s-14 -31 -56 -61 c-27 -27 -48 -59 -48 -102c0 -42 44 -57 84 -57zM219 308h171c0 36 -28 75 -83 75c-50 0 -77 -31 -88 -75z" glyph-name="eogonek" horiz-adv-x="600" unicode="ę"/>
<glyph d="M56 350v149h478v-149h-478zM56 123v149h478v-149h-478z" glyph-name="equal" horiz-adv-x="590" unicode="="/>
<glyph d="M56 307v149h478v-149h-478zM56 80v149h478v-149h-478z" glyph-name="equal.old" horiz-adv-x="590"/>
<glyph d="M61 307v149h478v-149h-478zM61 80v149h478v-149h-478z" glyph-name="equal.oldtab" horiz-adv-x="600"/>
<glyph d="M86 350v149h478v-149h-478zM86 123v149h478v-149h-478z" glyph-name="equal.tab" horiz-adv-x="650"/>
<glyph d="M307 -18c-173 0 -275 118 -275 263c0 146 90 262 232 262c43 0 78 -11 106 -31c-18 32 -40 60 -67 87l-164 -64v108l69 27c-36 21 -74 37 -112 47v69h145c43 -11 86 -29 128 -54l151 60v-109l-58 -23c71 -74 120 -178 120 -319c0 -205 -102 -323 -275 -323zM307 143 c62 0 91 47 91 103c0 55 -29 100 -91 100s-90 -45 -90 -101c0 -57 28 -102 90 -102z" glyph-name="eth" horiz-adv-x="619" unicode="ð"/>
<glyph d="M74 261l-10 489h203l-10 -489h-183zM72 0v188h187v-188h-187z" glyph-name="exclam" horiz-adv-x="331" unicode="!"/>
<glyph d="M73 349l-10 -489h203l-10 489h-183zM71 610v-188h187v188h-187z" glyph-name="exclamdown" horiz-adv-x="329" unicode="¡"/>
<glyph d="M78 489l-10 -489h203l-10 489h-183zM76 750v-188h187v188h-187z" glyph-name="exclamdown.uc" horiz-adv-x="339"/>
<glyph d="M109 0v360h-82v148h82v39c0 129 85 213 229 213c102 0 162 -43 183 -114v-69h-142c0 13 -9 30 -40 30c-32 0 -45 -19 -45 -60v-39h161v-148h-161v-360h-185z" glyph-name="f" horiz-adv-x="470" unicode="f"/>
<glyph d="M758 -18c-73 0 -124 34 -153 86l-8 -68h-174v602c-9 3 -22 5 -40 5c-64 0 -89 -26 -89 -83v-16h86v-148h-86v-360h-185v360h-82v148h82v16c0 144 106 236 274 236c103 0 180 -27 224 -63v-250c33 50 83 80 154 80c135 0 212 -119 212 -266c0 -154 -72 -279 -215 -279z M698 151c60 0 91 44 91 102c0 59 -31 104 -92 104c-56 0 -90 -44 -90 -103c0 -60 34 -103 91 -103z" glyph-name="f_b" horiz-adv-x="1006"/>
<glyph d="M294 0h-185v360h-82v148h82v35c0 129 70 215 215 215c46 0 76 -9 77 -10v-154c-2 1 -20 12 -46 12c-41 0 -61 -20 -61 -69v-29h129v39c0 129 85 213 228 213c102 0 163 -43 184 -114v-69h-142c0 13 -9 30 -40 30c-32 0 -46 -19 -46 -60v-39h161v-148h-161v-360h-184v360 h-129v-360z" glyph-name="f_f" horiz-adv-x="783" unicode="ﬀ"/>
<glyph d="M1287 261c0 -154 -73 -279 -215 -279c-73 0 -124 34 -153 86l-8 -68h-174v602c-10 3 -23 5 -40 5c-64 0 -90 -26 -90 -83v-16h87v-148h-87v-360h-184v360h-129v-360h-185v360h-82v148h82v35c0 129 70 215 215 215c46 0 76 -9 77 -10v-154c-2 1 -20 12 -46 12 c-41 0 -61 -20 -61 -69v-29h129v16c0 144 106 236 273 236c103 0 181 -27 225 -63v-250c33 50 83 80 154 80c135 0 212 -119 212 -266zM1012 151c60 0 90 44 90 102c0 59 -30 104 -91 104c-56 0 -90 -44 -90 -103c0 -60 34 -103 91 -103z" glyph-name="f_f_b" horiz-adv-x="1320"/>
<glyph d="M294 0h-185v360h-82v148h82v35c0 129 70 215 215 215c46 0 76 -9 77 -10v-154c-2 1 -20 12 -46 12c-41 0 -61 -20 -61 -69v-29h129v16c0 144 106 236 273 236c103 0 181 -27 225 -63v-250c23 38 74 80 148 80c131 0 175 -98 175 -203v-324h-184v281c0 45 -16 77 -62 77 c-58 0 -77 -41 -77 -81v-277h-184v602c-10 3 -23 5 -40 5c-64 0 -90 -26 -90 -83v-16h87v-148h-87v-360h-184v360h-129v-360z" glyph-name="f_f_h" horiz-adv-x="1295"/>
<glyph d="M294 0h-185v360h-82v148h82v35c0 129 70 215 215 215c46 0 76 -9 77 -10v-154c-2 1 -20 12 -46 12c-41 0 -61 -20 -61 -69v-29h129v18c0 143 108 234 272 234c126 0 201 -52 225 -136v-69h-149c0 21 -16 52 -77 52c-60 0 -87 -26 -87 -82v-17h87v-148h-87v-360h-184v360 h-129v-360zM737 0v508h184v-508h-184z" glyph-name="f_f_i" horiz-adv-x="977" unicode="ﬃ"/>
<glyph d="M294 0h-185v360h-82v148h82v35c0 129 70 215 215 215c46 0 76 -9 77 -10v-154c-2 1 -20 12 -46 12c-41 0 -61 -20 -61 -69v-29h129v18c0 143 108 234 272 234c126 0 201 -52 225 -136v-69h-149c0 21 -16 52 -77 52c-60 0 -87 -26 -87 -82v-17h87v-148h-87v-360h-184v360 h-129v-360zM702 -260c-96 0 -154 43 -178 114v78h146c0 -17 7 -39 31 -39c27 0 36 17 36 60v555h184v-556c0 -128 -81 -212 -219 -212z" glyph-name="f_f_j" horiz-adv-x="977"/>
<glyph d="M294 0h-185v360h-82v148h82v35c0 129 70 215 215 215c46 0 76 -9 77 -10v-154c-2 1 -20 12 -46 12c-41 0 -61 -20 -61 -69v-29h129v16c0 144 106 236 273 236c103 0 181 -27 225 -63v-380l135 191h171v-69l-128 -175l148 -194v-70h-188l-138 201v-201h-184v602 c-10 3 -23 5 -40 5c-64 0 -90 -26 -90 -83v-16h87v-148h-87v-360h-184v360h-129v-360z" glyph-name="f_f_k" horiz-adv-x="1264"/>
<glyph d="M293 0h-184v360h-82v148h82v35c0 129 70 215 215 215c46 0 75 -9 77 -10v-154c-3 1 -20 12 -47 12c-41 0 -61 -20 -61 -69v-29h129v16c0 144 106 236 274 236c103 0 181 -27 225 -63v-697h-185v602c-9 3 -22 5 -39 5c-64 0 -90 -26 -90 -83v-16h86v-148h-86v-360h-185 v360h-129v-360z" glyph-name="f_f_l" horiz-adv-x="977" unicode="ﬄ"/>
<glyph d="M294 360v-360h-185v360h-82v148h82v16c0 144 106 236 274 236c103 0 180 -27 224 -63v-250c23 38 74 80 148 80c131 0 176 -98 176 -203v-324h-185v281c0 45 -16 77 -62 77c-57 0 -77 -41 -77 -81v-277h-184v602c-9 3 -22 5 -40 5c-64 0 -89 -26 -89 -83v-16h86v-148h-86 z" glyph-name="f_h" horiz-adv-x="982"/>
<glyph d="M109 0v360h-82v148h82v18c0 143 108 234 272 234c126 0 201 -52 226 -136v-69h-150c0 21 -16 52 -77 52c-60 0 -86 -26 -86 -82v-17h86v-148h-86v-360h-185zM388 -260c-96 0 -154 43 -178 114v78h146c0 -17 7 -39 31 -39c27 0 36 17 36 60v555h184v-556 c0 -128 -81 -212 -219 -212z" glyph-name="f_j" horiz-adv-x="663"/>
<glyph d="M294 360v-360h-185v360h-82v148h82v16c0 144 106 236 274 236c103 0 180 -27 224 -63v-380l136 191h170v-69l-128 -175l148 -194v-70h-188l-138 201v-201h-184v602c-9 3 -22 5 -40 5c-64 0 -89 -26 -89 -83v-16h86v-148h-86z" glyph-name="f_k" horiz-adv-x="950"/>
<glyph d="M231 -158l-156 179v675l156 179h718l156 -179v-675l-156 -179h-718z" glyph-name="fillframe1" unicode=""/>
<glyph d="M590 -157c-138 0 -261 51 -352 136c-102 96 -163 236 -163 381s61 285 163 381c91 85 214 136 352 136s261 -51 352 -136c102 -96 163 -236 163 -381s-61 -285 -163 -381c-91 -85 -214 -136 -352 -136z" glyph-name="fillframeround" unicode=""/>
<glyph d="M297 -18c-148 0 -246 89 -265 188v78h165c6 -39 28 -90 99 -90c57 0 86 46 86 94c0 47 -33 91 -92 91c-57 0 -83 -27 -83 -27l-138 55l34 379h431v-168h-271l-8 -89c17 4 42 9 72 9c156 0 258 -96 258 -249c0 -160 -108 -271 -288 -271z" glyph-name="five" horiz-adv-x="617" unicode="5"/>
<glyph d="M286 -260c-145 0 -240 89 -258 185v78h162c7 -43 23 -101 96 -101c52 0 77 49 77 104c0 52 -32 96 -89 96c-55 0 -79 -28 -79 -28l-138 55l34 379h418v-166h-266l-10 -98c20 4 43 8 69 8c150 0 246 -93 246 -241c0 -159 -98 -271 -262 -271z" glyph-name="five.old" horiz-adv-x="576"/>
<glyph d="M299 -260c-146 0 -240 89 -259 185v78h162c7 -43 24 -101 96 -101c52 0 78 49 78 104c0 52 -33 96 -90 96c-54 0 -78 -28 -78 -28l-138 55l33 379h419v-166h-267l-9 -98c19 4 42 8 68 8c150 0 246 -93 246 -241c0 -159 -97 -271 -261 -271z" glyph-name="five.oldtab" horiz-adv-x="600"/>
<glyph d="M313 -18c-149 0 -247 89 -266 188v78h164c6 -39 29 -90 101 -90c58 0 88 46 88 94c0 47 -34 91 -94 91c-57 0 -84 -27 -84 -27l-138 55l33 379h435v-168h-274l-9 -89c17 4 43 9 74 9c157 0 260 -96 260 -249c0 -160 -109 -271 -290 -271z" glyph-name="five.tab" horiz-adv-x="650"/>
<glyph d="M247 -40l469 830h185l-469 -830h-185zM219 284c-111 0 -179 52 -190 113v50h131c4 -21 20 -40 49 -40c32 0 44 22 44 44s-15 42 -44 42c-28 0 -40 -13 -40 -13l-121 30l22 240h317v-121h-193l-4 -39c13 3 27 5 43 5c109 0 184 -52 184 -147c0 -98 -84 -164 -198 -164z M927 -25c-127 0 -201 67 -201 152c0 40 18 83 68 109c-41 18 -54 61 -54 93c0 80 67 142 187 142c119 0 187 -62 187 -142c0 -42 -22 -80 -53 -93c49 -25 69 -69 69 -109c0 -85 -74 -152 -203 -152zM927 278c28 0 42 18 42 40c0 20 -14 37 -42 37c-27 0 -41 -17 -41 -37 c0 -22 14 -40 41 -40zM927 93c29 0 43 19 43 42c0 22 -14 40 -43 40c-28 0 -43 -18 -43 -40c0 -23 15 -42 43 -42z" glyph-name="fiveeighths" horiz-adv-x="1159" unicode="⅝"/>
<glyph d="M187 -191c-102 0 -162 43 -183 113v70h141c0 -13 9 -30 40 -31c36 1 49 22 56 61l53 288h-78v148h105l16 89c24 127 89 213 239 213c102 0 162 -43 183 -114v-69h-141c0 13 -9 30 -40 30c-36 0 -49 -21 -56 -60l-16 -89h137v-148h-165l-53 -289 c-23 -125 -88 -212 -238 -212z" glyph-name="florin" horiz-adv-x="810" unicode="ƒ"/>
<glyph d="M187 -191c-102 0 -162 43 -183 113v70h141c0 -13 9 -30 40 -31c36 1 49 22 56 61l53 288h-78v148h105l16 89c24 127 89 213 239 213c102 0 162 -43 183 -114v-69h-141c0 13 -9 30 -40 30c-36 0 -49 -21 -56 -60l-16 -89h137v-148h-165l-53 -289 c-23 -125 -88 -212 -238 -212z" glyph-name="florin.old" horiz-adv-x="810"/>
<glyph d="M82 -191c-102 0 -162 43 -183 113v70h141c0 -13 9 -30 40 -31c36 1 49 22 56 61l53 288h-78v148h105l16 89c24 127 89 213 239 213c102 0 162 -43 183 -114v-69h-141c0 13 -9 30 -40 30c-36 0 -49 -21 -56 -60l-16 -89h137v-148h-165l-53 -289 c-23 -125 -88 -212 -238 -212z" glyph-name="florin.oldtab" horiz-adv-x="600"/>
<glyph d="M107 -191c-102 0 -162 43 -183 113v70h141c0 -13 9 -30 40 -31c36 1 49 22 56 61l53 288h-78v148h105l16 89c24 127 89 213 239 213c102 0 162 -43 183 -114v-69h-141c0 13 -9 30 -40 30c-36 0 -49 -21 -56 -60l-16 -89h137v-148h-165l-53 -289 c-23 -125 -88 -212 -238 -212z" glyph-name="florin.tab" horiz-adv-x="650"/>
<glyph d="M641 136h-92v-146h-187v146h-343v145l350 469h180v-457h92v-157zM362 293v191l-141 -191h141z" glyph-name="four" horiz-adv-x="674" unicode="4"/>
<glyph d="M600 3h-83v-253h-177v253h-317v127l334 389h160v-377h83v-139zM340 142v141l-119 -141h119z" glyph-name="four.old" horiz-adv-x="632"/>
<glyph d="M584 3h-84v-253h-176v253h-317v127l333 389h160v-377h84v-139zM324 142v141l-119 -141h119z" glyph-name="four.oldtab" horiz-adv-x="600"/>
<glyph d="M628 136h-93v-146h-186v146h-341v145l348 470h179v-458h93v-157zM349 293v192l-141 -192h141z" glyph-name="four.tab" horiz-adv-x="650"/>
<glyph d="M-12 -40l469 830h184l-469 -830h-184z" glyph-name="fraction" horiz-adv-x="630" unicode="⁄"/>
<glyph d="M320 -260c-213 0 -255 150 -255 150v68h158s13 -56 91 -56c70 0 99 50 99 111v57c-32 -48 -90 -72 -161 -72c-135 0 -219 116 -219 258c0 152 88 271 225 271c70 0 128 -35 157 -86l8 67h174v-490c0 -167 -115 -278 -277 -278zM316 159c56 0 97 42 97 100s-41 98 -98 98 c-60 0 -97 -42 -97 -98c0 -57 37 -100 98 -100z" glyph-name="g" horiz-adv-x="652" unicode="g"/>
<glyph d="M320 -260c-213 0 -255 150 -255 150v68h158s13 -56 91 -56c70 0 99 50 99 111v57c-32 -48 -90 -72 -161 -72c-135 0 -219 116 -219 258c0 152 88 271 225 271c70 0 128 -35 157 -86l8 67h174v-490c0 -167 -115 -278 -277 -278zM316 159c56 0 97 42 97 100s-41 98 -98 98 c-60 0 -97 -42 -97 -98c0 -57 37 -100 98 -100zM341 589c-129 0 -167 78 -167 78v78h87s24 -35 80 -35c57 0 76 35 76 35h87v-78s-37 -78 -163 -78z" glyph-name="gbreve" horiz-adv-x="652" unicode="ğ"/>
<glyph d="M320 -260c-213 0 -255 150 -255 150v68h158s13 -56 91 -56c70 0 99 50 99 111v57c-32 -48 -90 -72 -161 -72c-135 0 -219 116 -219 258c0 152 88 271 225 271c70 0 128 -35 157 -86l8 67h174v-490c0 -167 -115 -278 -277 -278zM316 159c56 0 97 42 97 100s-41 98 -98 98 c-60 0 -97 -42 -97 -98c0 -57 37 -100 98 -100zM393 594l-51 77l-50 -77h-137v60l92 96h190l92 -96v-60h-136z" glyph-name="gcircumflex" horiz-adv-x="652" unicode="ĝ"/>
<glyph d="M320 -260c-213 0 -255 150 -255 150v68h158s13 -56 91 -56c70 0 99 50 99 111v57c-32 -48 -90 -72 -161 -72c-135 0 -219 116 -219 258c0 152 88 271 225 271c70 0 128 -35 157 -86l8 67h174v-490c0 -167 -115 -278 -277 -278zM316 159c56 0 97 42 97 100s-41 98 -98 98 c-60 0 -97 -42 -97 -98c0 -57 37 -100 98 -100zM430 763l8 -153h-196v72l65 81h123z" glyph-name="gcommaaccent" horiz-adv-x="652" unicode="ģ"/>
<glyph d="M320 -260c-213 0 -255 150 -255 150v68h158s13 -56 91 -56c70 0 99 50 99 111v57c-32 -48 -90 -72 -161 -72c-135 0 -219 116 -219 258c0 152 88 271 225 271c70 0 128 -35 157 -86l8 67h174v-490c0 -167 -115 -278 -277 -278zM316 159c56 0 97 42 97 100s-41 98 -98 98 c-60 0 -97 -42 -97 -98c0 -57 37 -100 98 -100zM259 593v161h186v-161h-186z" glyph-name="gdotaccent" horiz-adv-x="652" unicode="ġ"/>
<glyph d="M380 -18c-57 0 -97 17 -101 18v150c4 -1 28 -16 66 -16c46 0 67 34 67 74c0 66 -42 90 -119 91v141c51 3 81 46 81 96c0 44 -19 75 -66 75c-45 0 -67 -39 -67 -90v-521h-185v522c0 146 96 238 255 238c146 0 252 -71 252 -212c0 -64 -36 -128 -95 -163 c84 -23 134 -93 134 -178c0 -110 -62 -225 -222 -225z" glyph-name="germandbls" horiz-adv-x="633" unicode="ß"/>
<glyph d="M175 594l-100 96v60h179l66 -96v-60h-145z" glyph-name="grave" horiz-adv-x="332" unicode="`"/>
<glyph d="M142 805l-92 80v60h200l58 -80v-60h-166z" glyph-name="grave.uc" horiz-adv-x="302"/>
<glyph d="M121 39h-69v150l188 116l-188 115v150h69l317 -202v-127z" glyph-name="greater" horiz-adv-x="467" unicode="&gt;"/>
<glyph d="M121 6h-69v150l182 107l-182 107v150h69l317 -194v-126z" glyph-name="greater.old" horiz-adv-x="467"/>
<glyph d="M188 6h-69v150l182 107l-182 107v150h69l317 -194v-126z" glyph-name="greater.oldtab" horiz-adv-x="600"/>
<glyph d="M213 39h-69v150l188 116l-188 115v150h69l317 -202v-127z" glyph-name="greater.tab" horiz-adv-x="650"/>
<glyph d="M132 180h-69v150l209 80l-209 80v150h69l351 -167v-126zM63 7v148h419v-148h-419z" glyph-name="greaterequal" horiz-adv-x="532" unicode="≥"/>
<glyph d="M133 172h-69v150l203 72l-203 72v149h69l351 -158v-127zM64 1v148h419v-148h-419z" glyph-name="greaterequal.old" horiz-adv-x="533"/>
<glyph d="M167 172h-69v150l203 72l-203 72v149h69l351 -158v-127zM98 1v148h419v-148h-419z" glyph-name="greaterequal.oldtab" horiz-adv-x="600"/>
<glyph d="M191 180h-69v150l209 80l-209 80v150h69l351 -167v-126zM122 7v148h419v-148h-419z" glyph-name="greaterequal.tab" horiz-adv-x="650"/>
<glyph d="M367 43h-154l-191 227l191 227h154v-65l-138 -162l138 -162v-65zM656 43h-153l-191 227l191 227h153v-65l-138 -162l138 -162v-65z" glyph-name="guillemotleft" horiz-adv-x="702" unicode="«"/>
<glyph d="M381 161h-154l-191 227l191 227h154v-65l-138 -162l138 -162v-65zM670 161h-153l-191 227l191 227h153v-65l-138 -162l138 -162v-65z" glyph-name="guillemotleft.uc" horiz-adv-x="731"/>
<glyph d="M200 43h-154v65l138 162l-138 162v65h154l191 -227zM489 43h-154v65l139 162l-139 162v65h154l191 -227z" glyph-name="guillemotright" horiz-adv-x="702" unicode="»"/>
<glyph d="M215 161h-154v65l138 162l-138 162v65h154l191 -227zM504 161h-154v65l139 162l-139 162v65h154l191 -227z" glyph-name="guillemotright.uc" horiz-adv-x="731"/>
<glyph d="M213 43l-191 227l191 227h154v-65l-138 -162l138 -162v-65h-154z" glyph-name="guilsinglleft" horiz-adv-x="413" unicode="‹"/>
<glyph d="M218 93l-191 227l191 227h154v-65l-138 -162l138 -162v-65h-154z" glyph-name="guilsinglleft.uc" horiz-adv-x="422"/>
<glyph d="M46 43v65l138 162l-138 162v65h154l191 -227l-191 -227h-154z" glyph-name="guilsinglright" horiz-adv-x="413" unicode="›"/>
<glyph d="M50 93v65l138 162l-138 162v65h154l191 -227l-191 -227h-154z" glyph-name="guilsinglright.uc" horiz-adv-x="422"/>
<glyph d="M56 0v750h185v-303c22 38 74 80 147 80c132 0 176 -98 176 -203v-324h-185v281c0 45 -16 77 -62 77c-57 0 -76 -41 -76 -81v-277h-185z" glyph-name="h" horiz-adv-x="615" unicode="h"/>
<glyph d="M241 277v-277h-185v563h-64v123h64v64h185v-64h148v-123h-148v-116c22 38 74 80 147 80c132 0 176 -98 176 -203v-324h-185v281c0 45 -16 77 -62 77c-57 0 -76 -41 -76 -81z" glyph-name="hbar" horiz-adv-x="615" unicode="ħ"/>
<glyph d="M56 0v750h185v-303c22 38 74 80 147 80c132 0 176 -98 176 -203v-324h-185v281c0 45 -16 77 -62 77c-57 0 -76 -41 -76 -81v-277h-185zM341 803l-42 53l-42 -53h-154v60l92 80h207l92 -80v-60h-153z" glyph-name="hcircumflex" horiz-adv-x="615" unicode="ĥ"/>
<glyph d="M26 594v60l31 96h180l-22 -68l-43 -88h-146zM233 594v60l58 96h171v-60l-92 -96h-137z" glyph-name="hungarumlaut" horiz-adv-x="484" unicode="˝"/>
<glyph d="M26 805v60l31 80h188l-22 -60l-42 -80h-155zM241 805v60l58 80h189v-60l-92 -80h-155z" glyph-name="hungarumlaut.uc" horiz-adv-x="484"/>
<glyph d="M54 225v148h295v-148h-295z" glyph-name="hyphen" horiz-adv-x="403" unicode="-"/>
<glyph d="M56 309v148h295v-148h-295z" glyph-name="hyphen.uc" horiz-adv-x="407"/>
<glyph d="M56 0v508h184v-508h-184zM54 593v161h186v-161h-186z" glyph-name="i" horiz-adv-x="296" unicode="i"/>
<glyph d="M56 0v508h184v-508h-184zM57 594v60l66 96h179v-60l-100 -96h-145z" glyph-name="iacute" horiz-adv-x="296" unicode="í"/>
<glyph d="M56 0v508h184v-508h-184zM151 589c-129 0 -167 78 -167 78v78h87s24 -35 80 -35c57 0 76 35 76 35h87v-78s-37 -78 -163 -78z" glyph-name="ibreve" horiz-adv-x="296" unicode="ĭ"/>
<glyph d="M56 0v508h184v-508h-184zM198 594l-51 77l-50 -77h-137v60l92 96h190l92 -96v-60h-136z" glyph-name="icircumflex" horiz-adv-x="296" unicode="î"/>
<glyph d="M56 0v508h184v-508h-184zM-49 593v161h169v-161h-169zM173 593v161h170v-161h-170z" glyph-name="idieresis" horiz-adv-x="296" unicode="ï"/>
<glyph d="M56 0v508h184v-508h-184zM54 593v161h186v-161h-186z" glyph-name="idotaccent" horiz-adv-x="296"/>
<glyph d="M56 0v508h184v-508h-184zM95 594l-100 96v60h179l66 -96v-60h-145z" glyph-name="igrave" horiz-adv-x="296" unicode="ì"/>
<glyph d="M56 0v508h184v-508h-184zM54 593v161h186v-161h-186zM282 -260c-96 0 -154 43 -178 114v78h146c0 -17 7 -39 31 -39c27 0 36 17 36 60v555h184v-556c0 -128 -81 -212 -219 -212zM316 593v161h186v-161h-186z" glyph-name="ij" horiz-adv-x="557" unicode="ĳ"/>
<glyph d="M56 0v508h184v-508h-184zM-6 604v132h309v-132h-309z" glyph-name="imacron" horiz-adv-x="296" unicode="ī"/>
<glyph d="M54 593v161h186v-161h-186zM3 -99c0 54 39 92 106 99h-53v508h184v-508h-8c-41 -8 -66 -23 -66 -56c0 -45 44 -54 84 -54v-96h-87c-87 7 -160 29 -160 107z" glyph-name="iogonek" horiz-adv-x="296" unicode="į"/>
<glyph d="M56 0v508h184v-508h-184zM237 593c-70 0 -81 38 -131 38c-21 0 -31 -15 -35 -33h-112c-9 88 33 156 112 156c72 0 80 -37 128 -37c17 0 30 9 34 32h112c9 -89 -24 -156 -108 -156z" glyph-name="itilde" horiz-adv-x="296" unicode="ĩ"/>
<glyph d="M21 -260c-96 0 -154 43 -178 114v78h146c0 -17 7 -39 31 -39c27 0 36 17 36 60v555h184v-556c0 -128 -81 -212 -219 -212zM55 593v161h186v-161h-186z" glyph-name="j" horiz-adv-x="296" unicode="j"/>
<glyph d="M21 -260c-96 0 -154 43 -178 114v78h146c0 -17 7 -39 31 -39c27 0 36 17 36 60v555h184v-556c0 -128 -81 -212 -219 -212zM199 594l-51 77l-50 -77h-137v60l92 96h190l92 -96v-60h-136z" glyph-name="jcircumflex" horiz-adv-x="296" unicode="ĵ"/>
<glyph d="M56 0v750h185v-433l135 191h171v-69l-129 -175l149 -194v-70h-189l-137 201v-201h-185z" glyph-name="k" horiz-adv-x="583" unicode="k"/>
<glyph d="M56 0v750h185v-433l135 191h171v-69l-129 -175l149 -194v-70h-189l-137 201v-201h-185zM219 -205l-8 153h196v-72l-65 -81h-123z" glyph-name="kcommaaccent" horiz-adv-x="583" unicode="ķ"/>
<glyph d="M56 0v750h185v-750h-185z" glyph-name="l" horiz-adv-x="297" unicode="l"/>
<glyph d="M56 0v750h185v-750h-185zM58 805v60l53 80h185v-60l-85 -80h-153z" glyph-name="lacute" horiz-adv-x="296" unicode="ĺ"/>
<glyph d="M56 0v750h185v-750h-185zM282 552l-9 198h177v-97l-49 -101h-119z" glyph-name="lcaron" horiz-adv-x="309" unicode="ľ"/>
<glyph d="M56 0v750h185v-750h-185zM56 -205l-8 153h183v-72l-60 -81h-115z" glyph-name="lcommaaccent" horiz-adv-x="297" unicode="ļ"/>
<glyph d="M56 0v750h185v-750h-185zM295 258v187h189v-187h-189z" glyph-name="ldot" horiz-adv-x="472" unicode="ŀ"/>
<glyph d="M415 39h-70l-316 202v127l316 202h70v-150l-188 -115l188 -116v-150z" glyph-name="less" horiz-adv-x="467" unicode="&lt;"/>
<glyph d="M415 6h-69l-317 194v126l317 194h69v-150l-182 -107l182 -107v-150z" glyph-name="less.old" horiz-adv-x="467"/>
<glyph d="M481 6h-69l-317 194v126l317 194h69v-150l-182 -107l182 -107v-150z" glyph-name="less.oldtab" horiz-adv-x="600"/>
<glyph d="M506 39h-70l-316 202v127l316 202h70v-150l-188 -115l188 -116v-150z" glyph-name="less.tab" horiz-adv-x="650"/>
<glyph d="M469 180h-69l-351 167v126l351 167h69v-150l-209 -80l209 -80v-150zM50 7v148h419v-148h-419z" glyph-name="lessequal" horiz-adv-x="532" unicode="≤"/>
<glyph d="M469 172h-69l-351 158v127l351 158h69v-149l-203 -72l203 -72v-150zM50 1v148h419v-148h-419z" glyph-name="lessequal.old" horiz-adv-x="533"/>
<glyph d="M502 172h-69l-351 158v127l351 158h69v-149l-203 -72l203 -72v-150zM83 1v148h419v-148h-419z" glyph-name="lessequal.oldtab" horiz-adv-x="600"/>
<glyph d="M528 180h-69l-351 167v126l351 167h69v-150l-209 -80l209 -80v-150zM109 7v148h419v-148h-419z" glyph-name="lessequal.tab" horiz-adv-x="650"/>
<glyph d="M353 338l-64 -30v-308h-185v223l-65 -30v161l65 30v366h185v-281l64 30v-161z" glyph-name="lslash" horiz-adv-x="390" unicode="ł"/>
<glyph d="M56 0v508h174l7 -64c22 41 64 83 133 83c74 0 120 -41 138 -91c24 45 70 91 146 91c128 0 178 -95 178 -210v-317h-185v290c0 40 -14 68 -57 68c-42 0 -58 -36 -58 -70v-288h-176v295c0 38 -17 63 -57 63c-43 0 -59 -37 -59 -72v-286h-184z" glyph-name="m" horiz-adv-x="883" unicode="m"/>
<glyph d="M75 604v132h309v-132h-309z" glyph-name="macron" horiz-adv-x="474" unicode="¯"/>
<glyph d="M58 805v124h343v-124h-343z" glyph-name="macron.uc" horiz-adv-x="458"/>
<glyph d="M590 148l-109 189l-45 -128h37v-57h-218v57h42l156 410l137 -253l137 253l156 -410h41v-57h-217v57h37l-45 128z" glyph-name="metrologo"/>
<glyph d="M56 229v148h444v-148h-444z" glyph-name="minus" horiz-adv-x="556" unicode="−"/>
<glyph d="M57 192v148h444v-148h-444z" glyph-name="minus.old" horiz-adv-x="558"/>
<glyph d="M78 192v148h444v-148h-444z" glyph-name="minus.oldtab" horiz-adv-x="600"/>
<glyph d="M103 229v148h444v-148h-444z" glyph-name="minus.tab" horiz-adv-x="650"/>
<glyph d="M47 423l24 327h188l-80 -327h-132z" glyph-name="minute" horiz-adv-x="277" unicode="′"/>
<glyph d="M441 42l-151 144l-151 -144l-104 114l143 137l-144 137l104 114l152 -145l152 145l104 -114l-144 -137l143 -137z" glyph-name="multiply" horiz-adv-x="580" unicode="×"/>
<glyph d="M441 6l-151 144l-151 -144l-104 114l143 137l-144 137l104 114l152 -145l152 145l104 -114l-144 -137l143 -137z" glyph-name="multiply.old" horiz-adv-x="580"/>
<glyph d="M451 6l-151 144l-151 -144l-104 114l143 137l-144 137l104 114l152 -145l152 145l104 -114l-144 -137l143 -137z" glyph-name="multiply.oldtab" horiz-adv-x="600"/>
<glyph d="M476 42l-151 144l-151 -144l-104 114l143 137l-144 137l104 114l152 -145l152 145l104 -114l-144 -137l143 -137z" glyph-name="multiply.tab" horiz-adv-x="650"/>
<glyph d="M56 0v508h175l7 -67c21 40 73 86 150 86c132 0 176 -98 176 -203v-324h-185v281c0 45 -16 77 -62 77c-57 0 -76 -41 -76 -81v-277h-185z" glyph-name="n" horiz-adv-x="615" unicode="n"/>
<glyph d="M56 0v508h175l7 -67c21 40 73 86 150 86c132 0 176 -98 176 -203v-324h-185v281c0 45 -16 77 -62 77c-57 0 -76 -41 -76 -81v-277h-185zM215 594v60l66 96h179v-60l-100 -96h-145z" glyph-name="nacute" horiz-adv-x="615" unicode="ń"/>
<glyph d="M56 0v508h175l7 -67c21 40 73 86 150 86c132 0 176 -98 176 -203v-324h-185v281c0 45 -16 77 -62 77c-57 0 -76 -41 -76 -81v-277h-185zM232 594v60l28 126h179v-60l-62 -126h-145z" glyph-name="nacute.pl" horiz-adv-x="615"/>
<glyph d="M51 552l-9 198h177v-97l-49 -101h-119zM56 0v508h175l7 -67c21 40 73 86 150 86c132 0 176 -98 176 -203v-324h-185v281c0 45 -16 77 -62 77c-57 0 -76 -41 -76 -81v-277h-185z" glyph-name="napostrophe" horiz-adv-x="615" unicode="ŉ"/>
<glyph d="M56 0v508h175l7 -67c21 40 73 86 150 86c132 0 176 -98 176 -203v-324h-185v281c0 45 -16 77 -62 77c-57 0 -76 -41 -76 -81v-277h-185zM386 594h-190l-93 96v60h137l51 -77l50 77h136v-60z" glyph-name="ncaron" horiz-adv-x="615" unicode="ň"/>
<glyph d="M56 0v508h175l7 -67c21 40 73 86 150 86c132 0 176 -98 176 -203v-324h-185v281c0 45 -16 77 -62 77c-57 0 -76 -41 -76 -81v-277h-185zM216 -205l-8 153h196v-72l-65 -81h-123z" glyph-name="ncommaaccent" horiz-adv-x="615" unicode="ņ"/>
<glyph d="M128 -10v68c8 9 81 90 87 97c29 33 58 65 78 88c-3 -2 -7 -3 -11 -3c-163 9 -261 108 -261 260c0 146 111 268 291 268c185 0 291 -123 291 -268c0 -123 -54 -217 -145 -329c-7 -8 -141 -169 -150 -181h-180zM312 401c62 0 96 42 96 96c0 55 -34 97 -97 97 c-61 0 -95 -42 -95 -97c0 -54 34 -96 96 -96z" glyph-name="nine" horiz-adv-x="637" unicode="9"/>
<glyph d="M136 -252v68c7 9 81 90 87 98c40 44 77 85 95 105c-25 -2 -51 0 -74 4c-131 22 -207 112 -207 237c0 149 107 267 282 267c180 0 281 -119 281 -267c0 -119 -49 -213 -143 -329c-7 -8 -141 -169 -152 -183h-169zM319 168c62 0 97 42 97 97s-35 97 -98 97 c-61 0 -96 -42 -96 -97s35 -97 97 -97z" glyph-name="nine.old" horiz-adv-x="630"/>
<glyph d="M121 -252v68c7 9 81 90 87 98c40 44 77 85 95 105c-25 -2 -51 0 -74 4c-131 22 -207 112 -207 237c0 149 107 267 282 267c180 0 281 -119 281 -267c0 -119 -49 -213 -143 -329c-7 -8 -141 -169 -152 -183h-169zM304 168c62 0 97 42 97 97s-35 97 -98 97 c-61 0 -96 -42 -96 -97s35 -97 97 -97z" glyph-name="nine.oldtab" horiz-adv-x="600"/>
<glyph d="M132 -9v68l80 86c34 38 68 73 91 99c-19 -1 -37 -1 -57 1c-137 21 -220 117 -220 255c0 146 112 268 293 268c186 0 292 -123 292 -268c0 -126 -55 -220 -157 -340l-143 -169h-179zM319 401c63 0 98 42 98 96c0 55 -35 97 -99 97c-62 0 -97 -42 -97 -97 c0 -54 34 -96 98 -96z" glyph-name="nine.tab" horiz-adv-x="650"/>
<glyph d="M231 -158l-156 179v675l156 179h718l156 -179v-675l-156 -179h-718zM255 805l-31 -36l779 -767l32 37v639l-110 127h-670zM255 -88h670l33 38l-779 767l-34 -39v-639z" glyph-name="noframe1" unicode=""/>
<glyph d="M533 123h-238l-57 -116h-176l58 116h-65v149h138l39 78h-177v149h251l57 115h175l-57 -115h52v-149h-125l-39 -78h164v-149z" glyph-name="notequal" horiz-adv-x="590" unicode="≠"/>
<glyph d="M529 75h-246l-49 -90h-175l49 90h-57v148h138l41 76h-179v148h259l49 89h175l-49 -89h44v-148h-124l-41 -76h165v-148z" glyph-name="notequal.old" horiz-adv-x="583"/>
<glyph d="M538 75h-246l-49 -90h-175l49 90h-57v148h138l41 76h-179v148h259l49 89h175l-49 -89h44v-148h-124l-41 -76h165v-148z" glyph-name="notequal.oldtab" horiz-adv-x="600"/>
<glyph d="M563 123h-238l-57 -116h-176l58 116h-65v149h138l39 78h-177v149h251l57 115h175l-57 -115h52v-149h-125l-39 -78h164v-149z" glyph-name="notequal.tab" horiz-adv-x="650"/>
<glyph d="M56 0v508h175l7 -67c21 40 73 86 150 86c132 0 176 -98 176 -203v-324h-185v281c0 45 -16 77 -62 77c-57 0 -76 -41 -76 -81v-277h-185zM393 593c-70 0 -81 38 -131 38c-21 0 -31 -15 -35 -33h-112c-9 88 33 156 112 156c72 0 80 -37 128 -37c17 0 30 9 34 32h112 c9 -89 -24 -156 -108 -156z" glyph-name="ntilde" horiz-adv-x="615" unicode="ñ"/>
<glyph d="M357 0l24 160h-86l-23 -160h-173l23 160h-86v149h109l16 112h-95v149h117l27 180h173l-27 -180h85l27 180h173l-27 -180h78v-149h-100l-16 -112h86v-149h-108l-24 -160h-173zM403 309l16 112h-85l-16 -112h85z" glyph-name="numbersign" horiz-adv-x="731" unicode="#"/>
<glyph d="M338 0l21 121h-85l-21 -121h-163l21 121h-68v149h94l16 90h-80v149h106l22 121h163l-21 -121h85l21 121h164l-21 -121h55v-149h-81l-17 -90h68v-149h-94l-21 -121h-164zM385 270l17 90h-85l-17 -90h85z" glyph-name="numbersign.old" horiz-adv-x="691"/>
<glyph d="M285 0l20 121h-65l-20 -121h-163l21 121h-65v149h90l15 90h-77v149h102l20 121h163l-20 -121h64l20 121h163l-20 -121h53v-149h-78l-16 -90h65v-149h-89l-20 -121h-163zM330 270l15 90h-64l-15 -90h64z" glyph-name="numbersign.oldtab" horiz-adv-x="600"/>
<glyph d="M294 0l20 160h-74l-20 -160h-149l20 160h-74v149h93l15 112h-82v149h101l23 180h149l-23 -180h75l23 180h149l-24 -180h68v-149h-87l-15 -112h75v-149h-93l-20 -160h-150zM334 309l14 112h-74l-14 -112h74z" glyph-name="numbersign.tab" horiz-adv-x="600"/>
<glyph d="M306 -18c-173 0 -275 123 -275 273c0 151 102 272 275 272s275 -121 275 -272c0 -150 -102 -273 -275 -273zM306 143c62 0 91 51 91 112s-29 111 -91 111s-90 -50 -90 -111s28 -112 90 -112z" glyph-name="o" horiz-adv-x="612" unicode="o"/>
<glyph d="M230 594v60l66 96h179v-60l-100 -96h-145zM306 -18c-173 0 -275 123 -275 273c0 151 102 272 275 272s275 -121 275 -272c0 -150 -102 -273 -275 -273zM306 143c62 0 91 51 91 112s-29 111 -91 111s-90 -50 -90 -111s28 -112 90 -112z" glyph-name="oacute" horiz-adv-x="612" unicode="ó"/>
<glyph d="M232 594v60l28 126h179v-60l-62 -126h-145zM306 -18c-173 0 -275 123 -275 273c0 151 102 272 275 272s275 -121 275 -272c0 -150 -102 -273 -275 -273zM306 143c62 0 91 51 91 112s-29 111 -91 111s-90 -50 -90 -111s28 -112 90 -112z" glyph-name="oacute.pl" horiz-adv-x="612"/>
<glyph d="M306 -18c-173 0 -275 123 -275 273c0 151 102 272 275 272s275 -121 275 -272c0 -150 -102 -273 -275 -273zM306 143c62 0 91 51 91 112s-29 111 -91 111s-90 -50 -90 -111s28 -112 90 -112zM307 589c-129 0 -167 78 -167 78v78h87s24 -35 80 -35c57 0 76 35 76 35h87 v-78s-37 -78 -163 -78z" glyph-name="obreve" horiz-adv-x="612" unicode="ŏ"/>
<glyph d="M358 594l-51 77l-50 -77h-137v60l92 96h190l92 -96v-60h-136zM306 -18c-173 0 -275 123 -275 273c0 151 102 272 275 272s275 -121 275 -272c0 -150 -102 -273 -275 -273zM306 143c62 0 91 51 91 112s-29 111 -91 111s-90 -50 -90 -111s28 -112 90 -112z" glyph-name="ocircumflex" horiz-adv-x="612" unicode="ô"/>
<glyph d="M111 593v161h169v-161h-169zM333 593v161h170v-161h-170zM306 -18c-173 0 -275 123 -275 273c0 151 102 272 275 272s275 -121 275 -272c0 -150 -102 -273 -275 -273zM306 143c62 0 91 51 91 112s-29 111 -91 111s-90 -50 -90 -111s28 -112 90 -112z" glyph-name="odieresis" horiz-adv-x="612" unicode="ö"/>
<glyph d="M678 -18c-87 0 -152 30 -194 80c-42 -49 -102 -80 -178 -80c-173 0 -275 123 -275 273c0 151 102 272 275 272c77 0 140 -32 181 -83c43 51 106 83 188 83c179 0 256 -109 256 -251c0 -37 -9 -70 -9 -70h-338c11 -48 43 -80 98 -80c74 0 86 36 86 36h154v-69 s-48 -111 -244 -111zM585 308h170c0 36 -27 75 -82 75c-51 0 -77 -31 -88 -75zM306 143c62 0 91 51 91 112s-29 111 -91 111s-90 -50 -90 -111s28 -112 90 -112z" glyph-name="oe" horiz-adv-x="965" unicode="œ"/>
<glyph d="M181 -206c-87 7 -160 29 -160 107c0 54 39 92 106 99h123c-41 -8 -66 -23 -66 -56c0 -45 44 -54 84 -54v-96h-87z" glyph-name="ogonek" horiz-adv-x="295" unicode="˛"/>
<glyph d="M306 -18c-173 0 -275 123 -275 273c0 151 102 272 275 272s275 -121 275 -272c0 -150 -102 -273 -275 -273zM306 143c62 0 91 51 91 112s-29 111 -91 111s-90 -50 -90 -111s28 -112 90 -112zM237 594l-100 96v60h179l66 -96v-60h-145z" glyph-name="ograve" horiz-adv-x="612" unicode="ò"/>
<glyph d="M129 594v60l31 96h180l-22 -68l-43 -88h-146zM336 594v60l58 96h171v-60l-92 -96h-137zM306 -18c-173 0 -275 123 -275 273c0 151 102 272 275 272s275 -121 275 -272c0 -150 -102 -273 -275 -273zM306 143c62 0 91 51 91 112s-29 111 -91 111s-90 -50 -90 -111 s28 -112 90 -112z" glyph-name="ohungarumlaut" horiz-adv-x="612" unicode="ő"/>
<glyph d="M306 -18c-173 0 -275 123 -275 273c0 151 102 272 275 272s275 -121 275 -272c0 -150 -102 -273 -275 -273zM306 143c62 0 91 51 91 112s-29 111 -91 111s-90 -50 -90 -111s28 -112 90 -112zM153 604v132h309v-132h-309z" glyph-name="omacron" horiz-adv-x="612" unicode="ō"/>
<glyph d="M171 0v548l-14 -11h-146v78l204 135h159v-750h-203z" glyph-name="one" horiz-adv-x="448" unicode="1"/>
<glyph d="M166 0v307l-17 -10h-128v78l188 133h141v-508h-184z" glyph-name="one.old" horiz-adv-x="417"/>
<glyph d="M530 0h-432v149h135v158l-17 -10h-128v78l188 133h141v-359h113v-149z" glyph-name="one.oldtab" horiz-adv-x="600"/>
<glyph d="M584 0h-483v151h145v397l-14 -11h-146v78l204 135h159v-599h135v-151z" glyph-name="one.tab" horiz-adv-x="650"/>
<glyph d="M219 -40l469 830h184l-469 -830h-184zM325 283h-166v288l-7 -6h-126v75l176 127h123v-484zM899 -25c-128 0 -201 67 -201 152c0 40 18 83 68 109c-41 18 -55 61 -55 93c0 80 68 142 188 142c119 0 187 -62 187 -142c0 -42 -22 -80 -54 -93c49 -25 69 -69 69 -109 c0 -85 -73 -152 -202 -152zM899 278c27 0 41 18 41 40c0 20 -14 37 -41 37s-41 -17 -41 -37c0 -22 13 -40 41 -40zM899 93c29 0 43 19 43 42c0 22 -14 40 -43 40c-28 0 -43 -18 -43 -40c0 -23 14 -42 43 -42z" glyph-name="oneeighth" horiz-adv-x="1135" unicode="⅛"/>
<glyph d="M219 -40l469 830h184l-469 -830h-184zM159 283v288l-7 -6h-126v75l176 127h123v-484h-166zM1064 0h-390v117l168 113c22 16 41 35 41 56c0 25 -15 37 -41 37c-29 0 -44 -22 -46 -40h-123v46c12 64 67 134 181 134c119 0 191 -58 191 -145c0 -75 -37 -121 -106 -168 l-14 -12h139v-138z" glyph-name="onehalf" horiz-adv-x="1100" unicode="½"/>
<glyph d="M219 -40l469 830h184l-469 -830h-184zM325 283h-166v288l-7 -6h-126v75l176 127h123v-484zM1067 58h-64v-95h-158v95h-218v100l225 289h151v-277h64v-112zM845 170v86l-64 -86h64z" glyph-name="onequarter" horiz-adv-x="1099" unicode="¼"/>
<glyph d="M219 -40l469 830h184l-469 -830h-184zM159 283v288l-7 -6h-126v75l176 127h123v-484h-166zM901 -23c-113 0 -190 58 -202 117v52h139c6 -21 26 -47 61 -47s50 15 50 40c0 19 -16 33 -53 33h-53v105h44c32 0 47 14 47 33c0 23 -17 36 -44 36c-30 0 -43 -22 -47 -43h-137 v53c10 52 73 111 195 111c112 0 197 -48 197 -130c0 -48 -25 -86 -68 -104c52 -13 83 -53 83 -107c0 -88 -81 -149 -212 -149z" glyph-name="onethird" horiz-adv-x="1147" unicode="⅓"/>
<glyph d="M177 297c-96 0 -144 61 -144 136c0 85 67 141 198 141c38 0 67 -6 67 -6v9c0 35 -20 53 -56 53c-45 0 -57 -30 -57 -30h-128v60s35 100 188 100c146 0 214 -64 214 -188v-259h-151l-7 49c-21 -36 -58 -65 -124 -65zM237 416c36 0 61 31 61 55v12s-22 3 -53 3 c-38 0 -52 -17 -52 -37c0 -22 16 -33 44 -33z" glyph-name="ordfeminine" horiz-adv-x="513" unicode="ª"/>
<glyph d="M263 302c-148 0 -235 104 -235 230s87 228 235 228c147 0 236 -102 236 -228s-89 -230 -236 -230zM263 438c52 0 76 42 76 94s-24 92 -76 92c-53 0 -75 -40 -75 -92s22 -94 75 -94z" glyph-name="ordmasculine" horiz-adv-x="527" unicode="º"/>
<glyph d="M306 -18c-40 0 -77 6 -109 18l-40 -59h-117l74 111c-54 50 -83 123 -83 203c0 151 102 272 275 272c41 0 78 -7 111 -20l35 53h116l-68 -104c53 -49 81 -121 81 -201c0 -150 -102 -273 -275 -273zM205 258c0 -20 0 -39 9 -55l112 168c-6 2 -13 2 -21 2 c-63 0 -100 -53 -100 -115zM305 130c64 0 101 60 101 128c0 16 -2 31 -8 44l-113 -169c6 -2 12 -3 20 -3z" glyph-name="oslash" horiz-adv-x="612" unicode="ø"/>
<glyph d="M306 -18c-40 0 -77 6 -109 18l-40 -59h-117l74 111c-54 50 -83 123 -83 203c0 151 102 272 275 272c41 0 78 -7 111 -20l35 53h116l-68 -104c53 -49 81 -121 81 -201c0 -150 -102 -273 -275 -273zM205 258c0 -20 0 -39 9 -55l112 168c-6 2 -13 2 -21 2 c-63 0 -100 -53 -100 -115zM305 130c64 0 101 60 101 128c0 16 -2 31 -8 44l-113 -169c6 -2 12 -3 20 -3zM233 594v60l66 96h179v-60l-100 -96h-145z" glyph-name="oslashacute" horiz-adv-x="612" unicode="ǿ"/>
<glyph d="M390 593c-70 0 -81 38 -131 38c-21 0 -31 -15 -35 -33h-112c-9 88 33 156 112 156c72 0 80 -37 128 -37c17 0 30 9 34 32h112c9 -89 -24 -156 -108 -156zM306 -18c-173 0 -275 123 -275 273c0 151 102 272 275 272s275 -121 275 -272c0 -150 -102 -273 -275 -273z M306 143c62 0 91 51 91 112s-29 111 -91 111s-90 -50 -90 -111s28 -112 90 -112z" glyph-name="otilde" horiz-adv-x="612" unicode="õ"/>
<glyph d="M56 -250v758h175l7 -68c30 52 91 87 163 87c140 0 219 -121 219 -271c0 -156 -88 -274 -219 -274c-71 0 -126 28 -160 80v-312h-185zM337 151c61 0 98 45 98 105c0 57 -37 101 -97 101c-57 0 -97 -42 -97 -102s40 -104 96 -104z" glyph-name="p" horiz-adv-x="653" unicode="p"/>
<glyph d="M278 -147v446h-20c-137 0 -232 83 -232 224c0 133 76 227 247 227h402v-897h-166v722h-65v-722h-166z" glyph-name="paragraph" horiz-adv-x="758" unicode="¶"/>
<glyph d="M367 -230c-212 55 -334 234 -334 498s122 443 334 498v-149c-108 -37 -148 -197 -148 -349s40 -312 148 -349v-149z" glyph-name="parenleft" horiz-adv-x="393" unicode="("/>
<glyph d="M367 -230c-212 55 -334 234 -334 498s122 443 334 498v-149c-108 -37 -148 -197 -148 -349s40 -312 148 -349v-149z" glyph-name="parenleft.old" horiz-adv-x="393"/>
<glyph d="M470 -230c-212 55 -334 234 -334 498s122 443 334 498v-149c-108 -37 -148 -197 -148 -349s40 -312 148 -349v-149z" glyph-name="parenleft.oldtab" horiz-adv-x="600"/>
<glyph d="M495 -218c-211 55 -333 232 -333 494c0 261 122 438 333 493v-149c-108 -37 -147 -195 -147 -344c0 -150 39 -308 147 -344v-150z" glyph-name="parenleft.tab" horiz-adv-x="650"/>
<glyph d="M371 -148c-212 54 -334 232 -334 494c0 263 122 441 334 495v-149c-108 -36 -148 -195 -148 -346c0 -150 40 -309 148 -345v-149z" glyph-name="parenleft.uc" horiz-adv-x="404"/>
<glyph d="M26 -230v149c108 37 147 197 147 349s-39 312 -147 349v149c211 -55 333 -234 333 -498s-122 -443 -333 -498z" glyph-name="parenright" horiz-adv-x="392" unicode=")"/>
<glyph d="M26 -230v149c108 37 147 197 147 349s-39 312 -147 349v149c211 -55 333 -234 333 -498s-122 -443 -333 -498z" glyph-name="parenright.old" horiz-adv-x="392"/>
<glyph d="M130 -230v149c108 37 147 197 147 349s-39 312 -147 349v149c211 -55 333 -234 333 -498s-122 -443 -333 -498z" glyph-name="parenright.oldtab" horiz-adv-x="600"/>
<glyph d="M155 -218v150c108 36 147 194 147 344c0 149 -39 307 -147 344v149c211 -55 333 -232 333 -493c0 -262 -122 -439 -333 -494z" glyph-name="parenright.tab" horiz-adv-x="650"/>
<glyph d="M33 -148v149c108 36 147 195 147 345c0 151 -39 310 -147 346v149c211 -54 334 -232 334 -495c0 -262 -123 -440 -334 -494z" glyph-name="parenright.uc" horiz-adv-x="404"/>
<glyph d="M251 326c-139 0 -223 100 -223 222c0 124 84 220 223 220c138 0 223 -97 223 -220c0 -122 -84 -222 -223 -222zM216 -26l482 788h186l-482 -788h-186zM251 469c42 0 60 36 60 79s-18 77 -60 77c-41 0 -61 -35 -61 -77c0 -43 19 -79 61 -79zM856 -18 c-140 0 -224 99 -224 221c0 124 85 221 224 221c138 0 223 -97 223 -221c0 -122 -85 -221 -223 -221zM856 125c42 0 60 36 60 78c0 43 -19 78 -60 78c-42 0 -61 -35 -61 -78c0 -42 19 -78 61 -78z" glyph-name="percent" horiz-adv-x="1107" unicode="%"/>
<glyph d="M235 246c-129 0 -206 90 -206 202s77 200 206 200c128 0 205 -89 205 -200c0 -112 -77 -202 -205 -202zM206 -18l430 648h158l-431 -648h-157zM235 381c35 0 50 30 50 67s-16 66 -50 66c-35 0 -51 -29 -51 -66s16 -67 51 -67zM777 -18c-128 0 -206 90 -206 201 c0 112 78 201 206 201s206 -89 206 -201s-78 -201 -206 -201zM777 116c35 0 50 30 50 67s-15 66 -50 66c-34 0 -50 -29 -50 -66s16 -67 50 -67z" glyph-name="percent.old" horiz-adv-x="1012"/>
<glyph d="M144 364c-91 0 -145 64 -145 143c0 80 55 141 145 141s144 -62 144 -141s-54 -143 -144 -143zM13 -14l422 644h149l-422 -644h-149zM144 456c24 0 34 23 34 51s-10 49 -34 49s-35 -22 -35 -49c0 -28 11 -51 35 -51zM451 -19c-90 0 -144 64 -144 142c0 79 54 142 144 142 s145 -63 145 -142s-54 -142 -145 -142zM451 73c25 0 35 22 35 50s-10 49 -35 49c-23 0 -34 -21 -34 -49s11 -50 34 -50z" glyph-name="percent.oldtab" horiz-adv-x="600"/>
<glyph d="M159 436c-98 0 -156 75 -156 167c0 94 58 166 156 166c97 0 156 -73 156 -166c0 -92 -59 -167 -156 -167zM18 -13l456 763h161l-457 -763h-160zM159 545c27 0 37 26 37 58c0 33 -10 57 -37 57c-26 0 -37 -25 -37 -57s11 -58 37 -58zM492 -19c-98 0 -156 74 -156 166 s58 166 156 166c96 0 155 -74 155 -166s-59 -166 -155 -166zM492 90c26 0 37 24 37 57c0 32 -11 56 -37 56s-38 -24 -38 -56c0 -33 12 -57 38 -57z" glyph-name="percent.tab" horiz-adv-x="650"/>
<glyph d="M54 0v188h188v-188h-188z" glyph-name="period" horiz-adv-x="296" unicode="."/>
<glyph d="M54 0v188h188v-188h-188z" glyph-name="period.old" horiz-adv-x="296"/>
<glyph d="M206 0v188h188v-188h-188z" glyph-name="period.oldtab" horiz-adv-x="600"/>
<glyph d="M231 0v188h188v-188h-188z" glyph-name="period.tab" horiz-adv-x="650"/>
<glyph d="M54 258v187h189v-187h-189z" glyph-name="periodcentered" horiz-adv-x="297" unicode="·"/>
<glyph d="M251 326c-139 0 -223 100 -223 222c0 124 84 220 223 220c138 0 223 -97 223 -220c0 -122 -84 -222 -223 -222zM216 -26l482 788h186l-482 -788h-186zM251 469c42 0 60 36 60 79s-18 77 -60 77c-41 0 -61 -35 -61 -77c0 -43 19 -79 61 -79zM856 -18 c-140 0 -224 99 -224 221c0 124 85 221 224 221c138 0 223 -97 223 -221c0 -122 -85 -221 -223 -221zM1331 -18c-139 0 -223 99 -223 221c0 124 84 221 223 221c138 0 223 -97 223 -221c0 -122 -84 -221 -223 -221zM856 125c42 0 60 36 60 78c0 43 -19 78 -60 78 c-42 0 -61 -35 -61 -78c0 -42 19 -78 61 -78zM1331 125c42 0 60 36 60 78c0 43 -18 78 -60 78c-41 0 -61 -35 -61 -78c0 -42 20 -78 61 -78z" glyph-name="perthousand" horiz-adv-x="1582" unicode="‰"/>
<glyph d="M235 246c-129 0 -206 90 -206 202s77 200 206 200c128 0 205 -89 205 -200c0 -112 -77 -202 -205 -202zM206 -18l430 648h158l-431 -648h-157zM235 381c35 0 50 30 50 67s-16 66 -50 66c-35 0 -51 -29 -51 -66s16 -67 51 -67zM777 -18c-128 0 -206 90 -206 201 c0 112 78 201 206 201s206 -89 206 -201s-78 -201 -206 -201zM1211 -18c-128 0 -206 90 -206 201c0 112 78 201 206 201s205 -89 205 -201s-77 -201 -205 -201zM777 116c35 0 50 30 50 67s-15 66 -50 66c-34 0 -50 -29 -50 -66s16 -67 50 -67zM1211 116c35 0 50 30 50 67 s-15 66 -50 66c-34 0 -50 -29 -50 -66s16 -67 50 -67z" glyph-name="perthousand.old" horiz-adv-x="1445"/>
<glyph d="M189 364c-91 0 -145 64 -145 143c0 80 54 141 145 141c89 0 144 -62 144 -141s-54 -143 -144 -143zM58 -14l422 644h149l-422 -644h-149zM189 456c24 0 34 23 34 51s-10 49 -34 49s-35 -22 -35 -49c0 -28 11 -51 35 -51zM496 -19c-90 0 -144 64 -144 142 c0 79 54 142 144 142s145 -63 145 -142s-55 -142 -145 -142zM797 -19c-90 0 -144 64 -144 142c0 79 54 142 144 142s145 -63 145 -142s-55 -142 -145 -142zM496 73c25 0 35 22 35 50s-10 49 -35 49c-23 0 -34 -21 -34 -49s11 -50 34 -50zM797 73c25 0 35 22 35 50 s-10 49 -35 49c-23 0 -34 -21 -34 -49s11 -50 34 -50z" glyph-name="perthousand.oldtab" horiz-adv-x="975"/>
<glyph d="M156 436c-97 0 -156 75 -156 167c0 94 59 166 156 166s157 -73 157 -166c0 -92 -59 -167 -157 -167zM12 -13l456 763h161l-456 -763h-161zM156 545c27 0 37 26 37 58c0 33 -10 57 -37 57c-26 0 -37 -25 -37 -57s11 -58 37 -58zM486 -19c-97 0 -156 74 -156 166 s59 166 156 166s156 -74 156 -166s-59 -166 -156 -166zM819 -19c-97 0 -156 74 -156 166s59 166 156 166s156 -74 156 -166s-59 -166 -156 -166zM486 90c26 0 37 24 37 57c0 32 -11 56 -37 56s-38 -24 -38 -56c0 -33 12 -57 38 -57zM819 90c26 0 37 24 37 57 c0 32 -11 56 -37 56s-38 -24 -38 -56c0 -33 12 -57 38 -57z" glyph-name="perthousand.tab" horiz-adv-x="975"/>
<glyph d="M527 229h-169v-172h-158v172h-168v148h168v172h158v-172h169v-148z" glyph-name="plus" horiz-adv-x="559" unicode="+"/>
<glyph d="M529 192h-169v-172h-158v172h-168v148h168v172h158v-172h169v-148z" glyph-name="plus.old" horiz-adv-x="563"/>
<glyph d="M547 192h-169v-172h-158v172h-168v148h168v172h158v-172h169v-148z" glyph-name="plus.oldtab" horiz-adv-x="600"/>
<glyph d="M572 229h-169v-172h-158v172h-168v148h168v172h158v-172h169v-148z" glyph-name="plus.tab" horiz-adv-x="650"/>
<glyph d="M545 341h-168v-144h-158v144h-169v149h169v144h158v-144h168v-149zM58 7v148h487v-148h-487z" glyph-name="plusminus" horiz-adv-x="595" unicode="±"/>
<glyph d="M545 317h-168v-128h-158v128h-168v148h168v128h158v-128h168v-148zM58 1v148h487v-148h-487z" glyph-name="plusminus.old" horiz-adv-x="596"/>
<glyph d="M547 317h-168v-128h-158v128h-168v148h168v128h158v-128h168v-148zM60 1v148h487v-148h-487z" glyph-name="plusminus.oldtab" horiz-adv-x="600"/>
<glyph d="M572 341h-168v-144h-158v144h-169v149h169v144h158v-144h168v-149zM85 7v148h487v-148h-487z" glyph-name="plusminus.tab" horiz-adv-x="650"/>
<glyph d="M412 -250v312c-33 -52 -89 -80 -160 -80c-135 0 -219 121 -219 271c0 153 88 274 225 274c70 0 127 -35 157 -86l7 67h175v-758h-185zM316 151c56 0 96 44 96 104s-40 102 -97 102c-60 0 -97 -44 -97 -101c0 -60 37 -105 98 -105z" glyph-name="q" horiz-adv-x="652" unicode="q"/>
<glyph d="M178 261c-6 15 -9 31 -9 45c0 126 152 132 152 228c0 34 -21 60 -58 60c-47 0 -69 -47 -69 -87h-165v78c17 85 93 183 252 183c140 0 244 -81 244 -206c0 -170 -168 -189 -168 -267c0 -17 7 -32 8 -34h-187zM178 0v188h188v-188h-188z" glyph-name="question" horiz-adv-x="554" unicode="?"/>
<glyph d="M375 349c6 -15 9 -31 9 -45c0 -126 -152 -132 -152 -228c0 -34 21 -60 58 -60c47 0 69 47 69 87h165v-78c-17 -85 -93 -183 -252 -183c-140 0 -244 81 -244 206c0 170 168 189 168 267c0 17 -7 32 -8 34h187zM375 610v-188h-188v188h188z" glyph-name="questiondown" horiz-adv-x="553" unicode="¿"/>
<glyph d="M376 489c6 -15 9 -31 9 -45c0 -126 -152 -132 -152 -228c0 -34 21 -60 58 -60c47 0 69 47 69 87h165v-78c-17 -85 -93 -183 -252 -183c-140 0 -244 81 -244 206c0 170 168 189 168 267c0 17 -7 32 -8 34h187zM376 750v-188h-188v188h188z" glyph-name="questiondown.uc" horiz-adv-x="554"/>
<glyph d="M69 425l-27 325h186l-27 -325h-132zM300 425l-27 325h186l-27 -325h-132z" glyph-name="quotedbl" horiz-adv-x="501" unicode='"'/>
<glyph d="M55 -140v328h188v-185l-67 -143h-121zM304 -140v328h188v-185l-67 -143h-121z" glyph-name="quotedblbase" horiz-adv-x="547" unicode="„"/>
<glyph d="M485 750v-328h-188v185l67 143h121zM236 750v-328h-188v185l67 143h121z" glyph-name="quotedblleft" horiz-adv-x="541" unicode="“"/>
<glyph d="M56 422v328h188v-185l-67 -143h-121zM305 422v328h188v-185l-67 -143h-121z" glyph-name="quotedblright" horiz-adv-x="533" unicode="”"/>
<glyph d="M236 750v-328h-188v185l67 143h121z" glyph-name="quoteleft" horiz-adv-x="292" unicode="‘"/>
<glyph d="M56 422v328h188v-185l-67 -143h-121z" glyph-name="quoteright" horiz-adv-x="284" unicode="’"/>
<glyph d="M55 -140v328h188v-185l-67 -143h-121z" glyph-name="quotesinglbase" horiz-adv-x="298" unicode="‚"/>
<glyph d="M69 425l-27 325h186l-27 -325h-132z" glyph-name="quotesingle" horiz-adv-x="270" unicode="'"/>
<glyph d="M56 0v508h175l7 -66c20 40 64 85 132 85c80 0 122 -49 129 -126v-77h-150c-1 0 -3 43 -49 43c-42 0 -59 -39 -59 -91v-276h-185z" glyph-name="r" horiz-adv-x="504" unicode="r"/>
<glyph d="M56 0v508h175l7 -66c20 40 64 85 132 85c80 0 122 -49 129 -126v-77h-150c-1 0 -3 43 -49 43c-42 0 -59 -39 -59 -91v-276h-185zM216 594v60l66 96h179v-60l-100 -96h-145z" glyph-name="racute" horiz-adv-x="504" unicode="ŕ"/>
<glyph d="M56 0v508h175l7 -66c20 40 64 85 132 85c80 0 122 -49 129 -126v-77h-150c-1 0 -3 43 -49 43c-42 0 -59 -39 -59 -91v-276h-185zM368 594h-190l-93 96v60h137l51 -77l50 77h136v-60z" glyph-name="rcaron" horiz-adv-x="504" unicode="ř"/>
<glyph d="M56 0v508h175l7 -66c20 40 64 85 132 85c80 0 122 -49 129 -126v-77h-150c-1 0 -3 43 -49 43c-42 0 -59 -39 -59 -91v-276h-185zM65 -205l-8 153h183v-72l-61 -81h-114z" glyph-name="rcommaaccent" horiz-adv-x="504" unicode="ŗ"/>
<glyph d="M231 -158l-156 179v675l156 179h718l156 -179v-675l-156 -179h-718zM255 -88h670l110 127v639l-110 127h-670l-110 -127v-639z" glyph-name="regframe1" unicode=""/>
<glyph d="M356 129c-173 0 -317 143 -317 325s144 325 317 325s316 -143 316 -325s-143 -325 -316 -325zM356 242c116 0 201 95 201 212s-85 212 -201 212c-117 0 -201 -95 -201 -212s84 -212 201 -212zM331 403v-96h-94v304h112c81 0 132 -40 132 -104c0 -32 -18 -58 -52 -78 l63 -89v-33h-86l-65 96h-10zM329 475h18c25 0 40 13 40 31c0 20 -15 31 -40 31h-18v-62z" glyph-name="registered" horiz-adv-x="711" unicode="®"/>
<glyph d="M210 568c-114 0 -157 44 -157 98c0 53 43 98 157 98c115 0 157 -45 157 -98c0 -54 -42 -98 -157 -98zM210 636c20 0 39 11 39 30s-19 30 -39 30s-38 -11 -38 -30s18 -30 38 -30z" glyph-name="ring" horiz-adv-x="500" unicode="˚"/>
<glyph d="M198 785c-120 0 -165 39 -165 93c0 53 45 93 165 93c121 0 166 -40 166 -93c0 -54 -45 -93 -166 -93zM198 852c25 0 47 10 47 26s-22 26 -47 26c-24 0 -47 -10 -47 -26s23 -26 47 -26z" glyph-name="ring.uc" horiz-adv-x="409"/>
<glyph d="M267 -18c-125 0 -212 52 -232 108v69h145c6 -24 41 -50 91 -50c49 0 67 16 67 38c0 23 -17 36 -58 40l-69 6c-110 10 -170 61 -170 158c0 109 88 176 223 176c123 0 193 -46 215 -107v-69h-145c-4 17 -28 49 -74 49c-39 0 -58 -16 -58 -39c0 -21 14 -34 51 -38l72 -8 c113 -12 175 -55 175 -154c0 -107 -91 -179 -233 -179z" glyph-name="s" horiz-adv-x="532" unicode="s"/>
<glyph d="M267 -18c-125 0 -212 52 -232 108v69h145c6 -24 41 -50 91 -50c49 0 67 16 67 38c0 23 -17 36 -58 40l-69 6c-110 10 -170 61 -170 158c0 109 88 176 223 176c123 0 193 -46 215 -107v-69h-145c-4 17 -28 49 -74 49c-39 0 -58 -16 -58 -39c0 -21 14 -34 51 -38l72 -8 c113 -12 175 -55 175 -154c0 -107 -91 -179 -233 -179zM186 594v60l66 96h179v-60l-100 -96h-145z" glyph-name="sacute" horiz-adv-x="532" unicode="ś"/>
<glyph d="M267 -18c-125 0 -212 52 -232 108v69h145c6 -24 41 -50 91 -50c49 0 67 16 67 38c0 23 -17 36 -58 40l-69 6c-110 10 -170 61 -170 158c0 109 88 176 223 176c123 0 193 -46 215 -107v-69h-145c-4 17 -28 49 -74 49c-39 0 -58 -16 -58 -39c0 -21 14 -34 51 -38l72 -8 c113 -12 175 -55 175 -154c0 -107 -91 -179 -233 -179zM188 594v60l28 126h179v-60l-62 -126h-145z" glyph-name="sacute.pl" horiz-adv-x="532"/>
<glyph d="M267 -18c-125 0 -212 52 -232 108v69h145c6 -24 41 -50 91 -50c49 0 67 16 67 38c0 23 -17 36 -58 40l-69 6c-110 10 -170 61 -170 158c0 109 88 176 223 176c123 0 193 -46 215 -107v-69h-145c-4 17 -28 49 -74 49c-39 0 -58 -16 -58 -39c0 -21 14 -34 51 -38l72 -8 c113 -12 175 -55 175 -154c0 -107 -91 -179 -233 -179zM360 594h-190l-93 96v60h137l51 -77l50 77h136v-60z" glyph-name="scaron" horiz-adv-x="532" unicode="š"/>
<glyph d="M441 -123c0 -77 -62 -98 -155 -107h-95v87c46 0 75 8 75 37c0 27 -34 34 -71 34v60c-86 16 -144 58 -160 102v69h145c6 -24 41 -50 91 -50c49 0 67 16 67 38c0 23 -17 36 -58 40l-69 6c-110 10 -170 61 -170 158c0 109 88 176 223 176c123 0 193 -46 215 -107v-69h-145 c-4 17 -28 49 -74 49c-39 0 -58 -16 -58 -39c0 -21 14 -34 51 -38l72 -8c113 -12 175 -55 175 -154c0 -86 -59 -150 -157 -171v-29c53 -7 98 -32 98 -84z" glyph-name="scedilla" horiz-adv-x="532" unicode="ş"/>
<glyph d="M267 -18c-125 0 -212 52 -232 108v69h145c6 -24 41 -50 91 -50c49 0 67 16 67 38c0 23 -17 36 -58 40l-69 6c-110 10 -170 61 -170 158c0 109 88 176 223 176c123 0 193 -46 215 -107v-69h-145c-4 17 -28 49 -74 49c-39 0 -58 -16 -58 -39c0 -21 14 -34 51 -38l72 -8 c113 -12 175 -55 175 -154c0 -107 -91 -179 -233 -179zM316 594l-51 77l-50 -77h-137v60l92 96h190l92 -96v-60h-136z" glyph-name="scircumflex" horiz-adv-x="532" unicode="ŝ"/>
<glyph d="M267 -18c-125 0 -212 52 -232 108v69h145c6 -24 41 -50 91 -50c49 0 67 16 67 38c0 23 -17 36 -58 40l-69 6c-110 10 -170 61 -170 158c0 109 88 176 223 176c123 0 193 -46 215 -107v-69h-145c-4 17 -28 49 -74 49c-39 0 -58 -16 -58 -39c0 -21 14 -34 51 -38l72 -8 c113 -12 175 -55 175 -154c0 -107 -91 -179 -233 -179zM181 -205l-8 153h196v-72l-65 -81h-123z" glyph-name="scommaaccent" horiz-adv-x="532" unicode="ș"/>
<glyph d="M47 423l24 327h188l-80 -327h-132zM279 423l24 327h188l-80 -327h-132z" glyph-name="second" horiz-adv-x="509" unicode="″"/>
<glyph d="M294 -127c-143 0 -223 80 -237 152v78h165c0 -25 23 -55 75 -55c42 0 61 17 61 41c0 23 -16 34 -61 41l-75 11c-112 15 -178 66 -178 165c0 47 21 93 57 119c-30 32 -48 73 -48 128c0 135 101 215 253 215c143 0 223 -79 236 -151v-79h-164c0 26 -23 56 -72 56 c-41 0 -64 -17 -64 -41s16 -34 61 -41l75 -11c112 -15 178 -75 178 -165c0 -48 -21 -94 -58 -120c31 -30 49 -73 49 -129c0 -130 -94 -214 -253 -214zM304 286l63 -8c6 7 10 16 10 27c0 26 -20 40 -70 48l-15 3l-59 8c-7 -7 -10 -16 -10 -27c0 -25 18 -39 64 -47 c2 -1 15 -4 17 -4z" glyph-name="section" horiz-adv-x="600" unicode="§"/>
<glyph d="M54 321v187h188v-187h-188zM54 -174v362h188v-185l-67 -177h-121z" glyph-name="semicolon" horiz-adv-x="296" unicode=";"/>
<glyph d="M54 321v187h188v-187h-188zM54 -174v362h188v-185l-67 -177h-121z" glyph-name="semicolon.old" horiz-adv-x="296"/>
<glyph d="M206 321v187h188v-187h-188zM206 -174v362h188v-185l-67 -177h-121z" glyph-name="semicolon.oldtab" horiz-adv-x="600"/>
<glyph d="M231 321v187h188v-187h-188zM231 -174v362h188v-185l-67 -177h-121z" glyph-name="semicolon.tab" horiz-adv-x="650"/>
<glyph d="M88 -10v75c56 136 133 325 209 509h-273v176h479v-166c-76 -191 -169 -431 -234 -594h-181z" glyph-name="seven" horiz-adv-x="527" unicode="7"/>
<glyph d="M249 -252h-173v75l205 519h-261v166h453v-156z" glyph-name="seven.old" horiz-adv-x="493"/>
<glyph d="M301 -252h-172v75l213 519h-278v166h472v-156z" glyph-name="seven.oldtab" horiz-adv-x="600"/>
<glyph d="M150 -10v75c56 136 133 325 209 509h-273v176h479v-166c-76 -191 -169 -431 -234 -594h-181z" glyph-name="seven.tab" horiz-adv-x="650"/>
<glyph d="M192 -40l469 830h184l-469 -830h-184zM239 291h-146v60l128 258h-192v141h365v-130zM872 -25c-128 0 -201 67 -201 152c0 40 18 83 68 109c-42 18 -55 61 -55 93c0 80 68 142 188 142c119 0 186 -62 186 -142c0 -42 -21 -80 -53 -93c49 -25 69 -69 69 -109 c0 -85 -74 -152 -202 -152zM872 278c27 0 41 18 41 40c0 20 -14 37 -41 37c-28 0 -41 -17 -41 -37c0 -22 13 -40 41 -40zM872 93c29 0 43 19 43 42c0 22 -15 40 -43 40c-29 0 -43 -18 -43 -40c0 -23 14 -42 43 -42z" glyph-name="seveneighths" horiz-adv-x="1104" unicode="⅞"/>
<glyph d="M324 -18c-185 0 -290 123 -290 269c0 125 55 219 155 340l141 169h179v-68l-78 -86c-33 -39 -66 -74 -89 -99c4 2 9 3 15 3c161 -8 258 -108 258 -252c0 -154 -110 -276 -291 -276zM325 157c61 0 96 41 96 96s-34 96 -97 96c-62 0 -96 -41 -96 -96s34 -96 97 -96z" glyph-name="six" horiz-adv-x="636" unicode="6"/>
<glyph d="M316 -18c-180 0 -281 119 -281 267c0 121 51 216 155 342l141 169h169v-68l-78 -86c-44 -49 -86 -95 -106 -117c18 2 37 3 56 1c142 -16 226 -109 226 -241c0 -149 -107 -267 -282 -267zM317 146c61 0 96 43 96 98c0 54 -34 97 -97 97c-62 0 -97 -43 -97 -97 c0 -55 35 -98 98 -98z" glyph-name="six.old" horiz-adv-x="619"/>
<glyph d="M306 -18c-180 0 -281 119 -281 267c0 121 51 216 155 342l141 169h169v-68l-78 -86c-44 -49 -86 -95 -106 -117c18 2 37 3 56 1c142 -16 226 -109 226 -241c0 -149 -107 -267 -282 -267zM307 146c61 0 96 43 96 98c0 54 -34 97 -97 97c-62 0 -97 -43 -97 -97 c0 -55 35 -98 98 -98z" glyph-name="six.oldtab" horiz-adv-x="600"/>
<glyph d="M331 -18c-186 0 -292 123 -292 269c0 125 55 219 157 340l143 169h179v-68l-80 -86c-34 -38 -68 -74 -91 -99c13 1 27 2 42 1c147 -17 235 -114 235 -250c0 -154 -112 -276 -293 -276zM332 157c62 0 97 41 97 96s-34 96 -98 96c-63 0 -98 -41 -98 -96s35 -96 99 -96z" glyph-name="six.tab" horiz-adv-x="650"/>
<glyph d="M20 -250l394 1069h195l-394 -1069h-195z" glyph-name="slash" horiz-adv-x="629" unicode="/"/>
<glyph d="M22 -188l394 1062h195l-394 -1062h-195z" glyph-name="slash.uc" horiz-adv-x="631"/>
<glyph glyph-name="space" horiz-adv-x="214" unicode=" "/>
<glyph glyph-name="space.old" horiz-adv-x="214"/>
<glyph glyph-name="space.oldtab" horiz-adv-x="600"/>
<glyph glyph-name="space.tab" horiz-adv-x="650"/>
<glyph d="M578 151v-151h-530v151c53 21 92 70 101 137v4h-100v132h70c-13 31 -25 66 -25 117c0 137 97 227 251 227c197 0 236 -141 236 -141v-70h-148s-11 50 -74 50c-49 0 -77 -31 -77 -77c0 -52 12 -80 24 -106h183v-132h-158v-4c-6 -66 -32 -116 -77 -137h324z" glyph-name="sterling" horiz-adv-x="622" unicode="£"/>
<glyph d="M511 142v-142h-461v142c42 18 75 50 85 94h-84v132h56c-9 22 -16 48 -16 83c0 117 85 194 223 194c174 0 210 -122 210 -122v-61h-135s-10 45 -64 45c-42 0 -66 -25 -66 -66c0 -35 8 -55 16 -73h161v-132h-137c-7 -44 -29 -78 -65 -94h277z" glyph-name="sterling.old" horiz-adv-x="565"/>
<glyph d="M529 142v-142h-461v142c42 18 75 50 85 94h-84v132h56c-9 22 -16 48 -16 83c0 117 85 194 223 194c174 0 210 -122 210 -122v-61h-135s-10 45 -64 45c-42 0 -66 -25 -66 -66c0 -35 8 -55 16 -73h161v-132h-137c-7 -44 -29 -78 -65 -94h277z" glyph-name="sterling.oldtab" horiz-adv-x="600"/>
<glyph d="M592 151v-151h-530v151c53 21 92 70 101 137v4h-100v132h70c-13 31 -25 66 -25 117c0 137 97 227 251 227c197 0 236 -141 236 -141v-70h-148s-11 50 -74 50c-49 0 -77 -31 -77 -77c0 -52 12 -80 24 -106h183v-132h-158v-4c-6 -66 -32 -116 -77 -137h324z" glyph-name="sterling.tab" horiz-adv-x="650"/>
<glyph d="M926 202h-214l-122 -202l-122 202h-214l108 176l-108 178h217l119 194l119 -194h217l-108 -178zM546 556h88l-44 72zM365 496l34 -57l35 57h-69zM506 262h168l70 116l-73 118h-162l-73 -119zM746 496l35 -57l34 57h-69zM748 262h67l-34 54zM365 262h67l-33 54zM542 202 l48 -79l47 79h-95z" glyph-name="synagogue"/>
<glyph d="M297 -18c-127 0 -205 81 -205 205v173h-71v148h72l9 130h175v-130h203v-148h-203v-171c0 -43 14 -55 40 -55c23 0 33 15 33 33h137v-69c-25 -71 -87 -116 -190 -116z" glyph-name="t" horiz-adv-x="504" unicode="t"/>
<glyph d="M489 98c-25 -71 -87 -116 -190 -116c-127 0 -205 81 -205 205v35h-72v98h72v40h-71v148h72l9 130h175v-130h203v-148h-203v-40h202v-98h-202v-33c0 -43 14 -55 40 -55c23 0 33 15 33 33h137v-69z" glyph-name="tbar" horiz-adv-x="507" unicode="ŧ"/>
<glyph d="M369 552l-9 198h177v-97l-49 -101h-119zM297 -18c-127 0 -205 81 -205 205v173h-71v148h72l9 130h175v-130h203v-148h-203v-171c0 -43 14 -55 40 -55c23 0 33 15 33 33h137v-69c-25 -71 -87 -116 -190 -116z" glyph-name="tcaron" horiz-adv-x="504" unicode="ť"/>
<glyph d="M205 -205l-8 153h196v-72l-65 -81h-123zM297 -18c-127 0 -205 81 -205 205v173h-71v148h72l9 130h175v-130h203v-148h-203v-171c0 -43 14 -55 40 -55c23 0 33 15 33 33h137v-69c-25 -71 -87 -116 -190 -116z" glyph-name="tcommaaccent" horiz-adv-x="504" unicode="ţ"/>
<glyph glyph-name="thinspace" horiz-adv-x="94" unicode=" "/>
<glyph d="M56 -250v1000h185l-3 -310c30 52 91 87 163 87c140 0 219 -121 219 -271c0 -156 -88 -274 -219 -274c-71 0 -126 28 -160 80v-312h-185zM337 151c61 0 98 45 98 105c0 57 -37 101 -97 101c-57 0 -97 -42 -97 -102s40 -104 96 -104z" glyph-name="thorn" horiz-adv-x="653" unicode="þ"/>
<glyph d="M316 -18c-156 0 -261 95 -279 189v79h164c12 -41 50 -92 113 -92c56 0 83 30 83 76c0 42 -28 70 -89 70h-85v149h68c55 0 82 30 82 71c0 44 -29 70 -72 70c-57 0 -84 -44 -90 -86h-163v79c16 84 99 181 267 181c150 0 261 -81 261 -208c0 -76 -40 -139 -109 -167 c83 -21 133 -85 133 -173c0 -140 -109 -238 -284 -238z" glyph-name="three" horiz-adv-x="638" unicode="3"/>
<glyph d="M286 -260c-147 0 -236 93 -254 184v78h154c10 -45 39 -96 101 -96c46 0 77 35 77 85c0 48 -32 79 -92 79h-61v149h55c49 0 74 30 74 71c0 45 -24 72 -64 72c-57 0 -76 -48 -79 -90h-154v77c16 85 95 178 248 178c136 0 234 -81 234 -209c0 -72 -40 -131 -109 -159 c83 -21 133 -87 133 -178c0 -141 -99 -241 -263 -241z" glyph-name="three.old" horiz-adv-x="583"/>
<glyph d="M294 -260c-147 0 -235 93 -253 184v78h154c10 -45 39 -96 100 -96c46 0 78 35 78 85c0 48 -32 79 -93 79h-61v149h55c50 0 74 30 74 71c0 45 -23 72 -63 72c-57 0 -77 -48 -80 -90h-153v77c16 85 95 178 248 178c135 0 233 -81 233 -209c0 -72 -40 -131 -108 -159 c83 -21 132 -87 132 -178c0 -141 -98 -241 -263 -241z" glyph-name="three.oldtab" horiz-adv-x="600"/>
<glyph d="M324 -18c-159 0 -263 95 -282 189v79h165c12 -41 50 -92 114 -92c56 0 83 30 83 76c0 42 -28 70 -89 70h-85v149h69c54 0 81 30 81 71c0 44 -29 70 -72 70c-58 0 -85 -44 -91 -86h-164v79c16 84 100 181 269 181c150 0 261 -81 261 -208c0 -76 -40 -139 -109 -167 c83 -21 133 -85 133 -173c0 -140 -109 -238 -283 -238z" glyph-name="three.tab" horiz-adv-x="650"/>
<glyph d="M272 -40l469 830h184l-469 -830h-184zM235 278c-114 0 -191 58 -202 117v52h138c6 -22 26 -47 62 -47c34 0 49 15 49 40c0 19 -16 32 -53 32h-53v106h44c32 0 47 14 47 33c0 23 -17 36 -44 36c-30 0 -43 -22 -46 -43h-138v53c10 52 73 111 195 111 c112 0 197 -48 197 -131c0 -47 -25 -85 -67 -103c52 -13 82 -53 82 -107c0 -88 -81 -149 -211 -149zM952 -25c-128 0 -201 67 -201 152c0 40 18 83 68 109c-42 18 -55 61 -55 93c0 80 68 142 188 142c119 0 186 -62 186 -142c0 -42 -21 -80 -53 -93c49 -25 69 -69 69 -109 c0 -85 -74 -152 -202 -152zM952 278c27 0 41 18 41 40c0 20 -14 37 -41 37c-28 0 -41 -17 -41 -37c0 -22 13 -40 41 -40zM952 93c29 0 43 19 43 42c0 22 -15 40 -43 40c-29 0 -43 -18 -43 -40c0 -23 14 -42 43 -42z" glyph-name="threeeighths" horiz-adv-x="1183" unicode="⅜"/>
<glyph d="M272 -40l469 830h184l-469 -830h-184zM235 278c-114 0 -191 58 -202 117v52h138c6 -22 26 -47 62 -47c34 0 49 15 49 40c0 19 -16 32 -53 32h-53v106h44c32 0 47 14 47 33c0 23 -17 36 -44 36c-30 0 -43 -22 -46 -43h-138v53c10 52 73 111 195 111 c112 0 197 -48 197 -131c0 -47 -25 -85 -67 -103c52 -13 82 -53 82 -107c0 -88 -81 -149 -211 -149zM1120 58h-64v-95h-158v95h-218v100l225 289h151v-277h64v-112zM898 170v86l-64 -86h64z" glyph-name="threequarters" horiz-adv-x="1148" unicode="¾"/>
<glyph d="M345 593c-70 0 -81 38 -131 38c-21 0 -31 -15 -35 -33h-112c-9 88 33 156 112 156c72 0 80 -37 128 -37c17 0 30 9 34 32h112c9 -89 -24 -156 -108 -156z" glyph-name="tilde" horiz-adv-x="453" unicode="˜"/>
<glyph d="M345 791c-56 0 -83 29 -123 29c-21 0 -31 -10 -35 -24h-120c-9 87 33 156 112 156c58 0 81 -29 120 -29c16 0 30 7 34 24h120c9 -90 -24 -156 -108 -156z" glyph-name="tilde.uc" horiz-adv-x="453"/>
<glyph d="M619 408l-50 122v-155h-156v375h191l68 -152l66 152h190v-375h-159v158l-52 -125h-98zM125 375v218h-88v157h348v-157h-90v-218h-170z" glyph-name="trademark" horiz-adv-x="991" unicode="™"/>
<glyph d="M566 0h-519v166l226 216c46 44 79 92 79 142c0 45 -26 70 -63 70c-52 0 -76 -46 -82 -87h-164v78c16 85 96 183 260 183c145 0 252 -81 252 -210c0 -111 -41 -165 -146 -271l-100 -102h257v-185z" glyph-name="two" horiz-adv-x="610" unicode="2"/>
<glyph d="M504 0h-457v136c12 9 205 111 211 116c29 18 52 41 52 67c0 29 -19 45 -53 45c-37 0 -58 -27 -62 -51h-151v58c14 73 86 156 227 156c129 0 221 -63 221 -169c0 -86 -47 -138 -140 -189c-4 -3 -26 -16 -32 -20h184v-149z" glyph-name="two.old" horiz-adv-x="548"/>
<glyph d="M532 0h-460v136l207 112c35 22 59 43 59 71c0 29 -19 45 -54 45c-39 0 -60 -27 -64 -51h-151v58c14 73 86 156 229 156c130 0 222 -64 222 -170c0 -87 -50 -139 -144 -190l-31 -18h187v-149z" glyph-name="two.oldtab" horiz-adv-x="600"/>
<glyph d="M589 0h-524v166l226 213c49 46 84 94 84 144c0 46 -28 71 -65 71c-55 0 -78 -46 -84 -87h-165v78c16 85 96 183 263 183c146 0 254 -81 254 -210c0 -113 -42 -167 -150 -274l-100 -99h261v-185z" glyph-name="two.tab" horiz-adv-x="650"/>
<glyph d="M292 -40l469 830h185l-469 -830h-185zM429 305h-390v118l169 112c21 16 41 35 41 56c0 25 -15 37 -41 37c-29 0 -44 -22 -47 -40h-122v46c11 64 66 134 180 134c120 0 192 -58 192 -145c0 -75 -38 -121 -107 -168l-13 -12h138v-138zM975 -23c-113 0 -190 58 -202 117v52 h139c6 -21 26 -47 61 -47c34 0 49 15 49 40c0 19 -16 33 -53 33h-52v105h43c32 0 48 14 48 33c0 23 -18 36 -44 36c-30 0 -44 -22 -47 -43h-138v53c10 52 73 111 195 111c112 0 197 -48 197 -130c0 -48 -25 -86 -67 -104c52 -13 82 -53 82 -107c0 -88 -80 -149 -211 -149z " glyph-name="twothirds" horiz-adv-x="1215" unicode="⅔"/>
<glyph d="M227 -18c-131 0 -176 97 -176 203v323h185v-281c0 -45 15 -77 58 -77c54 0 72 42 72 81v277h185v-508h-175l-7 67c-21 -40 -69 -85 -142 -85z" glyph-name="u" horiz-adv-x="607" unicode="u"/>
<glyph d="M639 0l23 332l-53 23l37 255l55 76h33l16 -324l-22 -30l23 -332h-112zM439 0l23 398l-44 39v243h36v-159h21v159h36v-158h20v158h35v-242l-42 -40l23 -398h-108z" glyph-name="u1F374" unicode="🍴"/>
<glyph d="M298 138v45h40v45h30v235h-70v45l292 170l293 -170v-45h-70v-235h30v-45h40v-45h40v-45h-665v45h40zM468 228v235h-55v-235h55zM568 228v235h-55v-235h55zM668 228v235h-55v-235h55zM768 228v235h-55v-235h55z" glyph-name="u1F3DB" unicode="🏛"/>
<glyph d="M227 190v320h726v-320h-726zM272 235h636v230h-636v-230zM390 268c-49 0 -83 38 -83 82c0 45 34 83 83 83s82 -38 82 -83c0 -44 -33 -82 -82 -82zM591 268c-49 0 -83 37 -83 82c0 46 33 83 83 83s82 -38 82 -83c0 -44 -33 -82 -82 -82zM791 267c-48 0 -82 39 -82 83 s34 83 82 83c50 0 82 -39 82 -83s-32 -83 -82 -83zM585 288h12v13c16 2 27 12 27 26c0 15 -6 23 -27 31v31c7 -1 11 -6 13 -11h11v10c-4 6 -11 13 -24 15v11h-12v-12c-16 -3 -25 -13 -25 -27s8 -23 25 -28v-35c-9 3 -14 8 -16 14h-10v-10c3 -7 12 -14 26 -15v-13zM794 300 c28 0 37 17 37 17v9h-10s-5 -14 -26 -14c-16 0 -27 10 -32 22h37l5 13h-45v8h50l6 14h-52c5 13 15 21 31 21c21 0 25 -13 25 -13h11v9s-9 16 -37 16c-24 0 -40 -14 -46 -33h-10l-6 -14h12v-8h-6l-6 -13h15c6 -20 22 -34 47 -34zM368 301h15v16h31v12h-31v8h12 c23 0 34 15 34 33s-13 30 -34 30h-27v-51h-17v-12h17v-8h-17v-12h17v-16zM585 363c-8 3 -11 6 -11 13s3 12 11 13v-26zM383 349v39h11c14 0 21 -9 21 -19c0 -12 -8 -20 -21 -20h-11zM597 312v30c9 -3 14 -7 14 -15c0 -6 -5 -12 -14 -15z" glyph-name="u1F4B1" unicode="💱"/>
<glyph d="M277 140v420h626v-420h-626zM322 515v-59h536v59h-536zM322 185h536v181h-536v-181zM503 268h145v-40h-145v40zM356 268h105v-40h-105v40z" glyph-name="u1F4B3" unicode="💳"/>
<glyph d="M441 80v591h298v-591h-298zM541 601h98v25h-98v-25zM481 201h218v357h-218v-357zM590 110c17 0 31 14 31 31c0 16 -15 30 -31 30s-31 -14 -31 -30c0 -17 14 -31 31 -31z" glyph-name="u1F4F1" unicode="📱"/>
<glyph d="M590 877c138 0 261 -51 352 -136c102 -96 163 -236 163 -381s-61 -285 -163 -381c-91 -85 -214 -136 -352 -136s-261 51 -352 136c-102 96 -163 236 -163 381s61 285 163 381c91 85 214 136 352 136zM739 670v-409l193 -193c64 76 103 178 103 292 c0 132 -52 247 -134 326c-81 78 -194 121 -311 121c-108 0 -213 -37 -293 -104l144 -144v111h298zM590 -87c109 0 214 37 294 105l-635 636c-64 -77 -104 -179 -104 -294c0 -132 52 -247 134 -326c81 -78 194 -121 311 -121zM639 601v25h-98v-25h98zM481 558v-39l218 -218 v257h-218zM441 384l40 -40v-143h143l115 -115v-6h-298v304zM621 141c0 16 -15 30 -31 30s-31 -14 -31 -30c0 -17 14 -31 31 -31s31 14 31 31z" glyph-name="u1F4F5" unicode="📵"/>
<glyph d="M266 149v381h91v98h205v-98h352v-381h-648zM695 553v45h145v-45h-145zM407 529h107v57h-107v-57zM596 199c78 0 141 63 141 141c0 77 -64 140 -141 140s-140 -63 -140 -140s63 -141 140 -141zM596 229c-60 0 -110 51 -110 111s50 110 110 110s110 -50 110 -110 c0 -61 -49 -111 -110 -111z" glyph-name="u1F4F7" unicode="📷"/>
<glyph d="M507 101v130l-56 82h-136l-51 -78h-52l35 112l-35 112h52l50 -78h138l129 75v92h45v-92h161l114 -132v-92l-40 -38h-57v-93h-297zM274 503v45h272v-45h-272zM661 503v45h297v-45h-297zM709 309h146l-94 109h-52v-109zM552 146h207v47h-207v-47z" glyph-name="u1F681" unicode="🚁"/>
<glyph d="M327 60v400c0 160 100 274 263 274s263 -114 263 -274v-400h-50l-114 134v32h70v370l-169 13l-169 -13v-370h70v-32l-114 -134h-50zM515 568v19h149v-19h-149zM536 263v283l54 2l54 -2v-283h-108zM450 413v126l61 5v-131h-61zM669 413v131l61 -5v-126h-61zM556 282h68 v131h-68v-131zM475 267c-17 0 -29 14 -29 28c0 15 12 27 29 27c16 0 29 -12 29 -27c0 -14 -13 -28 -29 -28zM705 267c-16 0 -29 14 -29 28c0 15 13 27 29 27c17 0 29 -12 29 -27c0 -14 -12 -28 -29 -28zM539 191v20h102v-20h-102zM488 131l26 37h150l26 -37h-202zM437 59 l35 49h234l35 -49h-304z" glyph-name="u1F687" unicode="🚇"/>
<glyph d="M779 40l-41 48h-299l-41 -48h-64l138 162v39h-85v447l201 17l204 -17v-447h-84v-39l138 -162h-67zM747 649l-135 11v-193h135v182zM567 467v193l-135 -11v-182h135zM727 291c21 0 36 16 36 34s-15 33 -36 33c-19 0 -35 -15 -35 -33s16 -34 35 -34zM452 358 c-20 0 -35 -15 -35 -33s15 -34 35 -34s35 16 35 34s-15 33 -35 33zM650 199v24h-121v-24h121zM472 126h234l-30 35h-174z" glyph-name="u1F688" unicode="🚈"/>
<glyph d="M418 173c0 49 -38 77 -80 77c-43 0 -81 -27 -81 -77h-45v201l65 203h682v-404h-46c0 49 -38 77 -80 77c-43 0 -81 -27 -81 -77h-334zM257 297h76l31 83v153h-56l-51 -156v-80zM409 533v-153h65v153h-65zM519 533v-153h65v153h-65zM629 533v-153h65v153h-65zM739 533v-153 h65v153h-65zM914 533h-65v-153h65v153zM338 224c27 0 56 -20 56 -56c0 -37 -29 -57 -56 -57c-30 0 -57 20 -57 57c0 36 27 56 57 56zM833 224c27 0 56 -20 56 -56c0 -37 -29 -57 -56 -57c-30 0 -57 20 -57 57c0 36 27 56 57 56z" glyph-name="u1F68C" unicode="🚌"/>
<glyph d="M325 39v637h530v-637h-115v81h-300v-81h-115zM460 566h259v60h-259v-60zM385 316h410v200h-410v-200zM385 206h115v55h-115v-55zM680 206h115v55h-115v-55z" glyph-name="u1F68D" unicode="🚍"/>
<glyph d="M428 213c0 49 -38 77 -80 77c-43 0 -81 -27 -81 -77h-65v180l99 164h658v-344h-56c0 49 -38 77 -80 77c-43 0 -81 -27 -81 -77h-314zM278 420h156v93h-105zM479 420h115v93h-115v-93zM639 420h115v93h-115v-93zM914 513h-115v-93h115v93zM348 264c27 0 56 -20 56 -56 c0 -37 -29 -57 -56 -57c-30 0 -57 20 -57 57c0 36 27 56 57 56zM823 264c27 0 56 -20 56 -56c0 -37 -29 -57 -56 -57c-30 0 -57 20 -57 57c0 36 27 56 57 56z" glyph-name="u1F690" unicode="🚐"/>
<glyph d="M508 684h-35v-105h-32v105h-35v26h102v-26zM707 579l-28 45l-30 -45h-23v15l36 52l-34 49v15h27l26 -42l28 42h23v-14l-33 -49l34 -52v-16h-26zM751 579v131h31v-131h-31zM598 579l-12 28h-50l-11 -28h-24v13l45 118h31l45 -116v-15h-24zM544 630h33l-16 46zM426 193 c0 49 -38 77 -80 77c-43 0 -81 -27 -81 -77h-65v146l156 60l167 138h282l94 -137l62 -34l19 -173h-69c0 49 -38 77 -80 77c-43 0 -81 -27 -81 -77h-324zM769 493h-222l-113 -93h400zM346 244c27 0 56 -20 56 -56c0 -37 -29 -57 -56 -57c-30 0 -57 20 -57 57 c0 36 27 56 57 56zM831 244c27 0 56 -20 56 -56c0 -37 -29 -57 -56 -57c-30 0 -57 20 -57 57c0 36 27 56 57 56z" glyph-name="u1F695" unicode="🚕"/>
<glyph d="M495 694h-35v-105h-32v105h-35v26h102v-26zM694 589l-28 45l-30 -45h-23v15l36 52l-34 49v15h27l26 -42l28 42h23v-14l-33 -49l34 -52v-16h-26zM738 589v131h31v-131h-31zM585 589l-12 28h-50l-11 -28h-24v13l45 118h31l45 -116v-15h-24zM531 640h33l-16 46zM289 87v60 l-38 18v130l182 244h319l182 -244v-130l-38 -18v-60h-120v60h-367v-60h-120zM723 495h-261l-71 -99h406zM367 285h-76v-63h76v63zM477 285h-76v-63h76v63zM784 285h-76v-63h76v63zM894 285h-76v-63h76v63z" glyph-name="u1F696" unicode="🚖"/>
<glyph d="M200 223v146l156 60l167 138h282l94 -137l62 -34l19 -173h-69c0 49 -38 77 -80 77c-43 0 -81 -27 -81 -77h-324c0 49 -38 77 -80 77c-43 0 -81 -27 -81 -77h-65zM434 430h400l-65 93h-222zM346 161c-30 0 -57 20 -57 57c0 36 27 56 57 56c27 0 56 -20 56 -56 c0 -37 -29 -57 -56 -57zM831 161c-30 0 -57 20 -57 57c0 36 27 56 57 56c27 0 56 -20 56 -56c0 -37 -29 -57 -56 -57z" glyph-name="u1F697" unicode="🚗"/>
<glyph d="M289 137v80l-38 18v130l182 244h319l182 -244v-130l-38 -18v-80h-120v80h-367v-80h-120zM391 466h406l-74 99h-261zM291 292h76v63h-76v-63zM401 292h76v63h-76v-63zM708 292h76v63h-76v-63zM818 292h76v63h-76v-63z" glyph-name="u1F698" unicode="🚘"/>
<glyph d="M202 213v141l99 163h132v100h496v-404h-56c0 49 -38 77 -80 77c-43 0 -81 -27 -81 -77h-284c0 49 -38 77 -80 77c-43 0 -81 -27 -81 -77h-65zM275 380h159v92h-103zM348 151c-30 0 -57 20 -57 57c0 36 27 56 57 56c27 0 56 -20 56 -56c0 -37 -29 -57 -56 -57zM793 151 c-30 0 -57 20 -57 57c0 36 27 56 57 56c27 0 56 -20 56 -56c0 -37 -29 -57 -56 -57z" glyph-name="u1F69A" unicode="🚚"/>
<glyph d="M202 201v112l79 132h147v-154h29v264h505v-354h-35c0 39 -31 62 -64 62c-35 0 -65 -22 -65 -62h-212c-1 39 -27 62 -62 62c-33 0 -63 -22 -65 -62h-76c0 39 -30 62 -64 62s-65 -22 -65 -62h-52zM261 335h127v74h-82zM319 151c-24 0 -46 16 -46 46c0 29 22 45 46 45 c22 0 45 -16 45 -45c0 -30 -23 -46 -45 -46zM524 151c-22 0 -44 16 -46 46c2 29 24 45 46 45c23 0 47 -16 45 -45c2 -30 -22 -46 -45 -46zM863 151c-24 0 -46 16 -46 46c0 29 22 45 46 45c21 0 45 -16 45 -45c0 -30 -24 -46 -45 -46z" glyph-name="u1F69B" unicode="🚛"/>
<glyph d="M547 -20v147h-82v623h245v-623h-82v-147h-81zM587 562c41 0 74 32 74 73s-33 74 -74 74c-40 0 -73 -33 -73 -74s33 -73 73 -73zM587 376c41 0 74 33 74 74c0 40 -33 74 -74 74c-40 0 -73 -34 -73 -74c0 -41 33 -74 73 -74zM587 402c-26 0 -48 21 -48 48c0 26 22 48 48 48 s49 -22 49 -48c0 -27 -23 -48 -49 -48zM587 191c41 0 74 33 74 73c0 41 -33 74 -74 74c-40 0 -73 -33 -73 -74c0 -40 33 -73 73 -73zM587 216c-26 0 -48 22 -48 48c0 27 22 49 48 49s49 -22 49 -49c0 -26 -23 -48 -49 -48z" glyph-name="u1F6A6" unicode="🚦"/>
<glyph d="M425 194l-46 -134h-78l54 154l29 141l9 23l-72 35v27l53 122l80 46l72 6l-14 80l24 42h71l27 -60l-27 -66l-39 -12l22 -50l-13 -59l59 -192l81 -40l31 53l150 -249h-326l-40 150l-68 114h-7zM403 518l-35 -86l39 -20l55 138zM532 352l2 -3l40 -20l-26 73zM602 224 l25 -125l74 128l-137 67z" glyph-name="u1F6A7" unicode="🚧"/>
<glyph d="M590 -157c-138 0 -261 51 -352 136c-102 96 -163 236 -163 381s61 285 163 381c91 85 214 136 352 136s261 -51 352 -136c102 -96 163 -236 163 -381s-61 -285 -163 -381c-91 -85 -214 -136 -352 -136zM590 807c-108 0 -213 -37 -293 -104l635 -635 c64 76 103 178 103 292c0 132 -52 247 -134 326c-81 78 -194 121 -311 121zM279 34c81 -78 194 -121 311 -121c109 0 214 37 294 105l-635 636c-64 -77 -104 -179 -104 -294c0 -132 52 -247 134 -326z" glyph-name="u1F6AB" unicode="🚫"/>
<glyph d="M894 168h-592v132c0 92 50 138 113 153c-24 25 -28 53 -28 70c0 73 49 114 145 114v-50c-63 0 -95 -25 -95 -65c0 -37 26 -60 54 -63v-50c-108 0 -139 -40 -139 -144v-18h32c0 58 32 106 101 106h48c45 0 65 11 65 47v107h30c68 0 95 22 95 58c0 39 -27 61 -96 61v50 c99 0 145 -45 145 -111c0 -73 -56 -109 -124 -109v-76c0 -53 -34 -77 -92 -77h-53c-50 0 -69 -28 -69 -55h460v-80z" glyph-name="u1F6AC" unicode="🚬"/>
<glyph d="M590 877c138 0 261 -51 352 -136c102 -96 163 -236 163 -381s-61 -285 -163 -381c-91 -85 -214 -136 -352 -136s-261 51 -352 136c-102 96 -163 236 -163 381s61 285 163 381c91 85 214 136 352 136zM894 168h-62l100 -100c64 76 103 178 103 292c0 132 -52 247 -134 326 c-81 78 -194 121 -311 121c-108 0 -213 -37 -293 -104l111 -111c23 29 65 45 124 45v-50c-44 0 -73 -12 -86 -33l152 -152v105h30c68 0 95 22 95 58c0 39 -27 61 -96 61v50c99 0 145 -45 145 -111c0 -73 -56 -109 -124 -109v-76c0 -9 -1 -18 -3 -25l107 -107h142v-80z M590 -87c109 0 214 37 294 105l-635 636c-64 -77 -104 -179 -104 -294c0 -132 52 -247 134 -326c81 -78 194 -121 311 -121zM383 443l42 -41c-55 -15 -73 -57 -73 -137v-18h32c0 53 27 98 89 106l50 -50h-20c-50 0 -69 -28 -69 -55h143l80 -80h-355v132c0 78 36 123 81 143z " glyph-name="u1F6AD" unicode="🚭"/>
<glyph d="M381 -1v263l-46 39l14 241l89 47l-23 25l-10 58l28 36h59l28 -38l-11 -56l-22 -25l58 -25l112 -91h95l27 -26v-30h-163l-70 47v-465h-60v247h-45v-247h-60zM666 336v51h54v-51h-54zM725 262v53h55v-53h-55zM817 0h-167l-31 246h50l25 -196h79l24 196h50zM707 167v53h55 v-53h-55z" glyph-name="u1F6AE" unicode="🚮"/>
<glyph d="M590 877c138 0 261 -51 352 -136c102 -96 163 -236 163 -381s-61 -285 -163 -381c-91 -85 -214 -136 -352 -136s-261 51 -352 136c-102 96 -163 236 -163 381s61 285 163 381c91 85 214 136 352 136zM864 298l-18 -144l86 -86c64 76 103 178 103 292 c0 132 -52 247 -134 326c-81 78 -194 121 -311 121c-108 0 -213 -37 -293 -104l122 -122l19 8l-23 25l-10 58l28 36h59l28 -38l-11 -56l-22 -25l58 -25l112 -71h105l27 -26v-30h-173l-70 27v-10l256 -256l12 100h50zM590 -87c109 0 214 37 294 105l-635 636 c-64 -77 -104 -179 -104 -294c0 -132 52 -247 134 -326c81 -78 194 -121 311 -121zM344 482l202 -203v-280h-60v247h-45v-247h-60v263l-46 37zM675 362v51h54v-51h-54zM730 294v53h55v-53h-55zM765 50l50 -50h-175l-25 200l58 -58l11 -92h81z" glyph-name="u1F6AF" unicode="🚯"/>
<glyph d="M568 175l-19 160l95 63l-67 111l-57 -54l-123 -25l-13 20l13 25l98 30l66 105h-32l-18 70l27 42h62l9 -42l-13 -58l58 -34l95 -162v-62l-134 -59v-130h-47zM393 46c-81 0 -147 67 -147 148s66 146 147 146c80 0 146 -66 146 -146c0 -81 -65 -148 -146 -148zM793 46 c-81 0 -147 67 -147 148s66 146 147 146c80 0 146 -66 146 -146c0 -81 -65 -148 -146 -148zM393 96c48 0 91 43 91 98c0 51 -43 96 -91 96c-50 0 -92 -44 -92 -96c0 -54 41 -98 92 -98zM793 96c48 0 91 43 91 98c0 51 -43 96 -91 96c-50 0 -92 -44 -92 -96 c0 -54 41 -98 92 -98z" glyph-name="u1F6B4" unicode="🚴"/>
<glyph d="M412 0l53 183l79 140l-8 75l-110 -114l-21 22v38l122 129l-6 65l36 72l-29 13l-19 77l33 50h78l18 -58l-32 -72l54 -19l99 -84l36 -169l-22 -24h-33l-29 145l-60 47l71 -351l86 -165h-84l-78 150l-26 128h-20l-77 -136l-37 -142h-74z" glyph-name="u1F6B6" unicode="🚶"/>
<glyph d="M590 877c138 0 261 -51 352 -136c102 -96 163 -236 163 -381s-61 -285 -163 -381c-91 -85 -214 -136 -352 -136s-261 51 -352 136c-102 96 -163 236 -163 381s61 285 163 381c91 85 214 136 352 136zM590 807c-108 0 -213 -37 -293 -104l230 -230l-6 65l36 72l-29 13 l-19 82l33 45h78l18 -53l-32 -77l54 -19l99 -84l36 -169l-22 -24h-33l-29 145l-60 47l43 -210l238 -238c64 76 103 178 103 292c0 132 -52 247 -134 326c-81 78 -194 121 -311 121zM590 -87c109 0 214 37 294 105l-635 636c-64 -77 -104 -179 -104 -294 c0 -132 52 -247 134 -326c81 -78 194 -121 311 -121zM441 384l41 -41l-71 -72l-21 22v38zM529 296l52 -52l-58 -102l-37 -142h-74l53 183zM638 187l108 -108l22 -79h-84l-38 150z" glyph-name="u1F6B7" unicode="🚷"/>
<glyph d="M573 0v750h45v-750h-45zM744 52l-12 156h-42l32 144l-47 37l42 158l51 43l-37 28l14 58l26 29h39l26 -31l13 -56l-36 -28l51 -43l42 -158l-47 -37l33 -144h-42l-13 -156h-35v156h-22v-156h-36zM333 52v252l-40 40l10 203l77 48l-17 23l-9 54l26 33h45l26 -35l-10 -52 l-16 -23l79 -47l9 -203l-39 -41v-252h-50v227h-41v-227h-50z" glyph-name="u1F6BB" unicode="🚻"/>
<glyph d="M379 80l77 229l-181 146l230 10l85 197l85 -197l230 -10l-181 -146l77 -229l-211 130z" glyph-name="u1F7CA" unicode="🟊"/>
<glyph d="M227 -18c-131 0 -176 97 -176 203v323h185v-281c0 -45 15 -77 58 -77c54 0 72 42 72 81v277h185v-508h-175l-7 67c-21 -40 -69 -85 -142 -85zM230 594v60l66 96h179v-60l-100 -96h-145z" glyph-name="uacute" horiz-adv-x="607" unicode="ú"/>
<glyph d="M227 -18c-131 0 -176 97 -176 203v323h185v-281c0 -45 15 -77 58 -77c54 0 72 42 72 81v277h185v-508h-175l-7 67c-21 -40 -69 -85 -142 -85zM302 589c-129 0 -167 78 -167 78v78h87s24 -35 80 -35c57 0 76 35 76 35h87v-78s-37 -78 -163 -78z" glyph-name="ubreve" horiz-adv-x="607" unicode="ŭ"/>
<glyph d="M350 594l-51 77l-50 -77h-137v60l92 96h190l92 -96v-60h-136zM227 -18c-131 0 -176 97 -176 203v323h185v-281c0 -45 15 -77 58 -77c54 0 72 42 72 81v277h185v-508h-175l-7 67c-21 -40 -69 -85 -142 -85z" glyph-name="ucircumflex" horiz-adv-x="607" unicode="û"/>
<glyph d="M103 593v161h169v-161h-169zM325 593v161h170v-161h-170zM227 -18c-131 0 -176 97 -176 203v323h185v-281c0 -45 15 -77 58 -77c54 0 72 42 72 81v277h185v-508h-175l-7 67c-21 -40 -69 -85 -142 -85z" glyph-name="udieresis" horiz-adv-x="607" unicode="ü"/>
<glyph d="M227 -18c-131 0 -176 97 -176 203v323h185v-281c0 -45 15 -77 58 -77c54 0 72 42 72 81v277h185v-508h-175l-7 67c-21 -40 -69 -85 -142 -85zM228 594l-100 96v60h179l66 -96v-60h-145z" glyph-name="ugrave" horiz-adv-x="607" unicode="ù"/>
<glyph d="M227 -18c-131 0 -176 97 -176 203v323h185v-281c0 -45 15 -77 58 -77c54 0 72 42 72 81v277h185v-508h-175l-7 67c-21 -40 -69 -85 -142 -85zM132 594v60l31 96h180l-22 -68l-43 -88h-146zM339 594v60l58 96h171v-60l-92 -96h-137z" glyph-name="uhungarumlaut" horiz-adv-x="607" unicode="ű"/>
<glyph d="M227 -18c-131 0 -176 97 -176 203v323h185v-281c0 -45 15 -77 58 -77c54 0 72 42 72 81v277h185v-508h-175l-7 67c-21 -40 -69 -85 -142 -85zM149 604v132h309v-132h-309z" glyph-name="umacron" horiz-adv-x="607" unicode="ū"/>
<glyph d="M0 -231v140h530v-140h-530z" glyph-name="underscore" horiz-adv-x="530" unicode="_"/>
<glyph glyph-name="uni00A0" horiz-adv-x="214" unicode=" "/>
<glyph d="M21 -260c-96 0 -154 43 -178 114v78h146c0 -17 7 -39 31 -39c27 0 36 17 36 60v555h184v-556c0 -128 -81 -212 -219 -212z" glyph-name="uni0237" horiz-adv-x="296" unicode="ȷ"/>
<glyph d="M435 298h-138v-298h-203v298h-78v150h78v302h473v-175h-270v-127h138v-150z" glyph-name="uni0492" horiz-adv-x="589" unicode="Ғ"/>
<glyph d="M375 173h-105v-173h-185v173h-61v123h61v212h373v-148h-188v-64h105v-123z" glyph-name="uni0493" horiz-adv-x="478" unicode="ғ"/>
<glyph d="M1052 -150h-185v150h-37l-215 304v-304h-195v304l-215 -304h-189v79l224 308l-201 284v79h176l205 -298v298h195v-298l205 298h172v-78l-198 -277l162 -220h96v-325z" glyph-name="uni0496" horiz-adv-x="1062" unicode="Җ"/>
<glyph d="M867 -140h-166v140h-62l-120 201v-201h-184v201l-119 -201h-185v70l132 193l-123 177v68h175l120 -191v191h184v-191l119 191h171v-69l-118 -175l85 -116h91v-288z" glyph-name="uni0497" horiz-adv-x="879" unicode="җ"/>
<glyph d="M614 220c0 -115 -66 -199 -191 -228v-142h-184v140c-120 23 -191 97 -206 175v79h164c7 -50 45 -95 122 -95c64 0 101 31 101 79c0 42 -31 76 -97 76h-101v149h84c60 0 89 36 89 77c0 44 -38 72 -86 72c-65 0 -96 -36 -102 -89h-164v78c16 85 96 177 277 177 c163 0 270 -75 270 -210c0 -73 -39 -136 -107 -164c83 -22 131 -86 131 -174z" glyph-name="uni0498" horiz-adv-x="651" unicode="Ҙ"/>
<glyph d="M493 145c0 -83 -52 -135 -144 -154v-141h-166v139c-118 23 -147 97 -152 104v69h154c3 -6 11 -53 74 -53c45 0 62 22 62 47c0 24 -15 46 -68 46h-69v105h63c42 0 57 21 57 49c0 22 -15 42 -53 42c-51 0 -63 -46 -65 -52h-150v69c5 8 51 112 228 112 c133 0 209 -54 209 -145c0 -51 -21 -91 -83 -110c69 -18 103 -63 103 -127z" glyph-name="uni0499" horiz-adv-x="525" unicode="ҙ"/>
<glyph d="M736 -150h-185v150h-32l-244 304v-304h-203v750h203v-299l234 299h172v-78l-224 -278l180 -219h99v-325z" glyph-name="uni049A" horiz-adv-x="745" unicode="Қ"/>
<glyph d="M585 -140h-166v140h-41l-137 201v-201h-185v508h185v-191l136 191h171v-69l-130 -175l92 -116h75v-288z" glyph-name="uni049B" horiz-adv-x="602" unicode="қ"/>
<glyph d="M470 451l170 299h172v-78l-162 -278l193 -314v-80h-194l-179 304v-149h-151v442h151v-146zM72 0v750h203v-750h-203z" glyph-name="uni049C" horiz-adv-x="860" unicode="Ҝ"/>
<glyph d="M404 317l94 191h170v-69l-95 -175l115 -194v-70h-189l-95 201v-109h-124v316h124v-91zM56 0v508h185v-508h-185z" glyph-name="uni049D" horiz-adv-x="719" unicode="ҝ"/>
<glyph d="M469 304v-304h-203v576h-245v174h448v-299l234 299h171v-78l-223 -278l255 -315v-79h-194z" glyph-name="uni04A0" horiz-adv-x="917" unicode="Ҡ"/>
<glyph d="M194 0v360h-174v148h358v-191l136 191h171v-69l-129 -175l148 -194v-70h-188l-138 201v-201h-184z" glyph-name="uni04A1" horiz-adv-x="725" unicode="ҡ"/>
<glyph d="M836 -150h-184v150h-127v298h-250v-298h-203v750h203v-278h250v278h203v-575h108v-325z" glyph-name="uni04A2" horiz-adv-x="860" unicode="Ң"/>
<glyph d="M635 -140h-167v140h-90v181h-137v-181h-185v508h185v-178h137v178h185v-360h72v-288z" glyph-name="uni04A3" horiz-adv-x="661" unicode="ң"/>
<glyph d="M698 167c-21 -83 -95 -155 -214 -178v-139h-184v144c-163 40 -263 178 -263 380c0 247 146 394 366 394c189 0 271 -98 290 -180v-78h-164c-10 48 -51 84 -125 84c-97 0 -164 -72 -164 -219c0 -143 66 -218 164 -218c73 0 118 40 130 88h164v-78z" glyph-name="uni04AA" horiz-adv-x="724" unicode="Ҫ"/>
<glyph d="M520 117c0 0 -28 -96 -145 -126v-141h-166v144c-118 35 -177 138 -177 257c0 151 100 276 269 276c181 0 218 -134 218 -134v-69h-145s-11 42 -73 42c-57 0 -84 -53 -84 -115c0 -61 27 -108 84 -108c65 0 74 43 74 43h145v-69z" glyph-name="uni04AB" horiz-adv-x="554" unicode="ҫ"/>
<glyph d="M237 0v290l-233 381v79h194l153 -279l146 279h171v-78l-228 -383v-289h-203z" glyph-name="uni04AE" horiz-adv-x="675" unicode="Ү"/>
<glyph d="M374 -250h-185v253l-174 435v70h180l94 -274l90 274h171v-69l-176 -437v-252z" glyph-name="uni04AF" horiz-adv-x="565" unicode="ү"/>
<glyph d="M582 159h-137v-159h-204v159h-137v149h126l-221 363v79h194l153 -279l146 279h171v-78l-217 -364h126v-149z" glyph-name="uni04B0" horiz-adv-x="684" unicode="Ұ"/>
<glyph d="M494 -123h-120v-127h-185v127h-120v123h122l-176 438v70h180l94 -274l90 274h171v-69l-178 -439h122v-123z" glyph-name="uni04B1" horiz-adv-x="564" unicode="ұ"/>
<glyph d="M723 -150h-185v150h-43l-151 238l-150 -238h-172v78l212 300l-201 293v79h194l144 -226l130 226h172v-78l-195 -286l146 -211h99v-325z" glyph-name="uni04B2" horiz-adv-x="736" unicode="Ҳ"/>
<glyph d="M578 -140h-166v140h-37l-92 126l-90 -126h-167v69l155 189l-152 180v70h184l89 -121l87 121h167v-69l-153 -183l91 -108h84v-288z" glyph-name="uni04B3" horiz-adv-x="599" unicode="ҳ"/>
<glyph d="M770 -150h-184v150h-127v271h-103c-210 0 -319 87 -319 301v178h203v-178c0 -90 34 -131 119 -131h100v309h203v-575h108v-325z" glyph-name="uni04B6" horiz-adv-x="794" unicode="Ҷ"/>
<glyph d="M599 -140h-166v140h-90v156h-65c-172 0 -246 68 -246 213v139h184v-139c0 -48 22 -65 64 -65h63v204h184v-360h72v-288z" glyph-name="uni04B7" horiz-adv-x="625" unicode="ҷ"/>
<glyph d="M713 0h-203v271h-52v-131h-151v132c-181 9 -269 91 -269 284v194h203v-195c0 -64 19 -99 66 -110v137h151v-141h52v309h203v-750z" glyph-name="uni04B8" horiz-adv-x="785" unicode="Ҹ"/>
<glyph d="M595 0h-185v156h-37v-86h-124v87c-152 7 -217 76 -217 212v139h184v-139c0 -35 11 -53 33 -61v87h124v-91h37v204h185v-508z" glyph-name="uni04B9" horiz-adv-x="651" unicode="ҹ"/>
<glyph d="M275 750v-271h103c210 0 319 -87 319 -301v-178h-203v178c0 90 -34 131 -119 131h-100v-309h-203v750h203z" glyph-name="uni04BA" horiz-adv-x="729" unicode="Һ"/>
<glyph d="M56 0v750h185v-303c22 38 74 80 147 80c132 0 176 -98 176 -203v-324h-185v281c0 45 -16 77 -62 77c-57 0 -76 -41 -76 -81v-277h-185z" glyph-name="uni04BB" horiz-adv-x="615" unicode="һ"/>
<glyph d="M72 0v750h203v-750h-203z" glyph-name="uni04C0" horiz-adv-x="347" unicode="Ӏ"/>
<glyph d="M424 304l-215 -304h-189v79l224 308l-210 284v79h177l213 -298v298h195v-298l214 298h171v-78l-206 -277l229 -316v-79h-193l-215 304v-304h-195v304zM526 801c-106 0 -169 41 -186 79v66h146c-1 -22 15 -49 40 -49c23 0 40 27 40 49h146v-66c-16 -38 -80 -79 -186 -79z " glyph-name="uni04C1" horiz-adv-x="1043" unicode="Ӂ"/>
<glyph d="M33 0v70l132 193l-131 177v68h175l128 -191v191h184v-191l127 191h171v-69l-126 -175l136 -194v-70h-185l-123 201v-201h-184v201l-123 -201h-181zM427 590c-98 0 -156 49 -169 90v68h130c-1 -29 7 -59 39 -59c30 0 39 30 39 59h130v-68c-14 -41 -70 -90 -169 -90z" glyph-name="uni04C2" horiz-adv-x="858" unicode="ӂ"/>
<glyph d="M73 0v750h203v-750h-203z" glyph-name="uni04CF" horiz-adv-x="349" unicode="ӏ"/>
<glyph d="M178 0h-168v70l238 680h225l237 -670v-80h-186l-42 132h-261zM431 298l-78 252l-80 -252h158zM360 801c-106 0 -169 41 -186 79v66h146c-1 -22 15 -49 40 -49c23 0 40 27 40 49h146v-66c-16 -38 -80 -79 -186 -79z" glyph-name="uni04D0" horiz-adv-x="722" unicode="Ӑ"/>
<glyph d="M194 -18c-111 0 -165 72 -165 159c0 102 77 161 227 161c45 0 80 -8 80 -8v17c0 42 -22 63 -65 63c-54 0 -69 -35 -69 -35h-146v69s40 119 217 119c168 0 248 -76 248 -222v-305h-173l-8 58c-25 -43 -69 -76 -146 -76zM264 121c54 0 72 36 72 65v20s-26 4 -63 4 c-45 0 -62 -19 -62 -46c0 -31 22 -43 53 -43zM283 590c-98 0 -156 49 -169 90v68h130c-1 -29 7 -59 39 -59c30 0 39 30 39 59h130v-68c-14 -41 -70 -90 -169 -90z" glyph-name="uni04D1" horiz-adv-x="571" unicode="ӑ"/>
<glyph d="M72 0v750h499v-175h-296v-111h257v-158h-257v-131h296v-175h-499zM320 801c-106 0 -169 41 -186 79v66h146c-1 -22 15 -49 40 -49c23 0 40 27 40 49h146v-66c-16 -38 -80 -79 -186 -79z" glyph-name="uni04D6" horiz-adv-x="618" unicode="Ӗ"/>
<glyph d="M312 -18c-189 0 -281 120 -281 269c0 151 102 276 278 276c179 0 257 -109 257 -251c0 -37 -10 -70 -10 -70h-338c11 -48 43 -80 98 -80c75 0 87 36 87 36h153v-69s-48 -111 -244 -111zM219 308h171c0 36 -28 75 -83 75c-50 0 -77 -31 -88 -75zM310 590 c-98 0 -156 49 -169 90v68h130c-1 -29 7 -59 39 -59c30 0 39 30 39 59h130v-68c-14 -41 -70 -90 -169 -90z" glyph-name="uni04D7" horiz-adv-x="599" unicode="ӗ"/>
<glyph d="M379 -10c-214 0 -348 153 -348 339c0 68 13 108 13 108h478c-15 108 -71 157 -168 157c-74 0 -125 -40 -135 -76h-164v79c23 77 119 171 314 171c225 0 362 -152 362 -390c0 -229 -135 -388 -352 -388zM370 166c79 0 131 42 147 122h-289c10 -71 65 -122 142 -122z" glyph-name="uni04D8" horiz-adv-x="768" unicode="Ә"/>
<glyph d="M287 526c189 0 281 -120 281 -269c0 -151 -102 -276 -278 -276c-179 0 -257 109 -257 251c0 37 10 70 10 70h338c-11 48 -43 80 -98 80c-75 0 -87 -36 -87 -36h-153v69s48 111 244 111zM380 200h-171c0 -36 28 -75 83 -75c50 0 77 31 88 75z" glyph-name="uni04D9" horiz-adv-x="599" unicode="ә"/>
<glyph d="M72 0v750h203v-438l261 438h203v-750h-203v436l-261 -436h-203zM246 805v124h343v-124h-343z" glyph-name="uni04E2" horiz-adv-x="811" unicode="Ӣ"/>
<glyph d="M56 0v508h185v-265l149 265h183v-508h-185v266l-149 -266h-183zM161 604v132h309v-132h-309z" glyph-name="uni04E3" horiz-adv-x="629" unicode="ӣ"/>
<glyph d="M408 -18c-223 0 -372 159 -372 396c0 234 149 390 372 390s372 -156 372 -390c0 -237 -149 -396 -372 -396zM408 156c103 0 169 88 169 222c0 130 -66 216 -169 216c-104 0 -169 -86 -169 -216c0 -134 65 -222 169 -222zM205 797v152h178v-152h-178zM427 797v152h178 v-152h-178z" glyph-name="uni04E6" horiz-adv-x="816" unicode="Ӧ"/>
<glyph d="M306 -18c-173 0 -275 123 -275 273c0 151 102 272 275 272s275 -121 275 -272c0 -150 -102 -273 -275 -273zM306 143c62 0 91 51 91 112s-29 111 -91 111s-90 -50 -90 -111s28 -112 90 -112zM111 593v161h169v-161h-169zM333 593v161h170v-161h-170z" glyph-name="uni04E7" horiz-adv-x="612" unicode="ӧ"/>
<glyph d="M408 -18c-223 0 -372 159 -372 396c0 234 149 390 372 390s372 -156 372 -390c0 -237 -149 -396 -372 -396zM408 602c-86 0 -148 -48 -168 -148h337c-20 100 -82 148 -169 148zM408 148c86 0 147 48 168 148h-335c21 -100 82 -148 167 -148z" glyph-name="uni04E8" horiz-adv-x="816" unicode="Ө"/>
<glyph d="M306 -18c-173 0 -275 123 -275 273c0 151 102 272 275 272s276 -121 276 -272c0 -150 -103 -273 -276 -273zM306 383c-48 0 -82 -28 -90 -76h181c-8 48 -42 76 -91 76zM306 126c46 0 81 25 89 71h-177c9 -46 43 -71 88 -71z" glyph-name="uni04E9" horiz-adv-x="613" unicode="ө"/>
<glyph d="M331 0h-171v78l89 154l-238 439v79h194l159 -305l151 305h171v-78zM191 805v124h343v-124h-343z" glyph-name="uni04EE" horiz-adv-x="693" unicode="Ӯ"/>
<glyph d="M250 -250h-167v70l110 204l-176 414v70h180l98 -276l108 276h166v-69zM146 604v132h309v-132h-309z" glyph-name="uni04EF" horiz-adv-x="578" unicode="ӯ"/>
<glyph d="M331 0h-171v78l89 154l-238 439v79h194l159 -305l151 305h171v-78zM172 805v60l31 80h188l-22 -60l-42 -80h-155zM387 805v60l58 80h189v-60l-92 -80h-155z" glyph-name="uni04F2" horiz-adv-x="693" unicode="Ӳ"/>
<glyph d="M126 594v60l31 96h180l-22 -68l-43 -88h-146zM333 594v60l58 96h171v-60l-92 -96h-137zM250 -250h-167v70l110 204l-176 414v70h180l98 -276l108 276h166v-69z" glyph-name="uni04F3" horiz-adv-x="578" unicode="ӳ"/>
<glyph d="M695 409h-653v107h379c20 8 27 24 27 41c0 37 -35 54 -85 54c-62 0 -91 -27 -100 -59h-165v79c29 79 126 137 278 137c170 0 271 -67 271 -177c0 -28 -5 -55 -17 -75h65v-107zM656 129c-27 -78 -120 -147 -286 -147c-178 0 -287 76 -287 193c0 29 5 58 10 71h-51v107h653 v-107h-390c-18 -9 -23 -28 -23 -46c0 -42 41 -61 95 -61c58 0 100 24 115 68h164v-78z" glyph-name="uni20B4" horiz-adv-x="737" unicode="₴"/>
<glyph d="M615 340h-570v89h327c22 7 24 26 24 34c0 27 -25 46 -71 46c-52 0 -78 -23 -86 -48h-147v67c24 67 111 116 244 116c148 0 238 -57 238 -150c0 -24 -6 -51 -15 -65h56v-89zM582 106c-22 -66 -106 -124 -251 -124c-157 0 -252 64 -252 162c0 24 4 51 14 61h-48v90h570v-90 h-341c-14 -7 -17 -23 -17 -38c0 -30 32 -51 79 -51c55 0 88 20 98 57h148v-67z" glyph-name="uni20B4.old" horiz-adv-x="661"/>
<glyph d="M577 332h-554v106h316c22 7 28 19 28 31c0 28 -26 40 -72 40c-52 0 -77 -23 -85 -48h-139v67c24 67 107 116 235 116c143 0 230 -57 230 -150c0 -24 -6 -42 -15 -56h56v-106zM544 106c-22 -66 -102 -124 -243 -124c-151 0 -243 64 -243 162c0 24 5 42 10 53h-45v107h554 v-107h-329c-15 -8 -21 -22 -21 -37c0 -28 27 -44 74 -44c55 0 91 20 103 57h140v-67z" glyph-name="uni20B4.oldtab" horiz-adv-x="600"/>
<glyph d="M639 409h-627v107h362c18 8 24 24 24 43c0 33 -21 52 -74 52c-56 0 -87 -27 -95 -59h-166v79c26 80 122 137 270 137c164 0 262 -67 262 -177c0 -28 -7 -59 -16 -75h60v-107zM603 129c-25 -79 -116 -147 -276 -147c-173 0 -278 76 -278 193c0 29 5 58 10 71h-47v107h627 v-107h-370c-16 -9 -23 -29 -23 -47c0 -35 29 -60 89 -60c50 0 90 24 103 68h165v-78z" glyph-name="uni20B4.tab" horiz-adv-x="650"/>
<glyph d="M29 618v132h573v-132h-573zM217 0v431h-189v132h574v-132h-182v-431h-203z" glyph-name="uni20B8" horiz-adv-x="631" unicode="₸"/>
<glyph d="M42 498v132h564v-132h-564zM226 0v311h-185v132h565v-132h-177v-311h-203z" glyph-name="uni20B8.old" horiz-adv-x="647"/>
<glyph d="M18 498v132h564v-132h-564zM202 0v311h-185v132h565v-132h-177v-311h-203z" glyph-name="uni20B8.oldtab" horiz-adv-x="600"/>
<glyph d="M39 618v132h573v-132h-573zM227 0v431h-189v132h574v-132h-182v-431h-203z" glyph-name="uni20B8.tab" horiz-adv-x="650"/>
<glyph d="M522 93h-174v-93h-203v93h-93v132h93v48h-93v153h93v324h269c176 0 287 -92 287 -239c0 -122 -96 -238 -287 -238h-66v-48h174v-132zM344 426h69c53 0 84 33 84 81c0 44 -30 73 -84 73h-69v-154z" glyph-name="uni20BD" horiz-adv-x="729" unicode="₽"/>
<glyph d="M468 74h-151v-74h-188v74h-80v113h80v41h-80v131h80v271h246c156 0 254 -76 254 -203c0 -102 -85 -199 -254 -199h-58v-41h151v-113zM314 359h52c47 0 74 26 74 66c0 39 -27 60 -74 60h-52v-126z" glyph-name="uni20BD.old" horiz-adv-x="660"/>
<glyph d="M441 82h-151v-82h-188v82h-81v113h81v33h-81v113h81v289h246c155 0 253 -76 253 -203c0 -102 -85 -199 -253 -199h-58v-33h151v-113zM286 359h53c46 0 74 26 74 66c0 39 -27 60 -74 60h-53v-126z" glyph-name="uni20BD.oldtab" horiz-adv-x="600"/>
<glyph d="M471 93h-174v-93h-203v93h-68v132h68v48h-68v153h68v324h269c176 0 287 -92 287 -239c0 -122 -96 -238 -287 -238h-66v-48h174v-132zM293 426h69c53 0 84 33 84 81c0 44 -30 73 -84 73h-69v-154z" glyph-name="uni20BD.tab" horiz-adv-x="650"/>
<glyph d="M535 610v110h110v-110h-110zM540 0v500h100v-500h-100z" glyph-name="uni2139" unicode="ℹ"/>
<glyph d="M614 54v-65h-71l-363 376l363 376h71v-65l-245 -261h613v-100h-613z" glyph-name="uni2190" unicode="←"/>
<glyph d="M901 346h65v71l-376 363l-376 -363v-71h65l261 245v-613h100v613z" glyph-name="uni2191" unicode="↑"/>
<glyph d="M565 49v-65h71l363 376l-363 376h-71v-65l245 -261h-613v-100h613z" glyph-name="uni2192" unicode="→"/>
<glyph d="M278 390h-65v-71l376 -363l376 363v71h-65l-261 -245v613h-100v-613z" glyph-name="uni2193" horiz-adv-x="1192" unicode="↓"/>
<glyph d="M490 180v-56h-60l-225 236l225 236h60v-56l-128 -137h456l-128 137v56h61l224 -236l-224 -236h-61v56l127 137h-454z" glyph-name="uni2194" unicode="↔"/>
<glyph d="M591 -25l-236 225v60h56l137 -128v456l-137 -128h-56v61l236 224l236 -224v-61h-56l-137 127v-454l137 127h56v-60z" glyph-name="uni2195" unicode="↕"/>
<glyph d="M832 51l-423 422l-4 -346l-46 -47l-45 47v507h507l47 -45l-47 -46l-346 -4l422 -423z" glyph-name="uni2196" unicode="↖"/>
<glyph d="M348 51l423 422l4 -346l46 -47l45 47v507h-507l-47 -45l47 -46l346 -4l-422 -423z" glyph-name="uni2197" unicode="↗"/>
<glyph d="M357 659l423 -422l4 346l46 47l45 -47v-507h-507l-47 45l47 46l346 4l-422 423z" glyph-name="uni2198" unicode="↘"/>
<glyph d="M828 666l-423 -422l-4 346l-46 47l-45 -47v-507h507l47 45l-47 46l-346 4l422 423z" glyph-name="uni2199" horiz-adv-x="1093" unicode="↙"/>
<glyph d="M858 45h-88v241c0 81 -47 133 -130 133h-258l132 -142v-58h-62l-232 244l232 243h62v-58l-131 -141h257c145 0 218 -85 218 -221v-241z" glyph-name="uni21B0" unicode="↰"/>
<glyph d="M325 45h88v241c0 81 47 133 130 133h258l-132 -142v-58h62l232 244l-232 243h-62v-58l131 -141h-257c-145 0 -218 -85 -218 -221v-241z" glyph-name="uni21B1" unicode="↱"/>
<glyph d="M858 675h-88v-241c0 -81 -47 -133 -130 -133h-258l132 142v58h-62l-232 -244l232 -243h62v58l-131 141h257c145 0 218 85 218 221v241z" glyph-name="uni21B2" unicode="↲"/>
<glyph d="M316 675h88v-241c0 -81 47 -133 130 -133h258l-132 142v58h62l232 -244l-232 -243h-62v58l131 141h-257c-145 0 -218 85 -218 221v241z" glyph-name="uni21B3" unicode="↳"/>
<glyph d="M824 320h-96l-18 -109h-296l-58 289h498zM784 365l15 90h-48l-15 -90h48zM336 141v45h471v-45h-471z" glyph-name="uni2615" unicode="☕"/>
<glyph d="M813 64l-73 149c-11 -132 -109 -200 -217 -200c-126 0 -216 99 -216 209c0 96 56 189 155 212l-10 112l35 46l-20 84l23 48h72l32 -62l-20 -61l-35 -10l51 -40l17 -106h105l29 -23v-37h-127l8 -63h152l113 -258h-74zM368 222c0 -82 60 -152 155 -152c89 0 156 62 157 165 h-197l-14 143c-59 -19 -101 -73 -101 -156z" glyph-name="uni267F" unicode="♿"/>
<glyph d="M537 581v94h301v-624h-304v479l-45 -71v-285c0 -78 -37 -119 -112 -119c-59 0 -102 34 -102 95c0 39 12 59 31 92l194 339h37zM793 630h-211v-147h211v147zM323 151c0 -31 23 -51 57 -51c48 0 64 27 64 87v207l-83 -149c-25 -44 -38 -66 -38 -94z" glyph-name="uni26FD" unicode="⛽"/>
<glyph d="M590 98l-226 227c-31 29 -50 72 -50 116s19 87 50 116c28 27 66 42 108 42s80 -15 109 -42l9 -9l9 9c28 27 67 42 108 42c43 0 81 -15 109 -42c31 -29 50 -72 50 -116s-20 -86 -50 -116z" glyph-name="uni2764" unicode="❤"/>
<glyph d="M265 606v-88h241c81 0 133 -47 133 -130v-258l-142 132h-58v-62l244 -232l243 232v62h-58l-141 -131v257c0 145 -85 218 -221 218h-241z" glyph-name="uni2B0E" unicode="⬎"/>
<glyph d="M288 80v88h241c81 0 133 47 133 130v258l-142 -132h-58v62l244 232l243 -232v-62h-58l-141 131v-257c0 -145 -85 -218 -221 -218h-241z" glyph-name="uni2B0F" unicode="⬏"/>
<glyph d="M902 608v-88h-241c-81 0 -133 -47 -133 -130v-258l142 132h58v-62l-244 -232l-243 232v62h58l141 -131v257c0 145 85 218 221 218h241z" glyph-name="uni2B10" unicode="⬐"/>
<glyph d="M891 66v88h-241c-81 0 -133 47 -133 130v258l142 -132h58v62l-244 232l-243 -232v-62h58l141 131v-257c0 -145 85 -218 221 -218h241z" glyph-name="uni2B11" unicode="⬑"/>
<glyph d="M590 -157c-138 0 -261 51 -352 136c-102 96 -163 236 -163 381s61 285 163 381c91 85 214 136 352 136s261 -51 352 -136c102 -96 163 -236 163 -381s-61 -285 -163 -381c-91 -85 -214 -136 -352 -136zM590 -87c117 0 230 43 311 121c82 79 134 194 134 326 s-52 247 -134 326c-81 78 -194 121 -311 121s-230 -43 -311 -121c-82 -79 -134 -194 -134 -326s52 -247 134 -326c81 -78 194 -121 311 -121z" glyph-name="uniE006" unicode=""/>
<glyph d="M459 22v40l93 52l-15 236l-320 -59v51l316 141c-4 175 20 267 56 267s59 -92 59 -267l315 -141v-51l-319 59l-16 -236l93 -52v-40l-131 25z" glyph-name="uniE50C" unicode=""/>
<glyph d="M701 -31v343h-80l-33 64l-35 -114l70 -128l32 -163h-62l-40 150l-75 101h-7l-57 -118h-170v51l122 11l117 294l-44 -6l-66 -111l-30 21v27l64 113l129 26l-12 78l23 36h65l27 -63l-34 -60l-26 -5l74 -146h48v238c0 2 2 5 4 6l90 60h-341v-139h-45v184h427v-658z" glyph-name="uniE519" unicode=""/>
<glyph d="M450 569v125l-48 -45h-25v28l97 93l97 -93v-28h-25l-48 45v-125h-48zM705 559l-97 93v28h25l48 -45v125h48v-125l48 45h25v-28zM314 55v480h552v-480h-552zM359 100h462v390h-462v-390zM709 140l-6 76h-19l16 70l-23 17l20 77l25 21l-18 13l7 28l12 15h17l13 -15l6 -28 l-17 -13l25 -21l20 -77l-22 -17l15 -70h-19l-6 -76h-18v76h-9v-76h-19zM424 140v122l-20 19l5 99l41 23l-9 11l-5 26l14 17h22l14 -18l-6 -25l-8 -11l41 -23l5 -98l-20 -20v-122h-27v110h-20v-110h-27zM560 140v122l-20 19l5 99l41 23l-9 11l-5 26l14 17h22l14 -18l-6 -25 l-8 -11l41 -23l5 -98l-20 -20v-122h-27v110h-20v-110h-27z" glyph-name="uniE51F" unicode=""/>
<glyph d="M283 69l50 165h-80l79 182l50 172l63 35l-47 12l33 78l25 21h58l28 -59l-19 -56l-42 -7l22 -31l58 -118h63l19 -19v-23h-124l-47 82l-22 -84l49 -185h-53v-165h-50v165h-11l-52 -165h-50zM686 419l-21 40l-63 56l8 36l96 -62h39l-10 63h36l33 -83c2 16 12 38 41 38 c28 0 43 -20 43 -43c0 -20 -10 -45 -43 -45c-24 0 -34 13 -39 22l-16 -22h-104zM525 69v328h373v-328h-50v278h-273v-278h-50z" glyph-name="uniE521" unicode=""/>
<glyph d="M247 515v46l346 212l347 -212v-46h-46l-301 182l-300 -182h-46zM245 138v328h55v-213h585v138h55v-253h-55v60h-584v-60h-56zM325 278v47h108l11 25h-83l-38 23l7 61l56 21l59 -27l19 -34l33 61l363 -64v-113h-535z" glyph-name="uniE524" unicode=""/>
<glyph d="M486 79h-190v185h112l91 93v142l24 52l-24 54l19 44h53l27 -44l-28 -56l43 -76l103 104h191v-183h-110zM351 134h110l310 315h80v73h-109l-309 -313h-82v-75z" glyph-name="uniE527" unicode=""/>
<glyph d="M287 88v55h103v124h121v120h122v121h121v120h154v-54h-99v-121h-121v-121h-121v-121h-122v-123h-158z" glyph-name="uniE52A" unicode=""/>
<glyph d="M438 432c-19 17 -27 40 -27 64c0 52 32 96 92 96c0 52 42 90 92 90c48 0 91 -39 91 -90c58 0 91 -45 91 -96c0 -25 -9 -47 -27 -64h-312zM584 0l-127 402h270l-120 -402h-23z" glyph-name="uniE52E" unicode=""/>
<glyph d="M414 159v45l55 76l-43 149l-102 144h-53v45h84l62 -85h448l-82 -277h-279l-39 -52h347v-45h-398zM485 54c-23 0 -43 20 -43 43s20 43 43 43c24 0 43 -19 43 -43s-19 -43 -43 -43zM729 54c-23 0 -42 19 -42 43s19 43 42 43c24 0 44 -19 44 -43s-20 -43 -44 -43z" glyph-name="uniE52F" unicode=""/>
<glyph d="M384 147l-98 321h158l24 113h243l24 -113h161l-98 -321h-414zM498 468h184l-11 63h-162z" glyph-name="uniE530" unicode=""/>
<glyph d="M505 97v192h-192v169h192v193h169v-193h193v-169h-193v-192h-169z" glyph-name="uniE536" unicode=""/>
<glyph d="M287 464l-46 46c81 100 211 143 349 143s254 -42 349 -143l-46 -46c-102 91 -186 124 -303 124s-213 -33 -303 -124zM368 383l-46 46c60 67 159 110 268 110s205 -42 268 -110l-46 -46c-78 72 -146 92 -222 92s-150 -19 -222 -92zM449 302l-46 46c57 60 118 77 187 77 s130 -19 187 -77l-46 -46c-36 45 -94 58 -141 58s-95 -13 -141 -58zM500 86l-31 108l-31 -108h-36l-39 146v17h36l26 -98l28 98h38l29 -100l26 100h29v-15l-39 -148h-36zM658 86v163h98v-32h-61v-35h54v-32h-54v-64h-37zM591 86v163h42v-163h-42zM774 86v163h42v-163h-42z " glyph-name="uniE542" unicode=""/>
<glyph d="M458 38v415l79 72v36h-43l-122 -109l-34 38l133 120h65v49h59v-49h70l127 60h19v-175h-19l-128 66h-69v-36l79 -71v-416h-216z" glyph-name="uniE545" unicode=""/>
<glyph d="M529 206c-6 14 -9 30 -9 44c0 129 186 130 186 293c0 64 -47 108 -115 108c-110 0 -123 -118 -123 -118h-78v68s38 137 204 137c128 0 218 -76 218 -195c0 -196 -191 -198 -191 -296c0 -13 2 -27 8 -41h-100zM527 0v117h116v-117h-116z" glyph-name="uniE547" unicode=""/>
<glyph d="M847 84c-66 -59 -157 -96 -257 -96s-191 37 -257 96c-75 70 -117 173 -117 276c0 104 42 206 117 276c66 59 157 96 257 96c82 0 157 -20 218 -61l-5 72l28 22l30 -18l14 -188l-196 -14l-22 27l18 31l95 7c-52 35 -115 53 -180 53c-79 0 -157 -29 -213 -82 c-54 -53 -89 -133 -89 -221s35 -168 89 -221c56 -53 134 -82 213 -82s157 29 213 82zM557 283v-48h-158v34l71 79c22 25 28 40 28 63c0 18 -9 30 -27 30c-33 0 -36 -38 -36 -38h-38v32s15 46 80 46c44 0 75 -26 75 -68c0 -34 -16 -61 -46 -95l-31 -35h82zM755 293h-36v-61 h-47v61h-106v37l101 148h52v-142h36v-43zM834 317v-82h-47v243h47v-102c8 11 23 24 48 24c39 0 59 -30 59 -68v-97h-48v82c0 25 -8 38 -28 38c-25 0 -31 -17 -31 -38zM619 336h53v77z" glyph-name="uniE549" unicode=""/>
<glyph d="M430 234l-43 -149h-76l73 256l-127 34l10 31l44 19l115 -27l236 39l60 191h18l24 -65l164 -33l-12 -57l-51 -35h-113l54 -353h-78l-31 149h-147l-42 -149h-77l42 149h-43z" glyph-name="uniE54A" unicode=""/>
<glyph d="M286 63v45h148v59l-56 7v46h177v-46l-56 -7v-59h125v153c-18 -8 -38 -12 -59 -12c-40 0 -76 15 -102 40c-29 27 -47 68 -47 110s18 82 47 110c21 20 49 33 81 38c1 34 16 67 39 89c21 20 51 33 85 33c33 0 62 -13 84 -33c14 -13 25 -30 32 -48c40 -5 75 -23 103 -49 c38 -35 61 -86 61 -139c0 -54 -23 -108 -61 -141c-34 -33 -78 -51 -129 -51c-25 0 -48 4 -69 12v-112h179v-45h-582z" glyph-name="uniE54B" unicode=""/>
<glyph d="M889 445l-299 186l-306 -186h-59v65l366 235l365 -235v-65h-67zM454 -14v497h154c121 0 197 -65 197 -164c0 -93 -66 -180 -197 -180h-61v-153h-93zM547 217h60c65 0 105 40 105 98c0 47 -38 89 -105 89h-60v-187z" glyph-name="uniE54C" unicode=""/>
<glyph d="M434 0v700h179c144 0 235 -84 235 -213c0 -119 -78 -230 -235 -230h-81v-257h-98zM532 341h81c84 0 137 57 137 143c0 70 -49 132 -137 132h-81v-275z" glyph-name="uniE54D" unicode=""/>
<glyph d="M746 449l-169 40l58 31l-59 101c-8 13 -20 28 -29 31h130c16 0 23 -3 31 -16l32 -55l51 30zM506 447l-105 60l66 114c8 14 17 26 42 26c20 0 33 -11 41 -25l29 -49zM792 248l-73 127l105 61l67 -116c6 -11 8 -20 8 -26c0 -29 -20 -46 -50 -46h-57zM351 167l-52 90 c-13 23 -13 31 -13 37s2 16 12 33l20 35l-55 33l167 38l47 -164l-53 33l-64 -111c-6 -10 -8 -17 -9 -24zM717 42l-120 126l120 122v-63h136c2 0 10 0 14 2l-57 -99c-7 -12 -17 -23 -35 -23h-58v-65zM417 106c-28 0 -49 16 -49 44c0 9 4 19 8 26l28 50h147v-120h-134z" glyph-name="uniE565" unicode=""/>
<glyph d="M590 877c138 0 261 -51 352 -136c102 -96 163 -236 163 -381s-61 -285 -163 -381c-91 -85 -214 -136 -352 -136s-261 51 -352 136c-102 96 -163 236 -163 381s61 285 163 381c91 85 214 136 352 136zM848 487c0 -87 -42 -171 -126 -209l210 -210c64 76 103 178 103 292 c0 132 -52 247 -134 326c-81 78 -194 121 -311 121c-108 0 -213 -37 -293 -104l137 -137v134h179c144 0 235 -84 235 -213zM590 -87c109 0 214 37 294 105l-635 636c-64 -77 -104 -179 -104 -294c0 -132 52 -247 134 -326c81 -78 194 -121 311 -121zM532 616v-148l122 -122 c60 16 96 67 96 138c0 70 -49 132 -137 132h-81zM434 391l134 -134h-36v-257h-98v391z" glyph-name="uniE569" unicode=""/>
<glyph d="M590 877c138 0 261 -51 352 -136c102 -96 163 -236 163 -381s-61 -285 -163 -381c-91 -85 -214 -136 -352 -136s-261 51 -352 136c-102 96 -163 236 -163 381s61 285 163 381c91 85 214 136 352 136zM752 438l43 -233l137 -137c64 76 103 178 103 292 c0 132 -52 247 -134 326c-81 78 -194 121 -311 121c-108 0 -213 -37 -293 -104l281 -281l83 13l61 193h18l24 -65l164 -33l-12 -57l-51 -35h-113zM590 -87c109 0 214 37 294 105l-635 636c-64 -77 -104 -179 -104 -294c0 -132 52 -247 134 -326c81 -78 194 -121 311 -121z M430 234l-43 -149h-76l73 256l-127 34l10 31l44 19l115 -27l164 -164h-40l-42 -149h-77l42 149h-43zM639 186l100 -101h-98z" glyph-name="uniE56A" unicode=""/>
<glyph d="M590 877c138 0 261 -51 352 -136c102 -96 163 -236 163 -381s-61 -285 -163 -381c-91 -85 -214 -136 -352 -136s-261 51 -352 136c-102 96 -163 236 -163 381s61 285 163 381c91 85 214 136 352 136zM727 402l-30 -99l235 -235c64 76 103 178 103 292 c0 132 -52 247 -134 326c-81 78 -194 121 -311 121c-108 0 -213 -37 -293 -104l138 -138c16 16 39 27 68 27c0 52 42 90 92 90c48 0 91 -39 91 -90c58 0 91 -45 91 -96c0 -25 -9 -47 -27 -64h-182l30 -30h129zM590 -87c109 0 214 37 294 105l-635 636 c-64 -77 -104 -179 -104 -294c0 -132 52 -247 134 -326c81 -78 194 -121 311 -121zM473 351l184 -184l-50 -167h-22z" glyph-name="uniE56B" unicode=""/>
<glyph d="M590 877c138 0 261 -51 352 -136c102 -96 163 -236 163 -381s-61 -285 -163 -381c-91 -85 -214 -136 -352 -136s-261 51 -352 136c-102 96 -163 236 -163 381s61 285 163 381c91 85 214 136 352 136zM795 523h-44l-23 -251l204 -204c64 76 103 178 103 292 c0 132 -52 247 -134 326c-81 78 -194 121 -311 121c-108 0 -213 -37 -293 -104l116 -116l6 26h226l13 137h56l-13 -137h74zM590 -87c109 0 214 37 294 105l-635 636c-64 -77 -104 -179 -104 -294c0 -132 52 -247 134 -326c81 -78 194 -121 311 -121zM458 367l254 -254 l-7 -74h-216z" glyph-name="uniE56C" unicode=""/>
<glyph d="M590 877c138 0 261 -51 352 -136c102 -96 163 -236 163 -381s-61 -285 -163 -381c-91 -85 -214 -136 -352 -136s-261 51 -352 136c-102 96 -163 236 -163 381s61 285 163 381c91 85 214 136 352 136zM914 149h-63l81 -81c64 76 103 178 103 292c0 132 -52 247 -134 326 c-81 78 -194 121 -311 121c-108 0 -213 -37 -293 -104l75 -75h190v-98h352v-381zM590 -87c109 0 214 37 294 105l-635 636c-64 -77 -104 -179 -104 -294c0 -132 52 -247 134 -326c81 -78 194 -121 311 -121zM695 598h145v-45h-145v45zM514 586h-100l57 -57h43v57zM624 201 l52 -52h-410v380h32l161 -163c-2 -10 -3 -18 -3 -26c0 -77 63 -141 140 -141c11 0 22 1 28 2zM596 480c-23 0 -43 -5 -62 -14l188 -188c10 18 15 40 15 62c0 77 -64 140 -141 140z" glyph-name="uniE56D" unicode=""/>
<glyph d="M641 45h-231v89h239c107 0 167 62 167 144s-60 144 -167 144h-244l116 -125v-58h-63l-216 228l216 227h63v-58l-116 -125h236c167 0 264 -105 264 -233c0 -129 -97 -233 -264 -233z" glyph-name="uniE588" unicode=""/>
<glyph d="M655 658h-231v-89h239c107 0 167 -62 167 -144s-60 -144 -167 -144h-244l116 125v58h-63l-216 -228l216 -227h63v58l-116 125h236c167 0 264 105 264 233c0 129 -97 233 -264 233z" glyph-name="uniE589" unicode=""/>
<glyph d="M516 55h231v89h-239c-107 0 -167 62 -167 144s60 144 167 144h244l-116 -125v-58h63l216 228l-216 227h-63v-58l116 -125h-236c-167 0 -264 -105 -264 -233c0 -129 97 -233 264 -233z" glyph-name="uniE58A" unicode=""/>
<glyph d="M519 645h231v-89h-239c-107 0 -167 -62 -167 -144s60 -144 167 -144h244l-116 125v58h63l216 -228l-216 -227h-63v58l116 125h-236c-167 0 -264 105 -264 233c0 129 97 233 264 233z" glyph-name="uniE58B" unicode=""/>
<glyph d="M889 409v-231h-89v239c0 107 -62 167 -144 167s-144 -60 -144 -167v-244l125 116h58v-63l-228 -216l-227 216v63h58l125 -116v236c0 167 105 264 233 264c129 0 233 -97 233 -264z" glyph-name="uniE58C" unicode=""/>
<glyph d="M422 179c-45 0 -56 24 -109 24c-8 0 -16 0 -24 -1l-91 100v45h182l67 216h460v-372c-15 -7 -27 -12 -49 -12c-45 0 -56 24 -109 24s-64 -24 -109 -24s-56 24 -109 24c-52 0 -64 -24 -109 -24zM428 347h139v170h-87zM612 415h103v102h-103v-102zM760 415h102v102h-102 v-102zM422 101c-57 0 -63 24 -109 24c-19 0 -35 -5 -56 -14v51c22 9 37 11 56 11c53 0 64 -24 109 -24s57 24 109 24c53 0 64 -24 109 -24s56 24 109 24s64 -24 109 -24c22 0 34 5 49 12v-52c-12 -4 -26 -8 -49 -8c-57 0 -63 24 -109 24s-52 -24 -109 -24s-63 24 -109 24 s-52 -24 -109 -24z" glyph-name="uniE592" unicode=""/>
<glyph d="M473 150l-43 -150h-75l46 165l31 352l-57 -58l-14 -155h-36l-22 24l16 169l82 83l80 27l-10 84l23 48h72l32 -62l-23 -74l-39 -11l37 -25l117 -223l-13 -42l-1 -1l166 -301h-56l-227 412v-89l69 -140l53 -183h-75l-37 142l-71 120h-9z" glyph-name="uniE596" unicode=""/>
<glyph d="M687 79h190v185h-112l-91 93v142l-24 52l24 54l-19 44h-53l-27 -44l28 -56l-43 -76l-103 104h-191v-183h110zM822 134h-110l-310 315h-80v73h109l309 -313h82v-75z" glyph-name="uniE599" unicode=""/>
<glyph d="M893 88v55h-103v124h-121v120h-122v121h-121v120h-154v-54h99v-121h121v-121h121v-121h122v-123h158z" glyph-name="uniE59C" unicode=""/>
<glyph d="M285 409v-231h89v239c0 107 62 167 144 167s144 -60 144 -167v-244l-125 116h-58v-63l228 -216l227 216v63h-58l-125 -116v236c0 167 -105 264 -233 264c-129 0 -233 -97 -233 -264z" glyph-name="uniE5A0" unicode=""/>
<glyph d="M895 281v231h-89v-239c0 -107 -62 -167 -144 -167s-144 60 -144 167v244l125 -116h58v63l-228 216l-227 -216v-63h58l125 116v-236c0 -167 105 -264 233 -264c129 0 233 97 233 264z" glyph-name="uniE5A1" unicode=""/>
<glyph d="M289 281v231h89v-239c0 -107 62 -167 144 -167s144 60 144 167v244l-125 -116h-58v63l228 216l227 -216v-63h-58l-125 116v-236c0 -167 -105 -264 -233 -264c-129 0 -233 97 -233 264z" glyph-name="uniE5A2" unicode=""/>
<glyph d="M492 72v164h77v-87h228v424h-228v-90h-77v167h382v-578h-382zM371 192l-165 168l165 171h55v-51l-74 -81h321v-77h-321l74 -80v-50h-55z" glyph-name="uniE5A3" unicode=""/>
<glyph d="M705 72v164h-77v-87h-228v424h228v-90h77v167h-382v-578h382zM826 192l165 168l-165 171h-55v-51l74 -81h-321v-77h321l-74 -80v-50h55z" glyph-name="uniE5A4" unicode=""/>
<glyph d="M879 468h-164v-77h87v-228h-424v228h90v77h-167v-382h578v382zM759 589l-168 165l-171 -165v-55h51l81 74v-321h77v321l80 -74h50v55z" glyph-name="uniE5A5" unicode=""/>
<glyph d="M879 251h-164v77h87v228h-424v-228h90v-77h-167v382h578v-382zM759 130l-168 -165l-171 165v55h51l81 -74v321h77v-321l80 74h50v-55z" glyph-name="uniE5A6" horiz-adv-x="1190" unicode=""/>
<glyph d="M494 -124c0 -77 -62 -98 -155 -107h-95v87c46 0 75 8 75 37c0 27 -34 34 -71 34v61c-126 22 -200 97 -215 177v79h164c7 -50 45 -95 122 -95c64 0 101 31 101 79c0 42 -31 76 -97 76h-101v149h84c60 0 89 36 89 77c0 44 -38 72 -86 72c-65 0 -96 -36 -102 -89h-164v78 c16 85 96 177 277 177c163 0 270 -75 270 -210c0 -73 -39 -136 -107 -164c83 -22 131 -86 131 -174c0 -123 -76 -211 -218 -233v-27c53 -7 98 -32 98 -84z" glyph-name="uniF50A" horiz-adv-x="651" unicode=""/>
<glyph d="M430 -124c0 -77 -62 -98 -155 -107h-95v87c46 0 75 8 75 37c0 27 -34 34 -71 34v62c-119 22 -148 97 -153 104v69h154c3 -6 11 -53 74 -53c45 0 62 22 62 47c0 24 -15 46 -68 46h-69v105h63c42 0 57 21 57 49c0 22 -15 42 -53 42c-51 0 -63 -46 -65 -52h-150v69 c5 8 51 112 228 112c133 0 209 -54 209 -145c0 -51 -21 -91 -83 -110c69 -18 103 -63 103 -127c0 -88 -58 -141 -161 -158v-27c53 -7 98 -32 98 -84z" glyph-name="uniF50B" horiz-adv-x="525" unicode=""/>
<glyph d="M178 0h-168v70l238 680h225l237 -670v-80h-186l-42 132h-261zM431 298l-78 252l-80 -252h158zM187 805v124h343v-124h-343z" glyph-name="uniF50E" horiz-adv-x="722" unicode=""/>
<glyph d="M194 -18c-111 0 -165 72 -165 159c0 102 77 161 227 161c45 0 80 -8 80 -8v17c0 42 -22 63 -65 63c-54 0 -69 -35 -69 -35h-146v69s40 119 217 119c168 0 248 -76 248 -222v-305h-173l-8 58c-25 -43 -69 -76 -146 -76zM264 121c54 0 72 36 72 65v20s-26 4 -63 4 c-45 0 -62 -19 -62 -46c0 -31 22 -43 53 -43zM136 604v132h309v-132h-309z" glyph-name="uniF50F" horiz-adv-x="571" unicode=""/>
<glyph d="M72 0v750h499v-175h-296v-111h257v-158h-257v-131h296v-175h-499zM150 805v124h343v-124h-343z" glyph-name="uniF510" horiz-adv-x="618" unicode=""/>
<glyph d="M312 -18c-189 0 -281 120 -281 269c0 151 102 276 278 276c179 0 257 -109 257 -251c0 -37 -10 -70 -10 -70h-338c11 -48 43 -80 98 -80c75 0 87 36 87 36h153v-69s-48 -111 -244 -111zM219 308h171c0 36 -28 75 -83 75c-50 0 -77 -31 -88 -75zM154 604v132h309v-132 h-309z" glyph-name="uniF511" horiz-adv-x="599" unicode=""/>
<glyph d="M408 -18c-223 0 -372 159 -372 396c0 234 149 390 372 390s372 -156 372 -390c0 -237 -149 -396 -372 -396zM408 156c103 0 169 88 169 222c0 130 -66 216 -169 216c-104 0 -169 -86 -169 -216c0 -134 65 -222 169 -222zM236 805v124h343v-124h-343z" glyph-name="uniF518" horiz-adv-x="816" unicode=""/>
<glyph d="M306 -18c-173 0 -275 123 -275 273c0 151 102 272 275 272s275 -121 275 -272c0 -150 -102 -273 -275 -273zM306 143c62 0 91 51 91 112s-29 111 -91 111s-90 -50 -90 -111s28 -112 90 -112zM153 604v132h309v-132h-309z" glyph-name="uniF519" horiz-adv-x="612" unicode=""/>
</font>
</defs>
</svg>
